<svg width="7" height="12" viewBox="0 0 7 12" fill="none" xmlns="http://www.w3.org/2000/svg">
<path d="M1.00016 11.7338C0.822385 11.7338 0.666829 11.6726 0.533496 11.5504C0.400163 11.4282 0.333496 11.2671 0.333496 11.0671V0.933757C0.333496 0.733757 0.400163 0.572645 0.533496 0.450423C0.666829 0.328201 0.822385 0.26709 1.00016 0.26709C1.04461 0.26709 1.20016 0.333757 1.46683 0.46709L6.30016 5.30042C6.41127 5.41153 6.48905 5.52265 6.5335 5.63376C6.57794 5.74487 6.60016 5.86709 6.60016 6.00042C6.60016 6.13376 6.57794 6.25598 6.5335 6.36709C6.48905 6.4782 6.41127 6.58931 6.30016 6.70042L1.46683 11.5338C1.40016 11.6004 1.32794 11.6504 1.25016 11.6838C1.17238 11.7171 1.08905 11.7338 1.00016 11.7338Z" fill="url(#paint0_linear_415_176)"/>
<defs>
<linearGradient id="paint0_linear_415_176" x1="0.297194" y1="0.958849" x2="8.06877" y2="3.90812" gradientUnits="userSpaceOnUse">
<stop stop-color="#FFE75C"/>
<stop offset="0.263138" stop-color="#FFC619"/>
<stop offset="0.62876" stop-color="#FF78B9"/>
<stop offset="0.852275" stop-color="#EB459F"/>
<stop offset="1" stop-color="#9747FF"/>
</linearGradient>
</defs>
</svg>
