<svg width="5" height="10" viewBox="0 0 5 10" fill="none" xmlns="http://www.w3.org/2000/svg">
<path d="M0.5 9.30001C0.366667 9.30001 0.25 9.25418 0.15 9.16251C0.05 9.07085 0 8.95001 0 8.80001V1.20001C0 1.05001 0.05 0.929179 0.15 0.837512C0.25 0.745846 0.366667 0.700012 0.5 0.700012C0.533333 0.700012 0.65 0.750012 0.85 0.850012L4.475 4.47501C4.55833 4.55835 4.61667 4.64168 4.65 4.72501C4.68333 4.80835 4.7 4.90001 4.7 5.00001C4.7 5.10001 4.68333 5.19168 4.65 5.27501C4.61667 5.35835 4.55833 5.44168 4.475 5.52501L0.85 9.15001C0.8 9.20001 0.745833 9.23751 0.6875 9.26251C0.629167 9.28751 0.566667 9.30001 0.5 9.30001Z" fill="white"/>
</svg>
