<svg width="22" height="20" viewBox="0 0 22 20" fill="none" xmlns="http://www.w3.org/2000/svg">
<rect y="0.75" width="21.1257" height="18.5" rx="4" fill="#8C8C8C" fill-opacity="0.14"/>
<path d="M9.25034 10C9.25034 10.116 9.20425 10.2273 9.1222 10.3094C9.04016 10.3914 8.92888 10.4375 8.81284 10.4375H6.62534V11.75C6.62541 11.8366 6.59979 11.9212 6.55172 11.9932C6.50365 12.0653 6.4353 12.1214 6.35531 12.1545C6.27533 12.1877 6.18731 12.1963 6.1024 12.1794C6.01749 12.1625 5.9395 12.1208 5.87831 12.0595L4.12831 10.3095C4.08764 10.2689 4.05537 10.2206 4.03335 10.1675C4.01133 10.1144 4 10.0575 4 10C4 9.94251 4.01133 9.88558 4.03335 9.83246C4.05537 9.77935 4.08764 9.7311 4.12831 9.69047L5.87831 7.94047C5.9395 7.87921 6.01749 7.83749 6.1024 7.82058C6.18731 7.80367 6.27533 7.81234 6.35531 7.84548C6.4353 7.87862 6.50365 7.93475 6.55172 8.00676C6.59979 8.07877 6.62541 8.16342 6.62534 8.25V9.5625H8.81284C8.92888 9.5625 9.04016 9.60859 9.1222 9.69064C9.20425 9.77269 9.25034 9.88397 9.25034 10ZM16.9974 9.69047L15.2474 7.94047C15.1862 7.87921 15.1082 7.83749 15.0233 7.82058C14.9384 7.80367 14.8504 7.81234 14.7704 7.84548C14.6904 7.87862 14.622 7.93475 14.574 8.00676C14.5259 8.07877 14.5003 8.16342 14.5003 8.25V9.5625H12.3128C12.1968 9.5625 12.0855 9.60859 12.0035 9.69064C11.9214 9.77269 11.8753 9.88397 11.8753 10C11.8753 10.116 11.9214 10.2273 12.0035 10.3094C12.0855 10.3914 12.1968 10.4375 12.3128 10.4375H14.5003V11.75C14.5003 11.8366 14.5259 11.9212 14.574 11.9932C14.622 12.0653 14.6904 12.1214 14.7704 12.1545C14.8504 12.1877 14.9384 12.1963 15.0233 12.1794C15.1082 12.1625 15.1862 12.1208 15.2474 12.0595L16.9974 10.3095C17.0381 10.2689 17.0703 10.2206 17.0923 10.1675C17.1144 10.1144 17.1257 10.0575 17.1257 10C17.1257 9.94251 17.1144 9.88558 17.0923 9.83246C17.0703 9.77935 17.0381 9.7311 16.9974 9.69047ZM10.5628 4.75C10.4468 4.75 10.3355 4.79609 10.2535 4.87814C10.1714 4.96019 10.1253 5.07147 10.1253 5.1875V14.8125C10.1253 14.9285 10.1714 15.0398 10.2535 15.1219C10.3355 15.2039 10.4468 15.25 10.5628 15.25C10.6789 15.25 10.7902 15.2039 10.8722 15.1219C10.9543 15.0398 11.0003 14.9285 11.0003 14.8125V5.1875C11.0003 5.07147 10.9543 4.96019 10.8722 4.87814C10.7902 4.79609 10.6789 4.75 10.5628 4.75Z" fill="#8C8C8C"/>
</svg>
