<svg width="22" height="42" viewBox="0 0 22 42" fill="none" xmlns="http://www.w3.org/2000/svg">
<path d="M1.98032 0.064256C1.46351 -0.130485 0.886682 0.130606 0.691942 0.647417C0.497201 1.16423 0.758291 1.74106 1.2751 1.9358C1.9448 2.18815 2.63948 2.47054 3.34984 2.78203C3.85563 3.00382 4.44546 2.77359 4.66725 2.26779C4.88904 1.762 4.6588 1.17217 4.15301 0.950384C3.41079 0.624924 2.68346 0.329207 1.98032 0.064256Z" fill="#ED3A4F"/>
<path d="M8.34791 3.0452C7.86681 2.77399 7.25693 2.94414 6.98572 3.42525C6.71451 3.90635 6.88466 4.51622 7.36576 4.78744C8.64942 5.51107 9.92466 6.31554 11.1433 7.19492C11.5911 7.51811 12.2162 7.41704 12.5394 6.96919C12.8625 6.52134 12.7615 5.89629 12.3136 5.57311C11.0283 4.6456 9.68942 3.80145 8.34791 3.0452Z" fill="#ED3A4F"/>
<path d="M15.953 8.59646C15.5558 8.2127 14.9227 8.22356 14.5389 8.62073C14.1552 9.01789 14.166 9.65097 14.5632 10.0347C15.6459 11.0808 16.6126 12.1931 17.417 13.3644C17.7297 13.8196 18.3522 13.9352 18.8074 13.6226C19.2627 13.3099 19.3783 12.6874 19.0656 12.2321C18.1735 10.9331 17.1156 9.71985 15.953 8.59646Z" fill="#ED3A4F"/>
<path d="M21.2477 16.5759C21.077 16.0506 20.5128 15.7632 19.9875 15.9339C19.4623 16.1046 19.1749 16.6688 19.3456 17.194C19.778 18.5246 19.9873 19.914 19.9219 21.361C19.897 21.9128 20.324 22.3802 20.8757 22.4051C21.4275 22.4301 21.8949 22.003 21.9198 21.4513C21.9968 19.7485 21.7493 18.1195 21.2477 16.5759Z" fill="#ED3A4F"/>
<path d="M20.8642 26.2386C21.0671 25.7249 20.8152 25.144 20.3016 24.9411C19.7879 24.7382 19.207 24.99 19.0041 25.5037C18.5222 26.7233 17.8375 27.9905 16.9153 29.3022C16.5977 29.754 16.7064 30.3777 17.1582 30.6954C17.61 31.013 18.2338 30.9043 18.5514 30.4525C19.5542 29.0262 20.3181 27.6206 20.8642 26.2386Z" fill="#ED3A4F"/>
<path d="M15.4958 34.1003C15.8809 33.7045 15.8722 33.0714 15.4763 32.6862C15.0805 32.3011 14.4474 32.3099 14.0623 32.7057C13.5628 33.2191 13.0271 33.7377 12.4534 34.2615C12.0456 34.6339 12.0168 35.2664 12.3892 35.6743C12.7616 36.0821 13.3941 36.1109 13.802 35.7385C14.4033 35.1895 14.9675 34.6434 15.4958 34.1003Z" fill="#ED3A4F"/>
<path d="M11.9839 41.3043C12.3723 41.1468 12.9698 40.9126 13.7765 40.6019C14.2205 40.3762 14.5705 40.1674 14.8267 39.9757C15.0872 39.754 15.29 39.5622 15.4352 39.4002C15.5847 39.2083 15.6958 39.0719 15.7684 38.9909C15.9052 38.6753 15.8499 38.4769 15.6025 38.3956C15.3551 38.3143 14.9967 38.3161 14.5273 38.401C14.0579 38.4859 13.5543 38.6497 13.0165 38.8924C11.4245 39.4712 10.0588 39.854 8.91942 40.0407C7.79713 40.2146 7.03129 40.1883 6.62189 39.9618C6.42154 39.7653 6.34922 39.5263 6.40494 39.2448C6.46496 38.9334 6.59544 38.5559 6.79637 38.1124C7.01439 37.656 7.25168 37.1186 7.50824 36.5002C7.93158 35.4638 8.27578 34.6598 8.54083 34.0883C8.80589 33.5168 9.03244 33.0541 9.2205 32.7002C9.40855 32.3462 9.57953 32.005 9.73343 31.6766C9.80613 31.489 9.83189 31.3098 9.81071 31.1391L9.75977 30.8574C9.65749 30.7208 9.49964 30.7057 9.28621 30.8122C9.07708 30.8888 8.84027 30.8929 8.5758 30.8244C8.45635 30.8072 8.36461 30.8092 8.30059 30.8305C8.22379 30.8347 8.14055 30.8837 8.05086 30.9775C7.96976 31.0116 7.88218 31.1437 7.7881 31.3741C7.7111 31.5916 7.64479 31.7878 7.58916 31.9627C7.4865 32.2527 7.36886 32.5939 7.23623 32.9864C7.10361 33.3788 6.8065 34.0142 6.3449 34.8927C5.94303 35.7798 5.62664 36.4964 5.39575 37.0423C5.16485 37.5882 4.99378 38.036 4.88252 38.3858C4.75849 38.7185 4.66007 39.032 4.58727 39.3263C4.5659 39.369 4.49105 39.5716 4.36272 39.9341C4.2216 40.2796 4.09552 40.5206 3.98446 40.657L4.73908 41.2913L6.5307 41.7089C7.24312 41.8418 7.91078 41.915 8.53371 41.9283C9.14384 41.9246 9.84157 41.7887 10.6269 41.5206C11.1303 41.5168 11.5827 41.4447 11.9839 41.3043Z" fill="#ED3A4F"/>
</svg>
