<svg width="15" height="42" viewBox="0 0 15 42" fill="none" xmlns="http://www.w3.org/2000/svg">
<path d="M1.68045 0.267206C1.27574 -0.108596 0.643009 -0.0851618 0.267206 0.319549C-0.108596 0.72426 -0.0851618 1.35699 0.319549 1.73279L1.68045 0.267206ZM4.02521 40.7231C4.14845 41.2615 4.68478 41.598 5.22314 41.4748L13.9962 39.4665C14.5346 39.3433 14.8711 38.8069 14.7479 38.2686C14.6246 37.7302 14.0883 37.3937 13.5499 37.5169L5.75164 39.3021L3.96649 31.5038C3.84325 30.9654 3.30692 30.6289 2.76856 30.7521C2.2302 30.8754 1.89368 31.4117 2.01692 31.9501L4.02521 40.7231ZM2.02801 3.26104C2.44354 3.62484 3.07531 3.58291 3.43912 3.16738C3.80292 2.75185 3.76099 2.12007 3.34546 1.75627L2.02801 3.26104ZM6.74699 4.83235C6.35103 4.44734 5.71793 4.45621 5.33291 4.85216C4.9479 5.24812 4.95677 5.88122 5.35273 6.26624L6.74699 4.83235ZM8.2582 9.52653C8.58785 9.96964 9.2143 10.0616 9.65741 9.73196C10.1005 9.40231 10.1925 8.77586 9.86285 8.33275L8.2582 9.52653ZM12.2423 12.4572C12.0288 11.9479 11.4427 11.7081 10.9334 11.9217C10.4241 12.1353 10.1844 12.7213 10.3979 13.2306L12.2423 12.4572ZM11.4988 17.3397C11.5697 17.8874 12.0713 18.2739 12.619 18.2029C13.1667 18.1319 13.5531 17.6304 13.4822 17.0827L11.4988 17.3397ZM13.5334 21.8237C13.5873 21.2741 13.1854 20.7848 12.6357 20.731C12.0861 20.6771 11.5968 21.079 11.5429 21.6286L13.5334 21.8237ZM10.7349 25.9217C10.5905 26.4548 10.9056 27.004 11.4387 27.1484C11.9718 27.2928 12.521 26.9777 12.6654 26.4446L10.7349 25.9217ZM11.1782 30.8321C11.3844 30.3198 11.1363 29.7373 10.624 29.5311C10.1116 29.3248 9.52912 29.573 9.32288 30.0853L11.1782 30.8321ZM7.4794 34.1265C7.22985 34.6192 7.42697 35.2209 7.91966 35.4705C8.41235 35.72 9.01406 35.5229 9.2636 35.0302L7.4794 34.1265ZM7.04651 39.0631C7.32743 38.5876 7.1697 37.9744 6.6942 37.6935C6.2187 37.4125 5.60549 37.5703 5.32457 38.0458L7.04651 39.0631ZM0.319549 1.73279C0.863869 2.23823 1.4409 2.74702 2.02801 3.26104L3.34546 1.75627C2.75915 1.24295 2.20142 0.750963 1.68045 0.267206L0.319549 1.73279ZM5.35273 6.26624C6.38745 7.27237 7.37946 8.34534 8.2582 9.52653L9.86285 8.33275C8.90143 7.04044 7.83121 5.88661 6.74699 4.83235L5.35273 6.26624ZM10.3979 13.2306C10.9191 14.4734 11.3036 15.8334 11.4988 17.3397L13.4822 17.0827C13.2632 15.3929 12.8304 13.8595 12.2423 12.4572L10.3979 13.2306ZM11.5429 21.6286C11.4128 22.9556 11.1518 24.3827 10.7349 25.9217L12.6654 26.4446C13.1088 24.8078 13.3915 23.2709 13.5334 21.8237L11.5429 21.6286ZM9.32288 30.0853C8.80749 31.3656 8.19622 32.7112 7.4794 34.1265L9.2636 35.0302C10.0041 33.5681 10.6396 32.1702 11.1782 30.8321L9.32288 30.0853ZM5.32457 38.0458C4.95313 38.6745 4.5628 39.3153 4.15294 39.9685L5.84706 41.0315C6.26607 40.3637 6.66569 39.7077 7.04651 39.0631L5.32457 38.0458Z" fill="#9747FF"/>
</svg>
