<svg width="18" height="24" viewBox="0 0 18 24" fill="none" xmlns="http://www.w3.org/2000/svg">
<path d="M17.0491 11.762L6.54911 23.012C6.43784 23.1307 6.29097 23.21 6.13065 23.238C5.97034 23.2659 5.80528 23.241 5.66039 23.1669C5.5155 23.0928 5.39863 22.9736 5.32743 22.8273C5.25623 22.681 5.23455 22.5154 5.26568 22.3557L6.64005 15.481L1.23724 13.4523C1.12121 13.4089 1.01773 13.3374 0.936059 13.2442C0.854388 13.1511 0.797063 13.0392 0.769207 12.9184C0.74135 12.7977 0.743829 12.672 0.776422 12.5525C0.809016 12.433 0.870708 12.3234 0.955988 12.2335L11.456 0.983518C11.5673 0.864771 11.7141 0.785435 11.8744 0.757484C12.0348 0.729534 12.1998 0.754484 12.3447 0.82857C12.4896 0.902656 12.6065 1.02186 12.6777 1.16819C12.7489 1.31452 12.7705 1.48004 12.7394 1.63977L11.3613 8.52196L16.7641 10.5479C16.8793 10.5916 16.9819 10.663 17.063 10.7558C17.144 10.8485 17.2009 10.9599 17.2287 11.0799C17.2565 11.1999 17.2544 11.3249 17.2224 11.4438C17.1904 11.5628 17.1296 11.6721 17.0454 11.762H17.0491Z" fill="#1EA0FF"/>
</svg>
