<svg width="149" height="55" viewBox="0 0 149 55" fill="none" xmlns="http://www.w3.org/2000/svg">
<g filter="url(#filter0_dd_415_899)">
<mask id="path-1-outside-1_415_899" maskUnits="userSpaceOnUse" x="3" y="2" width="143" height="50" fill="black">
<rect fill="white" x="3" y="2" width="143" height="50"/>
<path d="M3 13.2C3 9.27963 3 7.31945 3.76295 5.82207C4.43407 4.50493 5.50493 3.43407 6.82207 2.76295C8.31945 2 10.2796 2 14.2 2H134.8C138.72 2 140.681 2 142.178 2.76295C143.495 3.43407 144.566 4.50493 145.237 5.82207C146 7.31945 146 9.27963 146 13.2V37.8C146 41.7204 146 43.6805 145.237 45.1779C144.566 46.4951 143.495 47.5659 142.178 48.237C140.681 49 138.72 49 134.8 49H14.2C10.2796 49 8.31945 49 6.82207 48.237C5.50493 47.5659 4.43407 46.4951 3.76295 45.1779C3 43.6805 3 41.7204 3 37.8V13.2Z"/>
</mask>
<path d="M3 13.2C3 9.27963 3 7.31945 3.76295 5.82207C4.43407 4.50493 5.50493 3.43407 6.82207 2.76295C8.31945 2 10.2796 2 14.2 2H134.8C138.72 2 140.681 2 142.178 2.76295C143.495 3.43407 144.566 4.50493 145.237 5.82207C146 7.31945 146 9.27963 146 13.2V37.8C146 41.7204 146 43.6805 145.237 45.1779C144.566 46.4951 143.495 47.5659 142.178 48.237C140.681 49 138.72 49 134.8 49H14.2C10.2796 49 8.31945 49 6.82207 48.237C5.50493 47.5659 4.43407 46.4951 3.76295 45.1779C3 43.6805 3 41.7204 3 37.8V13.2Z" fill="white"/>
<path d="M3 2H146H3ZM146 42C146 47.5228 141.523 52 136 52H13C7.47715 52 3 47.5228 3 42C3 44.2091 6.13401 46 10 46H139C142.866 46 146 44.2091 146 42ZM3 49V2V49ZM146 2V49V2Z" fill="url(#paint0_linear_415_899)" mask="url(#path-1-outside-1_415_899)"/>
<path fill-rule="evenodd" clip-rule="evenodd" d="M22 15.9921V29.0848C22 29.4238 22.0086 29.9153 22.5587 30.5255L23.3323 31.4576C23.6116 31.8178 23.9769 32.2203 25.0084 32.1991H29.9077C33.131 32.1356 34.936 31.161 36.5906 29.445C36.6193 29.671 36.741 30.0806 37.1063 30.4407L37.9444 31.4153C38.2022 31.7542 38.546 32.1991 39.6849 32.1991H47.5497C47.7073 32.1991 48.0482 32.1907 48.1513 32.1568C48.9321 33.7598 51.4933 36.7368 55.5434 36.521C60.3138 36.2668 61.4527 32.7923 61.7965 30.8432C61.8251 31.2881 62.2305 32.1822 63.623 32.1991H64.7619C65.2704 32.1921 66.3004 31.8602 66.352 30.589V25.4621C66.309 24.8477 66.5454 23.9155 69.0166 24.1909V28.4704V29.1272C69.0168 29.1364 69.017 29.1458 69.0172 29.1552C69.0238 29.4722 69.0334 29.9301 69.5967 30.5678L70.3488 31.4576C70.5422 31.7189 71.1267 32.233 71.9175 32.1991H73.0564C73.5506 32.1779 74.668 31.9873 74.668 30.5678V28.6823C75.4416 30.0099 77.5904 32.5593 80.8137 32.4534C83.6961 32.3586 85.713 30.8856 86.594 28.5552C87.561 29.9888 89.8818 32.3262 94.5233 32.4534C95.7123 32.4816 98.5502 32.2034 100.39 30.8644C100.468 31.3093 100.901 32.1949 102.001 32.1779H102.882C103.147 32.1779 103.763 32.0847 104.107 31.7119C104.265 31.8813 104.735 32.2161 105.353 32.1991H105.719C106.227 32.1779 107.244 31.8008 107.244 30.4619V24.5511C107.266 23.8731 107.941 22.6571 110.468 23.2164V29.1696C110.46 29.445 110.511 30.017 111.026 30.5255L111.929 31.6271C112.101 31.8319 112.531 32.1991 113.175 32.1991H113.734C114.271 32.1779 115.152 31.7966 115.152 30.4407V24.5511C115.188 23.8661 115.883 22.6401 118.375 23.2164V28.9153V29.1484C118.375 29.4309 118.461 29.9111 118.805 30.3772L119.708 31.4576C119.88 31.7119 120.382 32.2161 121.018 32.1991H121.47C122.093 32.1779 123.038 31.9873 123.038 30.0382V23.7248C123.024 23.2799 122.836 22.1317 122.2 21.0978C122.566 21.5427 123.739 22.2885 125.509 21.7122C126.412 21.4185 127.581 19.9707 126.67 18.3437L125.209 16.5429C124.757 16.0132 123.429 15.1828 121.728 16.098C119.987 17.2632 120.546 18.8521 121.018 19.6572C120.424 18.725 118.47 17.0429 115.41 17.7717C114.823 17.927 113.493 18.4496 112.874 19.297C112.273 18.5273 110.356 17.1446 107.502 17.7717C107.173 17.8635 106.557 18.0683 105.869 18.5343C105.69 18.2942 105.16 17.8225 104.472 17.8564C103.613 17.8988 103.462 17.9411 103.011 18.3437L103.005 18.3372C102.827 18.1397 102.57 17.8564 101.55 17.8564H100.798C100.347 17.8776 99.53 18.0683 99.2722 19.1911C98.298 18.4355 95.3785 17.0895 91.4934 17.7505C90.6052 17.8917 88.4463 18.5132 86.9164 19.869V17.0725C86.9129 17.0081 86.9139 16.9463 86.9149 16.8848C86.9199 16.562 86.9249 16.2445 86.2932 15.5683L85.4122 14.5091C85.2833 14.3325 84.8148 13.9836 83.9725 14.0006C82.9195 14.0218 82.2319 14.4031 82.146 15.4836V24.8053C82.146 25.6316 81.9955 26.6485 79.9541 26.8815C79.5888 26.8956 78.7551 26.8646 78.3425 26.6273C78.2995 26.4649 78.2351 26.2459 77.8483 25.8434L76.8813 24.657C76.7452 24.4805 76.2882 24.1316 75.549 24.1486C74.8098 24.1655 74.6537 24.2121 74.668 24.2333C74.6608 23.4989 74.6035 22.0512 73.6151 20.8648C73.0144 20.1076 72.6634 19.6956 72.5137 19.5198C72.4706 19.4692 72.4441 19.4382 72.4332 19.4241C71.8244 18.6403 69.9277 17.1954 67.2115 17.6869C66.7674 17.7646 65.7073 18.0555 65.0197 18.5979C64.8836 18.3366 64.547 17.8564 63.3866 17.8564H62.4196C61.8753 17.8423 60.7693 18.1064 60.7006 19.2758C60.7149 18.7815 60.2923 17.8564 58.6807 17.8564H57.7781C57.4558 17.8635 56.7209 18.0216 56.3599 18.5979C55.7726 18.1318 54.0349 17.3056 51.7829 17.7293C51.1239 17.8564 49.5653 18.386 48.6026 19.4877L47.8075 18.4708C47.607 18.2307 47.2273 17.8564 46.1959 17.8564H38.589H38.3527C38.0088 17.8493 37.2481 17.975 36.9559 18.5343C36.433 17.6869 34.9188 15.776 33.045 14.9116C31.1712 14.0472 29.6069 14.0006 28.6184 14.0006H23.7835C22.9455 14.0006 22 14.2464 22 15.9921ZM34.4167 17.0999C32.9649 15.6829 31.1428 14.9744 28.9506 14.9744H23.8508C23.5626 14.9744 23.4185 14.9744 23.3084 15.0297C23.2115 15.0783 23.1328 15.1559 23.0834 15.2514C23.0273 15.36 23.0273 15.5021 23.0273 15.7862V28.9769C23.0273 29.261 23.0273 29.4031 23.0834 29.5117C23.1328 29.6072 23.2115 29.6848 23.3084 29.7334C23.4185 29.7888 23.5626 29.7888 23.8508 29.7888H28.9506C31.1428 29.7888 32.9649 29.0874 34.4167 27.6847C35.883 26.2676 36.6161 24.4999 36.6161 22.3816C36.6161 20.2632 35.883 18.5026 34.4167 17.0999ZM32.4131 25.3659C31.4695 26.1531 30.2863 26.5467 28.8635 26.5467H25.7059V18.2164H28.8635C30.2863 18.2164 31.4695 18.6171 32.4131 19.4187C33.3714 20.2059 33.8504 21.1935 33.8504 22.3816C33.8504 23.5696 33.3714 24.5644 32.4131 25.3659ZM46.4123 26.7185H41.6174L47.0834 21.0075V19.6509C47.0834 19.3667 47.0834 19.2246 47.0273 19.1161C46.9779 19.0206 46.8992 18.943 46.8024 18.8943C46.6923 18.839 46.5482 18.839 46.2599 18.839H38.5428C38.2545 18.839 38.1104 18.839 38.0004 18.8943C37.9035 18.943 37.8248 19.0206 37.7755 19.1161C37.7194 19.2246 37.7194 19.3667 37.7194 19.6509V19.6509V21.0974V21.0974C37.7194 21.3816 37.7194 21.5236 37.7755 21.6322C37.8248 21.7277 37.9035 21.8053 38.0004 21.8539C38.1104 21.9093 38.2545 21.9093 38.5428 21.9093H43.0765L37.6322 27.6203V28.9769C37.6322 29.2611 37.6322 29.4031 37.6883 29.5117C37.7376 29.6072 37.8164 29.6848 37.9132 29.7335C38.0234 29.7888 38.1675 29.7888 38.4557 29.7888H46.4123C46.7006 29.7888 46.8447 29.7888 46.9548 29.7335C47.0516 29.6848 47.1304 29.6072 47.1797 29.5117C47.2358 29.4031 47.2358 29.2611 47.2358 28.9769V27.5304C47.2358 27.2462 47.2358 27.1042 47.1797 26.9957C47.1304 26.9002 47.0516 26.8225 46.9548 26.7738C46.8447 26.7185 46.7006 26.7185 46.4123 26.7185H46.4123ZM57.1731 19.6509C57.1731 19.3667 57.1731 19.2246 57.2292 19.1161C57.2785 19.0206 57.3573 18.943 57.4541 18.8943C57.5643 18.839 57.7084 18.839 57.9966 18.839H58.854C59.1422 18.839 59.2864 18.839 59.3964 18.8943C59.4933 18.943 59.572 19.0206 59.6213 19.1161C59.6774 19.2246 59.6774 19.3667 59.6774 19.6509V28.6079C59.6774 30.2683 59.1548 31.5994 58.1095 32.6013C57.0643 33.6176 55.6778 34.1257 53.9501 34.1257C52.5274 34.1257 51.3224 33.7536 50.3351 33.0093C49.6193 32.48 49.0752 31.8076 48.7029 30.9924C48.5763 30.7152 48.513 30.5765 48.5406 30.4225C48.5627 30.2997 48.6531 30.1618 48.7577 30.0915C48.8887 30.0035 49.0647 30.0035 49.4168 30.0035H50.5175C50.665 30.0035 50.7388 30.0035 50.7971 30.017C50.8612 30.0319 50.887 30.0422 50.9436 30.0756C50.9949 30.106 51.0706 30.1786 51.2219 30.3237C51.8056 30.8831 52.715 31.1629 53.9501 31.1629C54.9374 31.1629 55.7213 30.9267 56.302 30.4543C56.8827 29.9963 57.1731 29.3737 57.1731 28.5864V27.3197C56.7521 28.0497 56.1932 28.6294 55.4963 29.0588C54.7994 29.4739 54.0155 29.6814 53.1444 29.6814C51.6055 29.6814 50.3279 29.1519 49.3117 28.0926C48.2954 27.0334 47.7873 25.7095 47.7873 24.1206C47.7873 22.5462 48.2954 21.2293 49.3117 20.1701C50.3279 19.111 51.6055 18.5814 53.1444 18.5814C54.0155 18.5814 54.7994 18.7889 55.4963 19.204C56.1932 19.6191 56.7521 20.1988 57.1731 20.9431V19.6509ZM51.337 25.9886C51.9902 26.4752 52.8033 26.7185 53.7759 26.7185C54.7486 26.7185 55.5544 26.4752 56.1932 25.9886C56.8465 25.4876 57.1731 24.865 57.1731 24.1206C57.1731 23.3763 56.8465 22.7609 56.1932 22.2742C55.5544 21.7733 54.7486 21.5228 53.7759 21.5228C52.8033 21.5228 51.9902 21.7733 51.337 22.2742C50.6836 22.7609 50.3569 23.3763 50.3569 24.1206C50.3569 24.865 50.6836 25.4876 51.337 25.9886ZM71.344 19.7193C70.5746 18.9607 69.5511 18.5814 68.2736 18.5814C66.4297 18.5814 65.0724 19.433 64.2013 21.1363V19.6509C64.2013 19.3667 64.2013 19.2246 64.1452 19.1161C64.0958 19.0206 64.0171 18.943 63.9203 18.8943C63.8101 18.839 63.666 18.839 63.3778 18.839H62.5421C62.2539 18.839 62.1098 18.839 61.9997 18.8943C61.9028 18.943 61.8242 19.0206 61.7748 19.1161C61.7187 19.2246 61.7187 19.3667 61.7187 19.6509V28.9769C61.7187 29.261 61.7187 29.4031 61.7748 29.5117C61.8242 29.6072 61.9028 29.6848 61.9997 29.7335C62.1098 29.7888 62.2539 29.7888 62.5421 29.7888H63.3778C63.666 29.7888 63.8101 29.7888 63.9203 29.7335C64.0171 29.6848 64.0958 29.6072 64.1452 29.5117C64.2013 29.4031 64.2013 29.261 64.2013 28.9769V23.8416C64.2013 23.1975 64.4771 22.6822 65.0288 22.2957C65.5804 21.9092 66.3064 21.716 67.2065 21.716C68.0631 21.716 68.7454 21.9092 69.2535 22.2957C69.7762 22.6678 70.0374 23.1688 70.0374 23.7986V28.9769C70.0374 29.261 70.0374 29.4031 70.0935 29.5117C70.1429 29.6072 70.2216 29.6848 70.3185 29.7335C70.4286 29.7888 70.5727 29.7888 70.8609 29.7888H71.6965C71.9848 29.7888 72.1289 29.7888 72.239 29.7335C72.3358 29.6848 72.4146 29.6072 72.464 29.5117C72.52 29.4031 72.52 29.261 72.52 28.9769V22.7465C72.52 21.487 72.1281 20.4779 71.344 19.7193ZM83.3245 28.6509C82.3519 29.5812 81.1396 30.0464 79.6878 30.0464C78.236 30.0464 77.0238 29.5812 76.0511 28.6509C75.2717 27.8939 74.8046 26.99 74.6497 25.9391L74.6496 25.9387L74.6496 25.9386L74.6496 25.9386L74.6496 25.9385L74.6496 25.9384L74.6495 25.9384C74.6142 25.6982 74.5965 25.5779 74.6455 25.4536C74.6847 25.3537 74.7774 25.2481 74.872 25.1954C74.9899 25.1297 75.1317 25.1297 75.4155 25.1297H75.4453C75.7157 25.1297 75.8509 25.1297 75.9416 25.1648C76.0427 25.2039 76.0778 25.2287 76.1477 25.3107C76.2103 25.3842 76.2722 25.5652 76.3959 25.9274L76.3962 25.9283C76.5468 26.369 76.831 26.754 77.2488 27.0835C77.9022 27.5988 78.7224 27.8565 79.7096 27.8565C80.6968 27.8565 81.5171 27.5988 82.1704 27.0835C82.8382 26.5682 83.1721 25.917 83.1721 25.1297V15.7688V15.7687C83.1721 15.501 83.1721 15.3672 83.2221 15.2637C83.2729 15.1585 83.3589 15.0737 83.4656 15.0236C83.5706 14.9744 83.7063 14.9744 83.9779 14.9744C84.2494 14.9744 84.3852 14.9744 84.4901 15.0236C84.5969 15.0737 84.6828 15.1585 84.7337 15.2637C84.7836 15.3672 84.7836 15.5011 84.7836 15.7688V25.1297C84.7836 26.5324 84.2972 27.7062 83.3245 28.6509ZM119.78 19.6978C119.054 18.9535 118.088 18.5814 116.883 18.5814C115.91 18.5814 115.076 18.8175 114.379 19.2899C113.682 19.7479 113.159 20.4063 112.811 21.2651C112.564 20.4349 112.1 19.7837 111.417 19.3113C110.75 18.8247 109.936 18.5814 108.978 18.5814C107.134 18.5814 105.842 19.4187 105.102 21.0934V19.569C105.102 19.3618 105.102 19.2582 105.072 19.1751C105.02 19.0324 104.906 18.92 104.761 18.8688C104.677 18.839 104.572 18.839 104.362 18.839C104.151 18.839 104.046 18.839 103.962 18.8688C103.817 18.92 103.703 19.0324 103.651 19.1751C103.621 19.2582 103.621 19.3618 103.621 19.569V29.0588C103.621 29.266 103.621 29.3696 103.651 29.4527C103.703 29.5954 103.817 29.7078 103.962 29.759C104.046 29.7888 104.151 29.7888 104.362 29.7888C104.572 29.7888 104.677 29.7888 104.761 29.759C104.906 29.7078 105.02 29.5954 105.072 29.4527C105.102 29.3696 105.102 29.266 105.102 29.0588V23.2189C105.102 22.4603 105.4 21.8448 105.995 21.3725C106.605 20.9001 107.403 20.664 108.39 20.664C109.32 20.664 110.067 20.893 110.633 21.351C111.214 21.809 111.505 22.4174 111.505 23.176V29.048V29.0482C111.505 29.2654 111.505 29.374 111.538 29.4606C111.589 29.597 111.699 29.7045 111.837 29.756C111.925 29.7888 112.035 29.7888 112.256 29.7888C112.476 29.7888 112.586 29.7888 112.675 29.756C112.813 29.7045 112.922 29.597 112.974 29.4606C113.007 29.374 113.007 29.2655 113.007 29.0483V29.048V23.2189C113.007 22.4603 113.304 21.8448 113.899 21.3725C114.509 20.9001 115.308 20.664 116.295 20.664C117.224 20.664 117.972 20.893 118.538 21.351C119.119 21.809 119.409 22.4174 119.409 23.176V29.0588C119.409 29.266 119.409 29.3696 119.44 29.4527C119.491 29.5954 119.606 29.7078 119.75 29.759C119.835 29.7888 119.939 29.7888 120.15 29.7888C120.36 29.7888 120.465 29.7888 120.549 29.759C120.694 29.7078 120.808 29.5954 120.86 29.4527C120.89 29.3696 120.89 29.266 120.89 29.0588V22.6607C120.89 21.4297 120.52 20.4421 119.78 19.6978ZM100.294 19.6317C100.294 19.3475 100.294 19.2054 100.35 19.0969C100.4 19.0014 100.478 18.9238 100.575 18.8751C100.685 18.8198 100.829 18.8198 101.118 18.8198H101.557C101.846 18.8198 101.99 18.8198 102.1 18.8751C102.197 18.9238 102.275 19.0014 102.325 19.0969C102.381 19.2054 102.381 19.3475 102.381 19.6317V28.9649C102.381 29.2491 102.381 29.3912 102.325 29.4997C102.275 29.5952 102.197 29.6728 102.1 29.7215C101.99 29.7768 101.846 29.7768 101.557 29.7768H101.118C100.829 29.7768 100.685 29.7768 100.575 29.7215C100.478 29.6728 100.4 29.5952 100.35 29.4997C100.294 29.3912 100.294 29.2491 100.294 28.9649V26.9624C99.7007 27.9077 98.8211 28.6597 97.655 29.2183C96.4888 29.7625 95.1591 30.0346 93.6656 30.0346C91.4357 30.0346 89.574 29.4903 88.0805 28.4018C86.5871 27.2989 85.8404 25.9312 85.8404 24.2983C85.8404 22.6655 86.5871 21.3049 88.0805 20.2163C89.574 19.1135 91.4357 18.562 93.6656 18.562C95.1591 18.562 96.4888 18.8413 97.655 19.3999C98.8211 19.9442 99.7007 20.689 100.294 21.6343V19.6317ZM89.7684 26.9194C90.9345 27.6069 92.3972 27.9506 94.1566 27.9506C95.916 27.9506 97.3788 27.6069 98.5449 26.9194C99.711 26.2176 100.294 25.3439 100.294 24.2983C100.294 23.2528 99.711 22.3862 98.5449 21.6987C97.3788 20.9969 95.916 20.646 94.1566 20.646C92.3972 20.646 90.9345 20.9969 89.7684 21.6987C88.6022 22.3862 88.0192 23.2528 88.0192 24.2983C88.0192 25.3439 88.6022 26.2176 89.7684 26.9194ZM123.217 19.5328C123.682 19.5328 124.066 19.3968 124.371 19.1248C124.691 18.8529 124.85 18.5165 124.85 18.1157C124.85 17.7149 124.691 17.3786 124.371 17.1066C124.066 16.8204 123.682 16.6772 123.217 16.6772C122.752 16.6772 122.36 16.8132 122.041 17.0852C121.737 17.3571 121.584 17.7006 121.584 18.1157C121.584 18.5165 121.737 18.8529 122.041 19.1248C122.36 19.3968 122.752 19.5328 123.217 19.5328Z" fill="black"/>
</g>
<defs>
<filter id="filter0_dd_415_899" x="0.9" y="0.15" width="147.2" height="54.2" filterUnits="userSpaceOnUse" color-interpolation-filters="sRGB">
<feFlood flood-opacity="0" result="BackgroundImageFix"/>
<feColorMatrix in="SourceAlpha" type="matrix" values="0 0 0 0 0 0 0 0 0 0 0 0 0 0 0 0 0 0 127 0" result="hardAlpha"/>
<feOffset dy="1"/>
<feGaussianBlur stdDeviation="0.375"/>
<feColorMatrix type="matrix" values="0 0 0 0 0 0 0 0 0 0 0 0 0 0 0 0 0 0 0.05 0"/>
<feBlend mode="normal" in2="BackgroundImageFix" result="effect1_dropShadow_415_899"/>
<feColorMatrix in="SourceAlpha" type="matrix" values="0 0 0 0 0 0 0 0 0 0 0 0 0 0 0 0 0 0 127 0" result="hardAlpha"/>
<feOffset dy="0.25"/>
<feGaussianBlur stdDeviation="1.05"/>
<feColorMatrix type="matrix" values="0 0 0 0 0 0 0 0 0 0 0 0 0 0 0 0 0 0 0.15 0"/>
<feBlend mode="normal" in2="effect1_dropShadow_415_899" result="effect2_dropShadow_415_899"/>
<feBlend mode="normal" in="SourceGraphic" in2="effect2_dropShadow_415_899" result="shape"/>
</filter>
<linearGradient id="paint0_linear_415_899" x1="2.99718" y1="32.3876" x2="52.9597" y2="100.876" gradientUnits="userSpaceOnUse">
<stop stop-color="#FFE75C"/>
<stop offset="0.263138" stop-color="#FFC619"/>
<stop offset="0.62876" stop-color="#FF78B9"/>
<stop offset="0.852275" stop-color="#EB459F"/>
<stop offset="1" stop-color="#9747FF"/>
</linearGradient>
</defs>
</svg>
