<svg width="22" height="20" viewBox="0 0 22 20" fill="none" xmlns="http://www.w3.org/2000/svg">
<g filter="url(#filter0_d_415_106)">
<path d="M19.9375 6.9375C20.1198 6.9375 20.2947 6.86507 20.4236 6.73614C20.5526 6.6072 20.625 6.43234 20.625 6.25V3.5C20.625 3.13533 20.4801 2.78559 20.2223 2.52773C19.9644 2.26987 19.6147 2.125 19.25 2.125H2.75C2.38533 2.125 2.03559 2.26987 1.77773 2.52773C1.51987 2.78559 1.375 3.13533 1.375 3.5V6.25C1.375 6.43234 1.44743 6.6072 1.57636 6.73614C1.7053 6.86507 1.88016 6.9375 2.0625 6.9375C2.60951 6.9375 3.13411 7.1548 3.52091 7.54159C3.9077 7.92839 4.125 8.45299 4.125 9C4.125 9.54701 3.9077 10.0716 3.52091 10.4584C3.13411 10.8452 2.60951 11.0625 2.0625 11.0625C1.88016 11.0625 1.7053 11.1349 1.57636 11.2639C1.44743 11.3928 1.375 11.5677 1.375 11.75V14.5C1.375 14.8647 1.51987 15.2144 1.77773 15.4723C2.03559 15.7301 2.38533 15.875 2.75 15.875H19.25C19.6147 15.875 19.9644 15.7301 20.2223 15.4723C20.4801 15.2144 20.625 14.8647 20.625 14.5V11.75C20.625 11.5677 20.5526 11.3928 20.4236 11.2639C20.2947 11.1349 20.1198 11.0625 19.9375 11.0625C19.3905 11.0625 18.8659 10.8452 18.4791 10.4584C18.0923 10.0716 17.875 9.54701 17.875 9C17.875 8.45299 18.0923 7.92839 18.4791 7.54159C18.8659 7.1548 19.3905 6.9375 19.9375 6.9375ZM2.75 12.3687C3.52707 12.211 4.2257 11.7894 4.72751 11.1754C5.22932 10.5615 5.50345 9.79293 5.50345 9C5.50345 8.20707 5.22932 7.43852 4.72751 6.82457C4.2257 6.21063 3.52707 5.78904 2.75 5.63125V3.5H7.5625V14.5H2.75V12.3687Z" fill="url(#paint0_linear_415_106)"/>
</g>
<defs>
<filter id="filter0_d_415_106" x="-1.625" y="0.125" width="25.25" height="19.75" filterUnits="userSpaceOnUse" color-interpolation-filters="sRGB">
<feFlood flood-opacity="0" result="BackgroundImageFix"/>
<feColorMatrix in="SourceAlpha" type="matrix" values="0 0 0 0 0 0 0 0 0 0 0 0 0 0 0 0 0 0 127 0" result="hardAlpha"/>
<feOffset dy="1"/>
<feGaussianBlur stdDeviation="1.5"/>
<feComposite in2="hardAlpha" operator="out"/>
<feColorMatrix type="matrix" values="0 0 0 0 0 0 0 0 0 0 0 0 0 0 0 0 0 0 1 0"/>
<feBlend mode="normal" in2="BackgroundImageFix" result="effect1_dropShadow_415_106"/>
<feBlend mode="normal" in="SourceGraphic" in2="effect1_dropShadow_415_106" result="shape"/>
</filter>
<linearGradient id="paint0_linear_415_106" x1="11" y1="5.12506" x2="11" y2="11.5252" gradientUnits="userSpaceOnUse">
<stop stop-color="white"/>
<stop offset="1" stop-color="#999999"/>
</linearGradient>
</defs>
</svg>
