<svg width="173" height="58" viewBox="0 0 173 58" fill="none" xmlns="http://www.w3.org/2000/svg">
<path fill-rule="evenodd" clip-rule="evenodd" d="M116.425 14H57.3642C55.5073 14 54 15.4108 54 17.1593V40.4798C54 42.2283 55.5073 43.6632 57.3642 43.6632H116.425C118.282 43.6632 119.802 42.2524 119.802 40.5401V17.2316C119.814 15.4229 118.318 14 116.425 14ZM99.4836 42.3368H57.3642C56.3031 42.3368 55.4349 41.5048 55.4349 40.4919V17.1593C55.4349 16.1584 56.3031 15.3505 57.3642 15.3505H99.4836V42.3368ZM118.379 39.2499L115.159 42.3247H110.71L118.379 35.0657V39.2499ZM118.379 32.7505H116.437L106.284 42.3368H101.847L112 32.7505H107.575L100.931 39.0329V34.921L103.198 32.7626H100.931V15.3505H116.437C117.523 15.3505 118.379 16.1705 118.379 17.2316V32.7505Z" fill="#B5B5B5"/>
<path fill-rule="evenodd" clip-rule="evenodd" d="M62.8627 39.5772C65.8772 39.5772 67.071 38.0579 67.071 35.5257V33.5964H64.2735V36.0804C64.2735 36.7918 63.9238 37.1777 62.8747 37.1777C61.8618 37.1777 61.476 36.7918 61.476 36.0804V21.5864C61.476 20.875 61.8618 20.4891 62.8747 20.4891C63.9238 20.4891 64.2735 20.875 64.2735 21.5864V24.0824H67.071V22.1531C67.071 19.6209 65.8772 18.1016 62.8627 18.1016C59.8843 18.1016 58.6905 19.6209 58.6905 22.1531V35.5136C58.6785 38.0579 59.8722 39.5772 62.8627 39.5772Z" fill="#B5B5B5"/>
<path fill-rule="evenodd" clip-rule="evenodd" d="M71.1096 35.1642H74.0277L74.5703 39.2761H77.2954L74.1844 18.4033H70.9528L67.8418 39.2761H70.567L71.1096 35.1642ZM72.5686 23.2025L73.7383 32.7405H71.3869L72.5686 23.2025Z" fill="#B5B5B5"/>
<path fill-rule="evenodd" clip-rule="evenodd" d="M81.2034 30.1949H82.1681C83.2171 30.1949 83.9165 30.629 83.9165 31.8469V35.5729C83.9165 37.3937 83.9768 38.3583 84.7726 39.2748H87.3169C86.907 38.491 86.7261 37.6348 86.7261 36.7305V32.0278C86.7261 30.6531 86.4849 29.7608 84.8329 29.3147C86.1714 29.0494 86.497 28.1209 86.497 26.9633V21.0307C86.497 19.4511 85.3514 18.4141 83.6392 18.4141H78.418V39.2868H81.2034V30.1949ZM81.2034 20.8257H83.0604C83.5307 20.8257 83.6995 20.9342 83.6995 21.3804V27.2527C83.6995 27.6989 83.5427 27.8436 83.0604 27.8436H81.2034V20.8257Z" fill="#B5B5B5"/>
<path fill-rule="evenodd" clip-rule="evenodd" d="M92.1511 39.5772C94.816 39.5772 96.1545 38.0217 96.1545 35.9357V33.0176C96.1545 31.7997 95.8048 30.8712 95.0089 29.9789L91.7411 26.1203C91.1985 25.4932 90.9453 24.9627 90.9453 24.0583V21.5864C90.9453 20.875 91.3312 20.4891 92.1873 20.4891C93.0434 20.4891 93.4293 20.875 93.4293 21.5864V24.3718H96.2268V21.7431C96.2268 19.6571 94.8642 18.1016 92.1994 18.1016C89.5345 18.1016 88.1357 19.6571 88.1357 21.7431V24.6612C88.1357 25.8791 88.4854 26.8076 89.2572 27.6999L92.5973 31.5465C93.1399 32.1735 93.4293 32.7041 93.4293 33.6084V36.0804C93.4293 36.7918 92.9952 37.1777 92.1391 37.1777C91.2829 37.1777 90.8609 36.7918 90.8609 36.0804V33.307H88.1357V35.9236C88.1478 38.0217 89.4863 39.5772 92.1511 39.5772Z" fill="#B5B5B5"/>
<path fill-rule="evenodd" clip-rule="evenodd" d="M108.647 24.2395C109.286 22.9975 109.648 22.1172 109.648 21.1164C109.648 19.175 108.756 18.4033 107.369 18.4033C106.26 18.4033 105.09 19.1148 105.09 21.1767H106.561C106.561 20.1879 106.814 19.6574 107.393 19.6574C107.984 19.6574 108.189 20.1638 108.189 21.1767C108.189 21.8761 108.092 22.4911 107.393 23.8295L105.018 28.4478V29.7019H109.708V28.4116H106.525L108.647 24.2395Z" fill="#B5B5B5"/>
<path fill-rule="evenodd" clip-rule="evenodd" d="M113.542 18.5479H112.155L109.31 25.7828V27.0007H112.107V29.7017H113.542V27.0007H114.302V25.7225H113.542V18.5479ZM112.095 25.7225H110.648L112.095 22.0086V25.7225Z" fill="#B5B5B5"/>
</svg>
