<svg width="173" height="58" viewBox="0 0 173 58" fill="none" xmlns="http://www.w3.org/2000/svg">
<path d="M63.4818 29.5433C62.7143 28.9038 61.6697 28.584 60.3053 28.584H55.7432V40.4583H58.0882V37.0261H59.7297C60.4545 37.0474 61.1794 36.9195 61.8615 36.6637C62.4371 36.4292 62.9488 36.0668 63.3538 35.6191C63.7376 35.1927 64.0573 34.6811 64.2279 34.1268C64.4198 33.5512 64.5264 32.9543 64.505 32.3573C64.569 31.1209 64.2066 30.1829 63.4818 29.5433ZM61.9468 33.743C61.7763 34.1481 61.4991 34.4892 61.1367 34.745C60.7104 35.0008 60.1987 35.1287 59.6871 35.1074H58.0669V30.5879H60.2413C60.753 30.5666 61.2433 30.6945 61.6484 30.993C62.0108 31.2701 62.2026 31.7178 62.2026 32.3573C62.2453 32.8477 62.1387 33.3167 61.9468 33.743Z" fill="#B5B5B5"/>
<path d="M73.9063 38.0494V35.0649C73.9276 34.404 73.821 33.7431 73.5865 33.1249C73.3947 32.6559 73.0962 32.2508 72.6912 31.9524C72.2861 31.6539 71.8171 31.462 71.3268 31.3981C70.7725 31.2702 70.1969 31.2275 69.6426 31.2275C69.1523 31.2275 68.6407 31.2702 68.1503 31.3554C67.7026 31.4194 67.255 31.526 66.8286 31.6752V33.5299H66.9991C67.3402 33.3807 67.6813 33.2741 68.0437 33.2102C68.4701 33.1249 68.9178 33.0609 69.3655 33.0396C69.7918 33.0183 70.2395 33.0822 70.6446 33.2102C70.9644 33.2954 71.2415 33.4873 71.412 33.7644C71.6039 34.1695 71.7105 34.5959 71.6892 35.0435V35.2141L71.1989 35.0862C70.7938 35.0009 70.3674 34.9583 69.9411 34.9583C69.2376 34.9583 68.5554 35.0649 67.8945 35.278C67.3616 35.4486 66.8925 35.7684 66.5301 36.2161C66.189 36.6851 66.0185 37.2606 66.0611 37.8362C66.0611 38.8382 66.4235 39.563 67.1057 40.0534C67.7879 40.5011 68.8325 40.7356 70.1969 40.7356C70.602 40.7356 71.0496 40.6929 71.4973 40.6503C71.945 40.6076 72.3927 40.5224 72.8191 40.4158C73.2668 40.2879 73.6718 40.1813 74.0342 40.0534L74.0768 39.9255C74.0129 39.6696 73.9916 39.3925 73.9916 39.1154C73.9276 38.7743 73.885 38.4118 73.9063 38.0494ZM71.2415 38.9661C70.8791 39.0301 70.5167 39.0514 70.1543 39.0514C69.5147 39.0514 69.0244 38.9661 68.7046 38.7743C68.3635 38.5611 68.1716 38.1987 68.193 37.8149C68.193 37.3246 68.3635 37.0048 68.7046 36.813C69.0457 36.6211 69.6 36.5358 70.3248 36.5358C70.6659 36.5358 71.007 36.5785 71.3268 36.6211C71.4547 36.6637 71.5613 36.6637 71.6892 36.7064V38.0281C71.6892 38.1987 71.7318 38.3479 71.7318 38.5184C71.7318 38.6463 71.7745 38.7743 71.8171 38.8809C71.5613 38.9022 71.412 38.9235 71.2415 38.9661Z" fill="#B5B5B5"/>
<path d="M79.8973 37.773L77.8081 31.4414H75.3564V31.6333L78.7674 40.6723L77.3177 44.1259V44.2964H79.6201L84.5447 31.6333V31.4414H82.1997L79.8973 37.773Z" fill="#B5B5B5"/>
<path d="M98.6788 31.995C98.2951 31.7179 97.8474 31.5047 97.3997 31.3981C96.8881 31.2915 96.3764 31.2275 95.8648 31.2275C95.3105 31.2275 94.7562 31.3128 94.2019 31.4407C93.7543 31.5473 93.3066 31.6965 92.8802 31.8884C92.5391 31.6752 92.1767 31.526 91.793 31.4407C91.3026 31.3128 90.8123 31.2489 90.3007 31.2275C89.8317 31.2275 89.3627 31.2702 88.8936 31.3554C88.4033 31.4407 87.9343 31.526 87.4866 31.6326C87.039 31.7605 86.6339 31.8671 86.3141 31.995L86.2715 32.1229C86.3141 32.3787 86.3568 32.6559 86.3568 32.933C86.3994 33.2741 86.3994 33.5939 86.3994 33.935V40.4158H88.7018V34.4466C88.7018 34.1268 88.7018 33.8284 88.6592 33.5086C88.6592 33.4447 88.6378 33.3807 88.6165 33.3167C88.7444 33.2741 88.8937 33.2315 89.0642 33.1888C89.384 33.1036 89.7251 33.0609 90.0662 33.0609C90.4286 33.0609 90.7697 33.1249 91.1108 33.2741C91.4305 33.402 91.6864 33.6365 91.8356 33.9563C92.0275 34.3827 92.134 34.8517 92.1127 35.3207V40.4371H94.4151V35.2354C94.4364 34.5958 94.3299 33.9563 94.0953 33.3381C94.2872 33.2741 94.5004 33.2102 94.6923 33.1675C94.9694 33.1036 95.2679 33.0822 95.545 33.0822C95.9287 33.0822 96.3125 33.1462 96.6749 33.2954C96.9946 33.4233 97.2505 33.6578 97.3997 33.9776C97.5916 34.404 97.6768 34.873 97.6342 35.342V40.4584H99.9366V35.2141C99.9579 34.5319 99.8513 33.8497 99.6168 33.2102C99.4036 32.7625 99.0839 32.3361 98.6788 31.995Z" fill="#B5B5B5"/>
<path d="M109.188 31.8882C108.442 31.4405 107.589 31.2274 106.736 31.2487C105.926 31.2274 105.116 31.4192 104.391 31.803C103.73 32.1867 103.197 32.741 102.856 33.4018C102.473 34.1693 102.281 35.022 102.302 35.8961C102.281 36.6209 102.409 37.3244 102.665 37.9853C102.878 38.5396 103.24 39.0512 103.709 39.4349C104.199 39.8187 104.754 40.1171 105.372 40.2877C106.097 40.5009 106.843 40.5861 107.589 40.5648C108.122 40.5648 108.634 40.5222 109.167 40.4369C109.55 40.373 109.934 40.2664 110.297 40.1171V38.2624H110.126C109.806 38.4117 109.486 38.5396 109.167 38.6248C108.698 38.7314 108.229 38.7741 107.76 38.7954C107.227 38.7954 106.672 38.7101 106.161 38.5396C105.734 38.3903 105.351 38.0919 105.073 37.7295C104.86 37.4097 104.732 37.026 104.711 36.6422H110.915V36.088C110.979 35.2352 110.851 34.3825 110.552 33.5937C110.296 32.8902 109.827 32.272 109.188 31.8882ZM108.612 35.1499H104.668C104.69 34.7875 104.775 34.4464 104.903 34.1053C105.052 33.7642 105.308 33.4658 105.628 33.2526C105.969 33.0821 106.331 32.9755 106.715 32.9755C107.355 32.9755 107.845 33.146 108.122 33.5084C108.442 33.8708 108.612 34.3612 108.612 35.0434V35.1499Z" fill="#B5B5B5"/>
<path d="M120.253 32.0376C119.827 31.7605 119.379 31.5473 118.889 31.4407C118.356 31.3128 117.823 31.2489 117.29 31.2275C116.821 31.2275 116.352 31.2702 115.883 31.3554C115.393 31.4407 114.924 31.526 114.476 31.6326C114.028 31.7392 113.623 31.8671 113.303 31.995L113.261 32.1229C113.303 32.3787 113.346 32.6559 113.346 32.933C113.389 33.2741 113.389 33.5939 113.389 33.935V40.4158H115.691V34.4466C115.691 34.1268 115.691 33.8284 115.648 33.5086C115.648 33.4447 115.627 33.3807 115.606 33.3167C115.734 33.2741 115.883 33.2315 116.053 33.1888C116.373 33.1036 116.714 33.0609 117.055 33.0609C117.46 33.0609 117.844 33.1249 118.228 33.2741C118.548 33.402 118.825 33.6578 118.995 33.9563C119.187 34.3827 119.294 34.8517 119.273 35.3207V40.4371H121.554V35.2354C121.575 34.5532 121.447 33.871 121.191 33.2315C121.021 32.7625 120.701 32.3361 120.253 32.0376Z" fill="#B5B5B5"/>
<path d="M129.228 38.6464C129.036 38.689 128.823 38.7103 128.631 38.7316C128.055 38.7316 127.65 38.6037 127.416 38.3692C127.117 38.0281 126.99 37.6018 127.011 37.1541V33.2954H129.462V31.4407H127.011V29.0957H124.708V31.4407H123.259V33.2954H124.708V37.3246C124.666 37.9642 124.815 38.6037 125.113 39.1793C125.391 39.6696 125.838 40.0321 126.371 40.2452C127.011 40.5011 127.693 40.629 128.397 40.6076C128.695 40.6076 128.993 40.5863 129.292 40.5224C129.526 40.4797 129.761 40.4158 129.974 40.3305V38.4758H129.804C129.633 38.5611 129.441 38.625 129.228 38.6464Z" fill="#B5B5B5"/>
<path d="M137.372 35.598C136.924 35.3848 136.455 35.2569 135.965 35.1929L135.197 35.065C134.813 35.0011 134.43 34.8945 134.067 34.7453C133.833 34.6387 133.683 34.4042 133.705 34.1483C133.683 33.8073 133.897 33.4875 134.238 33.3809C134.707 33.2103 135.197 33.1251 135.687 33.1464C136.092 33.1464 136.497 33.189 136.903 33.2317C137.308 33.3169 137.713 33.4448 138.118 33.5941H138.246V31.6967C137.862 31.5688 137.478 31.4835 137.073 31.4622C136.647 31.3983 136.22 31.377 135.794 31.377C134.792 31.377 133.939 31.5049 133.342 31.782C132.788 31.9739 132.319 32.3363 131.978 32.8266C131.701 33.253 131.53 33.7646 131.53 34.2763C131.53 35.0437 131.765 35.598 132.255 35.9604C132.852 36.3655 133.556 36.6426 134.28 36.7705L135.048 36.8984C135.453 36.9411 135.837 37.0477 136.22 37.2182C136.455 37.3248 136.604 37.5806 136.583 37.8578C136.583 38.0709 136.519 38.2628 136.37 38.412C136.242 38.5613 136.071 38.6679 135.879 38.6892L135.282 38.8171H134.685C134.131 38.8384 133.598 38.7531 133.065 38.6039C132.596 38.4973 132.149 38.3481 131.701 38.1562H131.573V40.1175C132.532 40.416 133.556 40.5652 134.557 40.5652C136.007 40.5652 137.052 40.3307 137.777 39.8404C138.501 39.35 138.864 38.6252 138.864 37.6659C138.885 37.1969 138.757 36.7279 138.501 36.3441C138.139 36.0457 137.777 35.7899 137.372 35.598Z" fill="#B5B5B5"/>
<path d="M67.617 26.0891C68.5336 26.5794 69.7062 26.8139 71.1132 26.8139C71.6035 26.8139 72.1151 26.7713 72.6055 26.686C72.9892 26.6221 73.3729 26.4941 73.7353 26.3236V24.2344H73.5861C73.245 24.4049 72.9039 24.5328 72.5415 24.6394C72.1151 24.7247 71.6888 24.7674 71.2624 24.7674C70.4949 24.7887 69.7275 24.6181 69.0453 24.277C68.4697 23.9786 67.9794 23.4882 67.6809 22.9127C67.3611 22.3157 67.2332 21.5483 67.2332 20.6529C67.2119 19.8854 67.3611 19.1393 67.6809 18.4358C67.9794 17.8389 68.4697 17.3485 69.0453 17.0288C69.7275 16.6877 70.4949 16.5171 71.2624 16.5384C71.6888 16.5384 72.1151 16.5811 72.5415 16.709C72.9039 16.7729 73.2663 16.9009 73.5861 17.0714H73.7567V15.0675C73.3942 14.8969 73.0105 14.7903 72.6268 14.7051C72.1365 14.6198 71.6248 14.5771 71.1345 14.5771C69.7701 14.5771 68.5976 14.8117 67.6383 15.3446C66.7429 15.8349 65.9968 16.5811 65.5064 17.4765C64.9948 18.4784 64.7603 19.587 64.7816 20.6955C64.7603 21.8467 64.9948 22.9766 65.5064 23.9999C65.9754 24.8739 66.7216 25.6201 67.617 26.0891Z" fill="#B5B5B5"/>
<path d="M76.8471 26.1536C77.5293 26.6013 78.5739 26.8358 79.9383 26.8358C80.3434 26.8358 80.791 26.7932 81.2174 26.7506C81.6651 26.7079 82.1128 26.6226 82.5392 26.516C82.9868 26.3881 83.3919 26.2815 83.7543 26.1536L83.7969 26.0257C83.733 25.7699 83.7117 25.4928 83.7117 25.2156C83.6904 24.8745 83.669 24.5334 83.669 24.2137V21.2504C83.6904 20.5895 83.5838 19.9287 83.3493 19.3104C83.1787 18.8414 82.8589 18.4364 82.4752 18.1379C82.0702 17.8395 81.6011 17.6476 81.1108 17.5836C80.5565 17.477 79.9809 17.4131 79.4267 17.4131C78.9363 17.4131 78.4247 17.4557 77.9344 17.541C77.4867 17.605 77.039 17.7115 76.6126 17.8608V19.7155H76.7832C77.1243 19.5662 77.4654 19.4597 77.8278 19.3957C78.2755 19.3104 78.7018 19.2465 79.1495 19.2252C79.5759 19.2038 80.0236 19.2678 80.4286 19.3957C80.7484 19.481 81.0256 19.6728 81.1961 19.95C81.388 20.355 81.4946 20.7814 81.4732 21.2291V21.3996L80.9829 21.2717C80.5779 21.1864 80.1515 21.1438 79.7251 21.1438C79.0216 21.1438 78.3394 21.2504 77.6786 21.4636C77.1456 21.6341 76.6766 21.9539 76.3142 22.3803C75.9731 22.8493 75.8239 23.4249 75.8452 24.0005C75.8025 25.0024 76.1649 25.7273 76.8471 26.1536ZM78.446 22.9346C78.8084 22.7427 79.3201 22.6574 80.0449 22.6574C80.386 22.6574 80.7271 22.7001 81.0469 22.7427C81.1748 22.7853 81.2814 22.7853 81.4093 22.828V24.1497C81.4093 24.3203 81.4519 24.4695 81.4519 24.64C81.4519 24.7679 81.4946 24.8959 81.5372 25.0024C81.3666 25.0451 81.2174 25.1304 81.0469 25.173C80.6845 25.2369 80.322 25.2583 79.9596 25.2583C79.3201 25.2583 78.8298 25.173 78.51 24.9811C78.1689 24.7679 77.977 24.4055 77.977 24.0218C77.977 23.4675 78.1262 23.1477 78.446 22.9346Z" fill="#B5B5B5"/>
<path d="M90.4489 24.8319L89.852 24.9598H89.2551C88.7221 24.9598 88.1678 24.8959 87.6349 24.7679C87.1659 24.6613 86.7182 24.5121 86.2705 24.3203H86.1426V26.2602C86.6116 26.4095 87.0806 26.5161 87.5496 26.58C88.0612 26.6653 88.5942 26.7079 89.1272 26.7079C90.5768 26.7079 91.6214 26.4734 92.3462 25.9831C93.0711 25.4928 93.4335 24.7679 93.4335 23.8086C93.4548 23.3396 93.3269 22.8706 93.0711 22.4869C92.8152 22.1245 92.4742 21.826 92.0691 21.6341C91.6214 21.4209 91.1524 21.293 90.6621 21.2291L89.8946 21.1012C89.5109 21.0372 89.1272 20.9306 88.7647 20.7814C88.5302 20.6748 88.381 20.4403 88.4023 20.1845C88.381 19.8434 88.5942 19.5236 88.9353 19.417C89.4043 19.2465 89.8946 19.1612 90.3849 19.1825C90.79 19.1825 91.195 19.2252 91.6001 19.2678C92.0051 19.3531 92.4102 19.481 92.8152 19.6302H92.9432V17.7329C92.5594 17.605 92.1757 17.5197 91.7706 17.4984C91.3443 17.4344 90.9179 17.4131 90.4915 17.4131C89.4896 17.4131 88.6368 17.541 88.0399 17.8181C87.4856 18.01 87.0166 18.3724 86.6755 18.8627C86.3984 19.2891 86.2279 19.8008 86.2279 20.3124C86.2279 21.0799 86.4624 21.6341 86.9527 21.9965C87.5496 22.4229 88.2531 22.6787 88.9566 22.8066L89.7241 22.9346C90.1291 22.9772 90.5129 23.0838 90.8966 23.2543C91.1311 23.3609 91.2803 23.6167 91.259 23.8939C91.259 24.1071 91.195 24.2989 91.0671 24.4482C90.8966 24.6187 90.6834 24.7679 90.4489 24.8319Z" fill="#B5B5B5"/>
<path d="M103.86 26.6443V21.4426C103.881 20.803 103.796 20.1635 103.582 19.5452C103.412 19.0762 103.135 18.6499 102.772 18.2875C102.431 17.9677 102.026 17.7332 101.557 17.6053C101.067 17.456 100.577 17.3921 100.065 17.4134C99.5959 17.3921 99.1056 17.456 98.6579 17.5839C98.4447 17.6266 98.2529 17.6905 98.061 17.7758V14.0664H95.652L95.6094 14.1943C95.6733 14.4501 95.6947 14.7273 95.6947 15.0044C95.7373 15.3455 95.7373 15.6866 95.7373 16.0064V26.6016H98.0397V19.5452H98.0823C98.2742 19.5026 98.53 19.4173 98.7645 19.3747C98.999 19.3321 99.2548 19.3107 99.4893 19.2894C99.8517 19.2894 100.235 19.3534 100.577 19.4813C100.896 19.6092 101.152 19.8437 101.301 20.1635C101.493 20.5898 101.6 21.0588 101.579 21.5279V26.6016L103.86 26.6443Z" fill="#B5B5B5"/>
<path d="M110.916 14.0023C110.213 13.981 109.509 14.1089 108.87 14.4073C108.337 14.6631 107.889 15.0895 107.591 15.6225C107.271 16.2407 107.122 16.9442 107.143 17.6264H105.693V19.4811H107.143V26.6441H109.445V19.4598H111.748V17.6264H109.445C109.445 16.9869 109.573 16.5392 109.808 16.262C110.042 15.9423 110.49 15.8143 111.066 15.8143C111.279 15.8143 111.471 15.8357 111.663 15.8996C111.833 15.9423 111.982 15.9849 112.11 16.0275H112.281V14.2155C112.089 14.1302 111.876 14.0875 111.684 14.0449C111.407 14.0023 111.151 14.0023 110.916 14.0023Z" fill="#B5B5B5"/>
<path d="M113.451 20.0357V26.6445H115.754V20.6327C115.754 20.2489 115.732 19.8865 115.668 19.5028C115.796 19.4602 115.903 19.4602 116.073 19.4175C116.415 19.3749 116.777 19.3322 117.118 19.3322C117.31 19.3322 117.523 19.3322 117.715 19.3749C117.907 19.3749 118.099 19.3962 118.269 19.4602H118.44V17.5628C118.205 17.5202 117.992 17.5202 117.758 17.4775H117.118C116.67 17.4775 116.201 17.5202 115.754 17.5628C115.327 17.6054 114.88 17.6694 114.475 17.7547C114.07 17.84 113.707 17.9465 113.387 18.0318L113.345 18.1597C113.409 18.4155 113.43 18.6927 113.43 18.9698C113.409 19.3536 113.451 19.6733 113.451 20.0357Z" fill="#B5B5B5"/>
<path d="M126.626 26.6869C127.01 26.623 127.394 26.5164 127.756 26.3671V24.5124H127.586C127.266 24.6617 126.946 24.7896 126.626 24.8748C126.157 24.9814 125.688 25.0241 125.219 25.0454C124.665 25.0454 124.132 24.9814 123.599 24.8109C123.173 24.6403 122.789 24.3632 122.512 24.0008C122.299 23.681 122.171 23.2973 122.15 22.9136H128.353V22.3593C128.417 21.5065 128.289 20.6538 127.991 19.865C127.735 19.1615 127.245 18.5433 126.626 18.1382C125.88 17.6905 125.028 17.4774 124.175 17.4987C123.365 17.4774 122.555 17.6692 121.83 18.053C121.169 18.4367 120.636 18.991 120.295 19.6732C119.911 20.4406 119.719 21.2934 119.741 22.1674C119.719 22.8922 119.847 23.5957 120.103 24.2566C120.316 24.8322 120.679 25.3225 121.148 25.7063C121.638 26.09 122.192 26.3885 122.81 26.559C123.535 26.7509 124.281 26.8361 125.028 26.8148C125.539 26.8148 126.093 26.7722 126.626 26.6869ZM123.152 19.396C123.493 19.2255 123.855 19.1189 124.239 19.1189C124.878 19.1189 125.369 19.2894 125.646 19.6518C125.966 20.0142 126.136 20.5046 126.136 21.1868V21.272H122.192C122.214 20.9096 122.299 20.5685 122.427 20.2274C122.576 19.865 122.832 19.5666 123.152 19.396Z" fill="#B5B5B5"/>
<path d="M138.543 19.7586C138.287 19.0551 137.818 18.4368 137.178 18.0318C136.432 17.5841 135.579 17.3709 134.727 17.3922C133.917 17.3709 133.107 17.5628 132.382 17.9465C131.742 18.3302 131.209 18.8845 130.868 19.5454C130.484 20.3129 130.292 21.1656 130.314 22.0396C130.292 22.7645 130.42 23.468 130.676 24.1288C130.889 24.6831 131.252 25.1948 131.721 25.5785C132.211 25.9622 132.765 26.2607 133.362 26.4312C134.087 26.6444 134.833 26.7297 135.579 26.7084C136.112 26.7084 136.624 26.6657 137.157 26.5805C137.541 26.5165 137.924 26.4099 138.287 26.2607V24.406H138.116C137.797 24.5552 137.477 24.6831 137.157 24.7684C136.688 24.875 136.219 24.9176 135.75 24.9389C135.196 24.9389 134.663 24.875 134.13 24.7044C133.703 24.5552 133.32 24.2568 133.043 23.8943C132.829 23.5746 132.701 23.1908 132.68 22.8071H138.884V22.2528C138.948 21.4214 138.841 20.5687 138.543 19.7586ZM136.645 21.2935H132.701C132.723 20.9311 132.808 20.59 132.936 20.2489C133.085 19.9078 133.341 19.6093 133.661 19.3962C134.002 19.2256 134.364 19.119 134.748 19.119C135.388 19.119 135.878 19.2896 136.155 19.652C136.475 20.0144 136.645 20.5047 136.645 21.1869V21.2935Z" fill="#B5B5B5"/>
<path d="M45.1908 14.1725C42.8031 14.1725 40.8631 16.0912 40.8418 18.4788H56.9159C59.3249 18.4788 61.2648 16.5389 61.2648 14.1299H45.1908V14.1725Z" fill="#B5B5B5"/>
<path d="M40.8418 18.4788C40.8418 16.0699 42.7818 14.1299 45.1908 14.1299V30.204C45.1908 32.613 43.2508 34.5529 40.8418 34.5529V18.4788Z" fill="#B5B5B5"/>
<path d="M46.5537 19.9287V24.2777H51.5849C53.9938 24.2777 55.9338 22.3377 55.9338 19.9287H46.5537Z" fill="#B5B5B5"/>
<path d="M35 24.2777C35 21.8687 36.94 19.9287 39.349 19.9287V36.0028C39.349 38.4118 37.409 40.3518 35 40.3518V24.2777Z" fill="#B5B5B5"/>
</svg>
