<svg width="18" height="21" viewBox="0 0 18 21" fill="none" xmlns="http://www.w3.org/2000/svg">
<path d="M16.5 11.25H13.5V8.25H15C15.3978 8.25 15.7794 8.09196 16.0607 7.81066C16.342 7.52936 16.5 7.14782 16.5 6.75V2.25C16.5 1.85218 16.342 1.47064 16.0607 1.18934C15.7794 0.908035 15.3978 0.75 15 0.75H3C2.60218 0.75 2.22064 0.908035 1.93934 1.18934C1.65804 1.47064 1.5 1.85218 1.5 2.25V6.75C1.5 7.14782 1.65804 7.52936 1.93934 7.81066C2.22064 8.09196 2.60218 8.25 3 8.25H4.5V11.25H1.5C1.10218 11.25 0.720644 11.408 0.43934 11.6893C0.158035 11.9706 0 12.3522 0 12.75V14.25C0 14.6478 0.158035 15.0294 0.43934 15.3107C0.720644 15.592 1.10218 15.75 1.5 15.75H2.25V19.5C2.25 19.6989 2.32902 19.8897 2.46967 20.0303C2.61032 20.171 2.80109 20.25 3 20.25C3.19891 20.25 3.38968 20.171 3.53033 20.0303C3.67098 19.8897 3.75 19.6989 3.75 19.5V15.75H14.25V19.5C14.25 19.6989 14.329 19.8897 14.4697 20.0303C14.6103 20.171 14.8011 20.25 15 20.25C15.1989 20.25 15.3897 20.171 15.5303 20.0303C15.671 19.8897 15.75 19.6989 15.75 19.5V15.75H16.5C16.8978 15.75 17.2794 15.592 17.5607 15.3107C17.842 15.0294 18 14.6478 18 14.25V12.75C18 12.3522 17.842 11.9706 17.5607 11.6893C17.2794 11.408 16.8978 11.25 16.5 11.25ZM12 11.25H6V8.25H12V11.25Z" fill="black"/>
</svg>
