<svg width="173" height="58" viewBox="0 0 173 58" fill="none" xmlns="http://www.w3.org/2000/svg">
<path d="M27.8548 43.7097C36.0589 43.7097 42.7097 37.0589 42.7097 28.8548C42.7097 20.6507 36.0589 14 27.8548 14C19.6507 14 13 20.6507 13 28.8548C13 37.0589 19.6507 43.7097 27.8548 43.7097Z" fill="#B5B5B5"/>
<path fill-rule="evenodd" clip-rule="evenodd" d="M28.7392 43.6865C28.1193 43.6865 27.4993 43.6865 26.8794 43.6865C26.8555 43.6388 26.784 43.6626 26.7601 43.6388C26.164 43.5911 25.5918 43.5195 25.0195 43.4003C22.4682 42.8996 20.2269 41.7789 18.2717 40.0622C17.2464 39.1799 16.388 38.1785 15.6488 37.034C15.9826 37.034 16.3403 37.034 16.6741 37.0101C17.8663 37.0101 19.0585 37.0101 20.2507 37.0101C20.3938 37.0101 20.3699 36.9147 20.3699 36.8432C20.3699 36.0802 20.3699 35.2933 20.3699 34.5303C20.3699 34.3634 20.3223 34.3157 20.1553 34.3157C18.677 34.3157 17.1748 34.3157 15.6965 34.3157C15.5296 34.3157 15.4819 34.2681 15.5058 34.125C15.5058 30.5961 15.5058 27.0433 15.5058 23.5144C15.5058 23.3475 15.5534 23.2998 15.7204 23.2998C16.9126 23.2998 18.1048 23.2998 19.3208 23.2998C19.4639 23.2998 19.5116 23.276 19.5116 23.1329C19.6069 22.0599 20.0838 21.2254 21.0137 20.6531C22.9213 19.5086 25.4726 20.677 25.6872 23.109C25.711 23.276 25.7348 23.2998 25.9018 23.2998C27.3801 23.2998 28.8584 23.2998 30.3606 23.2998C30.5275 23.2998 30.5513 23.3475 30.5513 23.4905C30.5513 27.0195 30.5513 30.5722 30.5513 34.1011C30.5513 34.2681 30.5037 34.3157 30.3368 34.3157C28.8584 34.3157 27.3801 34.3157 25.8779 34.3157C25.711 34.3157 25.6872 34.3634 25.6872 34.5303C25.6872 35.2933 25.6872 36.0564 25.6872 36.8194C25.6872 36.9863 25.7348 37.0101 25.8779 37.0101C27.6662 37.0101 29.4545 37.0101 31.2428 37.0101C31.3144 37.0101 31.3859 37.0101 31.4336 37.0101C31.4336 37.1055 31.4336 37.177 31.4336 37.2724C31.4336 38.0593 31.4336 38.8461 31.4336 39.633C31.4574 39.8714 31.4574 40.1098 31.4336 40.3483C31.4336 40.4437 31.4336 40.539 31.4336 40.6583C31.4336 41.2305 31.4336 41.8028 31.4336 42.375C31.4336 42.6612 31.4336 42.9711 31.4336 43.2573C30.8852 43.4242 30.3129 43.4957 29.7406 43.5911C29.383 43.6149 29.0492 43.5911 28.7392 43.6865ZM22.7067 30.8584C21.5383 30.8584 20.3699 30.8584 19.2016 30.8584C18.8916 30.8584 18.677 31.073 18.6532 31.3591C18.6293 31.6691 18.8201 31.9075 19.1301 31.9552C19.2016 31.979 19.2731 31.979 19.3446 32.0267C19.7262 32.1698 20.1077 32.3128 20.513 32.4321C21.7291 32.7897 22.9689 32.9089 24.2327 32.6467C24.9957 32.4798 25.711 32.1936 26.4263 31.9313C26.6648 31.8598 26.8078 31.5737 26.7363 31.3114C26.6886 31.0491 26.474 30.8822 26.1879 30.8822C25.0434 30.8584 23.875 30.8584 22.7067 30.8584ZM22.5397 23.3236C23.3504 23.3236 24.1611 23.3236 24.9718 23.3236C25.2103 23.3236 25.2103 23.3236 25.1864 23.0852C25.1864 23.0614 25.1864 23.0375 25.1864 23.0375C25.0195 21.7022 23.9704 20.7485 22.6113 20.677C21.2283 20.6293 19.9884 21.7499 19.8931 23.109C19.8931 23.276 19.9169 23.3475 20.1077 23.3475C20.9184 23.3236 21.7291 23.3236 22.5397 23.3236ZM26.3071 29.0939C27.0463 29.0939 27.6424 28.4978 27.6424 27.7586C27.6424 26.9956 27.0463 26.3995 26.3071 26.3995C25.5679 26.3995 24.9718 26.9956 24.9718 27.7348C24.948 28.4978 25.5441 29.0939 26.3071 29.0939ZM20.9899 27.7825C20.9899 27.0433 20.3938 26.4472 19.6546 26.4234C18.9155 26.4234 18.3194 27.0195 18.3194 27.7586C18.3194 28.4978 18.9155 29.0939 19.6546 29.0939C20.3938 29.1177 20.9899 28.5216 20.9899 27.7825Z" fill="#666666"/>
<path fill-rule="evenodd" clip-rule="evenodd" d="M22.7059 30.8578C23.8742 30.8578 25.0188 30.8578 26.1871 30.8578C26.4732 30.8578 26.6878 31.0247 26.7355 31.287C26.7832 31.5255 26.664 31.8116 26.4256 31.907C25.6864 32.1454 24.9949 32.4554 24.2319 32.6223C22.9682 32.8846 21.7283 32.7654 20.5122 32.4077C20.1069 32.2885 19.7254 32.1693 19.3439 32.0023C19.2723 31.9785 19.2008 31.9547 19.1293 31.9308C18.8193 31.8831 18.6286 31.6208 18.6524 31.3347C18.6762 31.0486 18.9147 30.834 19.2008 30.834C20.3692 30.8578 21.5375 30.8578 22.7059 30.8578Z" fill="#FEFEFE" fill-opacity="0.21"/>
<path fill-rule="evenodd" clip-rule="evenodd" d="M22.5393 23.3234C21.7286 23.3234 20.9179 23.3234 20.1072 23.3234C19.9164 23.3234 19.8926 23.2757 19.8926 23.0849C19.9641 21.7258 21.2278 20.6051 22.6108 20.6528C23.9699 20.7005 25.019 21.6543 25.186 23.0134C25.186 23.0372 25.186 23.0611 25.186 23.0611C25.2098 23.2995 25.2098 23.2995 24.9714 23.2995C24.1607 23.3234 23.35 23.3234 22.5393 23.3234Z" fill="#B5B5B5"/>
<path fill-rule="evenodd" clip-rule="evenodd" d="M31.3867 37.0348C31.6013 36.8202 31.7921 36.5818 32.0067 36.3672C32.0544 36.4149 32.1259 36.4626 32.1736 36.4864C32.9127 36.9871 33.6281 37.5117 34.3672 38.0124C33.6757 38.8708 32.8889 39.6338 31.9828 40.2538C31.7921 40.0392 31.6013 39.8484 31.4106 39.6338C31.4106 38.847 31.4106 38.0601 31.4106 37.2733C31.3867 37.2017 31.3867 37.1064 31.3867 37.0348Z" fill="#666666"/>
<path fill-rule="evenodd" clip-rule="evenodd" d="M26.3076 29.0944C25.5684 29.0944 24.9485 28.4983 24.9723 27.7591C24.9723 26.9961 25.5684 26.4238 26.3076 26.4238C27.0706 26.4238 27.6667 27.0199 27.6429 27.7829C27.6429 28.4983 27.0468 29.0944 26.3076 29.0944Z" fill="#FEFEFE" fill-opacity="0.21"/>
<path fill-rule="evenodd" clip-rule="evenodd" d="M20.9899 27.7832C20.9899 28.5224 20.3938 29.1185 19.6546 29.1185C18.9154 29.1185 18.3193 28.5224 18.3193 27.7832C18.3193 27.044 18.9154 26.4479 19.6546 26.4479C20.3938 26.4241 20.9899 27.044 20.9899 27.7832Z" fill="#FEFEFE" fill-opacity="0.21"/>
<path fill-rule="evenodd" clip-rule="evenodd" d="M31.3867 39.6328C31.5775 39.8474 31.7682 40.0382 31.959 40.2528C31.8159 40.3481 31.6728 40.4435 31.5536 40.5389C31.5298 40.4435 31.4583 40.3958 31.3867 40.3481C31.4106 40.1097 31.4106 39.8713 31.3867 39.6328Z" fill="#484848"/>
<path fill-rule="evenodd" clip-rule="evenodd" d="M31.3867 40.3477C31.4584 40.3954 31.53 40.4671 31.5539 40.5387C31.5061 40.5626 31.4345 40.6104 31.3867 40.6343C31.3867 40.5387 31.3867 40.4432 31.3867 40.3477Z" fill="#0194C1"/>
<path fill-rule="evenodd" clip-rule="evenodd" d="M35.4634 27.9017C35.3204 27.8063 35.1535 27.6871 35.0104 27.5917C34.1758 26.9479 33.7228 26.0896 33.4367 25.0881C33.2936 24.5635 33.2221 24.039 33.1982 23.4906C33.1982 23.3236 33.2459 23.2998 33.389 23.2998C33.8659 23.2998 34.3428 23.2998 34.8196 23.2998C34.9389 23.2998 34.9627 23.3236 34.9627 23.4429C34.9627 24.1343 35.0819 24.802 35.3919 25.4219C35.535 25.708 35.7257 25.9465 35.9642 26.1372C36.5126 26.5664 37.2517 26.4949 37.7048 25.9465C38.1101 25.4696 38.277 24.8735 38.3962 24.2774C38.4439 23.9913 38.4678 23.729 38.4916 23.4429C38.4916 23.3475 38.5393 23.2998 38.6347 23.2998C39.1354 23.2998 39.6361 23.2998 40.1369 23.2998C40.2084 23.2998 40.2799 23.276 40.2799 23.3952C40.1845 24.9212 39.7554 26.328 38.587 27.401C38.4439 27.5202 38.3009 27.6394 38.134 27.7348C38.0863 27.7586 38.0147 27.7825 38.0147 27.854C37.9432 27.854 37.8717 27.8779 37.8001 27.9017C37.2517 28.1401 36.6795 28.1878 36.1072 28.0448C35.8449 28.0686 35.6542 27.9732 35.4634 27.9017Z" fill="#484848"/>
<path fill-rule="evenodd" clip-rule="evenodd" d="M32.291 35.9845C32.8394 35.2692 33.2925 34.53 33.7217 33.7432C34.0555 33.9101 34.4131 34.0531 34.747 34.22C35.2715 34.4585 35.7961 34.7208 36.3207 34.9354C36.2253 35.2453 36.0584 35.5076 35.8915 35.7699C35.5338 36.4137 35.1285 37.0575 34.6516 37.6297C33.8886 37.0813 33.0779 36.5329 32.291 35.9845Z" fill="#666666"/>
<path fill-rule="evenodd" clip-rule="evenodd" d="M37.563 31.5024C37.42 32.1939 37.2054 32.8615 36.9669 33.5292C36.8477 33.863 36.7285 34.173 36.5616 34.4829C36.0847 34.2683 35.6078 34.0299 35.1548 33.8153C34.7733 33.6484 34.3918 33.4338 33.9864 33.2907C33.9626 33.243 33.9864 33.2192 34.0103 33.1954C34.3679 32.4323 34.6779 31.6455 34.9164 30.8348C34.9164 30.811 34.9402 30.811 34.9402 30.7871C35.7986 31.0255 36.6808 31.264 37.563 31.5024Z" fill="#666666"/>
<path fill-rule="evenodd" clip-rule="evenodd" d="M35.463 27.9023C35.6776 27.95 35.8445 28.0454 36.0591 28.1169C36.6552 28.26 37.2036 28.2123 37.752 27.9739C37.8235 27.95 37.8951 27.9262 37.9666 27.9262C37.9904 28.3554 37.9666 28.8084 37.9427 29.2376C37.8951 29.8576 37.8235 30.4775 37.6805 31.0736C36.7982 30.8352 35.9398 30.5967 35.0576 30.3344C35.2484 29.5237 35.3914 28.7369 35.463 27.9023Z" fill="#666666"/>
<path fill-rule="evenodd" clip-rule="evenodd" d="M32.292 35.9844C33.0788 36.5328 33.8895 37.0812 34.6764 37.6296C34.581 37.7488 34.4618 37.8919 34.3664 38.0111C33.6273 37.5104 32.9119 36.9858 32.1728 36.4851C32.1251 36.4374 32.0535 36.3897 32.0059 36.3659C32.1012 36.2228 32.1966 36.1036 32.292 35.9844Z" fill="#484848"/>
<path fill-rule="evenodd" clip-rule="evenodd" d="M33.9845 33.29C34.3899 33.4331 34.7475 33.6239 35.1529 33.8146C35.6298 34.0292 36.1067 34.2676 36.5597 34.4822C36.4882 34.6253 36.4166 34.7922 36.3451 34.9353C35.7967 34.7207 35.296 34.4584 34.7714 34.22C34.4376 34.0769 34.0799 33.91 33.7461 33.7431C33.8176 33.6 33.8892 33.4569 33.9845 33.29Z" fill="#484848"/>
<path fill-rule="evenodd" clip-rule="evenodd" d="M35.0583 30.334C35.9405 30.5724 36.7989 30.8109 37.6811 31.0731C37.6573 31.2162 37.6096 31.3831 37.5857 31.5262C36.7035 31.2877 35.8213 31.0493 34.9629 30.787C34.9629 30.6201 35.0106 30.477 35.0583 30.334Z" fill="#484848"/>
<path d="M60.4484 28.6645C60.0907 26.4231 58.8508 25.064 56.4664 25.064C52.9614 25.064 51.8407 28.4022 51.8407 31.3827C51.8407 34.2678 52.556 37.8444 56.4426 37.8444C58.3263 37.8444 59.9715 36.4376 60.4484 33.8625H63.1666C62.8805 36.533 61.2352 40.2765 56.3234 40.2765C51.6023 40.2765 48.8125 36.7237 48.8125 31.8596C48.8125 26.6616 51.3161 22.5127 56.8718 22.5127C61.2829 22.5127 62.952 25.7316 63.1666 28.6406H60.4484V28.6645Z" fill="#B5B5B5"/>
<path d="M68.8902 39.7994H66.0527V16.7422H68.8902V39.7994Z" fill="#B5B5B5"/>
<path d="M86.5573 34.5301C86.4619 35.3408 85.6989 37.7014 83.5768 39.132C82.8138 39.6566 81.717 40.2765 79.0226 40.2765C74.3015 40.2765 71.5117 36.7237 71.5117 31.8596C71.5117 26.6616 74.0153 22.5127 79.571 22.5127C84.4113 22.5127 86.7958 26.3754 86.7958 32.3126H74.5399C74.5399 35.8177 76.1851 37.8444 79.4279 37.8444C82.0985 37.8444 83.6722 35.7938 83.7676 34.5301H86.5573ZM83.8629 30.0713C83.696 27.4723 82.5992 25.064 79.1657 25.064C76.5667 25.064 74.5161 27.4723 74.5161 30.0713H83.8629Z" fill="#B5B5B5"/>
<path d="M89.6338 28.1156C89.753 24.1098 92.4235 22.5361 96.5724 22.5361C97.9315 22.5361 102.796 22.9176 102.796 27.2334V36.8902C102.796 37.6056 103.153 37.8917 103.726 37.8917C103.988 37.8917 104.346 37.8202 104.656 37.7725V39.8231C104.179 39.9423 103.749 40.133 103.106 40.133C100.602 40.133 100.221 38.8455 100.125 37.5579C99.0283 38.7501 97.3354 40.2761 94.0449 40.2761C90.969 40.2761 88.7754 38.3209 88.7754 35.4358C88.7754 34.029 89.1807 30.7385 93.878 30.1662L98.5276 29.594C99.1952 29.5224 100.006 29.284 100.006 27.5911C100.006 25.8266 98.7184 24.8728 96.0478 24.8728C92.8289 24.8728 92.3758 26.8281 92.1851 28.1156H89.6338ZM99.9821 31.2392C99.5291 31.5969 98.8376 31.8592 95.3325 32.2883C93.9495 32.4791 91.7321 32.9083 91.7321 35.0066C91.7321 36.8426 92.662 37.9394 94.7841 37.9394C97.4069 37.9394 99.9821 36.2465 99.9821 33.9813V31.2392Z" fill="#B5B5B5"/>
<path d="M109.543 39.7992H106.706V23.013H109.4V25.8028H109.472C110.593 23.8476 112.071 22.5361 114.193 22.5361C114.551 22.5361 114.718 22.56 114.932 22.6315V25.5643H113.883C111.26 25.5643 109.591 27.6149 109.591 30.0709V39.7992H109.543Z" fill="#B5B5B5"/>
<path d="M123.468 39.7994H118.652V20.8195H111.689V16.7422H130.431V20.8195H123.468V39.7994Z" fill="#B5B5B5"/>
<path d="M141.614 36.461C141.614 38.4878 142.067 38.9408 142.615 39.1316V39.7992H137.775C137.513 38.9885 137.465 38.7501 137.369 37.7725C136.344 38.8216 134.89 40.2523 131.838 40.2523C129.262 40.2523 126.64 38.7978 126.64 35.2688C126.64 31.9307 128.762 30.2378 131.623 29.8086L135.677 29.1886C136.392 29.0932 137.25 28.8071 137.25 27.8295C137.25 25.9458 135.462 25.8266 134.294 25.8266C132.052 25.8266 131.671 27.2096 131.528 28.211H127.188C127.713 22.9653 131.337 22.25 134.842 22.25C137.25 22.25 141.661 22.9892 141.661 27.1857V36.461H141.614ZM137.203 31.4776C136.75 31.8353 136.01 32.1214 134.151 32.4076C132.481 32.6937 131.098 33.1229 131.098 34.9827C131.098 36.5564 132.315 37.0333 133.197 37.0333C135.2 37.0333 137.203 35.7457 137.203 33.6713V31.4776Z" fill="#B5B5B5"/>
<path d="M160.069 39.7989H154.514L151.557 34.6724L148.601 39.7989H143.164L148.982 31.0958L143.403 22.7266H148.863L151.748 27.71L154.585 22.7266H159.879L154.252 31.0958L160.069 39.7989Z" fill="#B5B5B5"/>
</svg>
