<svg width="13" height="13" viewBox="0 0 13 13" fill="none" xmlns="http://www.w3.org/2000/svg">
<path d="M3.89561 7.61662C3.65958 7.61662 3.48255 7.43958 3.48255 7.20352C3.48255 6.9734 3.65958 6.79636 3.89561 6.79636H6.56868V3.22637C6.56868 2.99624 6.74573 2.81922 6.97584 2.81922C7.20596 2.81922 7.3889 2.99624 7.3889 3.22637V7.20352C7.3889 7.43958 7.20596 7.61662 6.97584 7.61662H3.89561ZM6.98174 12.9981C10.2744 12.9981 13.0006 10.2661 13.0006 6.97929C13.0006 3.68664 10.2685 0.960449 6.97584 0.960449C3.68908 0.960449 0.962891 3.68664 0.962891 6.97929C0.962891 10.2661 3.69498 12.9981 6.98174 12.9981Z" fill="#8C8C8C"/>
</svg>
