<svg width="25" height="25" viewBox="0 0 25 25" fill="none" xmlns="http://www.w3.org/2000/svg">
<path d="M6.79122 14.2342C6.31915 14.2342 5.9651 13.8801 5.9651 13.408C5.9651 12.9478 6.31915 12.5937 6.79122 12.5937H12.1374V5.45372C12.1374 4.99346 12.4915 4.63941 12.9517 4.63941C13.4119 4.63941 13.7778 4.99346 13.7778 5.45372V13.408C13.7778 13.8801 13.4119 14.2342 12.9517 14.2342H6.79122ZM12.9635 24.9973C19.5488 24.9973 25.0012 19.5332 25.0012 12.9596C25.0012 6.37425 19.5371 0.921875 12.9517 0.921875C6.37815 0.921875 0.925781 6.37425 0.925781 12.9596C0.925781 19.5332 6.38996 24.9973 12.9635 24.9973Z" fill="black"/>
</svg>
