<svg width="48" height="48" viewBox="0 0 48 48" fill="none" xmlns="http://www.w3.org/2000/svg">
<rect width="48" height="48" rx="24" fill="#E8E8E8"/>
<mask id="mask0_427_930" style="mask-type:alpha" maskUnits="userSpaceOnUse" x="7" y="7" width="34" height="34">
<rect x="7" y="7" width="34" height="34" fill="#D9D9D9"/>
</mask>
<g mask="url(#mask0_427_930)">
<path d="M24 25.4877L18.3687 31.1189C18.1562 31.3314 17.9083 31.4377 17.625 31.4377C17.3417 31.4377 17.0938 31.3314 16.8812 31.1189C16.6688 30.9064 16.5625 30.6585 16.5625 30.3752C16.5625 30.0918 16.6688 29.8439 16.8812 29.6314L22.5125 24.0002L16.8812 18.4043C16.6688 18.1918 16.5625 17.9439 16.5625 17.6606C16.5625 17.3773 16.6688 17.1293 16.8812 16.9168C17.0938 16.7043 17.3417 16.5981 17.625 16.5981C17.9083 16.5981 18.1562 16.7043 18.3687 16.9168L24 22.5481L29.5958 16.9168C29.7847 16.7043 30.0267 16.5981 30.3219 16.5981C30.617 16.5981 30.8708 16.7043 31.0833 16.9168C31.2958 17.1293 31.4021 17.3773 31.4021 17.6606C31.4021 17.9439 31.2958 18.1918 31.0833 18.4043L25.4521 24.0002L31.0833 29.6314C31.2958 29.8439 31.4021 30.0918 31.4021 30.3752C31.4021 30.6585 31.2958 30.9064 31.0833 31.1189C30.8708 31.3314 30.6229 31.4377 30.3396 31.4377C30.0563 31.4377 29.8083 31.3314 29.5958 31.1189L24 25.4877Z" fill="black"/>
</g>
</svg>
