<svg width="171" height="13" viewBox="0 0 171 13" fill="none" xmlns="http://www.w3.org/2000/svg">
<path d="M169.616 0.478734C170.535 0.912379 169.895 1.42048 167.697 2.00303C165.496 2.55774 162.077 3.12084 157.44 3.69234C152.804 4.26383 147.293 4.7916 140.906 5.27563C138.827 5.36562 136.837 5.47391 134.937 5.60049C132.864 5.74619 131.226 5.88589 130.022 6.01962C128.297 6.15495 125.791 6.32055 122.505 6.51642C119.048 6.73138 115.503 6.94198 111.87 7.1482C108.238 7.35442 105.037 7.52681 102.267 7.66536C99.3223 7.79517 97.503 7.87043 96.809 7.89114C96.7966 7.77974 96.184 7.74912 94.9711 7.7993C93.7582 7.84947 92.5499 7.94142 91.3463 8.07514C89.9707 8.22797 88.4186 8.35813 86.6898 8.46561C84.958 8.54525 83.742 8.56757 83.0418 8.53258C82.1821 8.6281 81.2333 8.70532 80.1955 8.76424C78.9826 8.81441 78.0322 8.8777 77.3444 8.95412C76.6566 9.03053 75.9658 9.0791 75.2718 9.09981C74.5747 9.09267 73.8823 9.12731 73.1945 9.20372C70.9376 9.25712 67.3848 9.39808 62.5363 9.62663C57.5127 9.84642 51.9718 10.1096 45.9135 10.4162C39.852 10.6949 33.8797 10.9919 27.9964 11.3072C22.1131 11.6225 17.1832 11.9024 13.2068 12.1468C9.05537 12.3825 6.54978 12.5481 5.69006 12.6436C4.31449 12.7965 3.27662 12.8554 2.57646 12.8204C1.8763 12.7854 1.51384 12.6565 1.48908 12.4337C0.96397 12.4075 0.609247 12.3482 0.424916 12.2559C0.237501 12.1357 0.137605 12.02 0.125228 11.9086C0.125228 11.9086 0.462932 11.8147 1.13834 11.6268C1.81375 11.439 2.82686 11.1573 4.17767 10.7817C5.35654 10.4251 6.71818 10.147 8.2626 9.94719C9.80392 9.71955 11.6063 9.49111 13.6696 9.26187C15.9049 9.01352 17.8869 8.83561 19.6157 8.72813C21.3444 8.62064 23.8562 8.51074 27.151 8.39843C30.4458 8.28612 35.5615 8.11247 42.4982 7.87749C45.9618 7.71823 49.2551 7.59199 52.378 7.49878C55.3289 7.42467 57.1483 7.34941 57.8361 7.273C58.5238 7.19659 59.5617 7.13767 60.9497 7.09624C62.3345 7.02696 64.0648 6.9334 66.1405 6.81556C67.5285 6.77414 69.6088 6.69807 72.3816 6.58737C74.9825 6.49577 77.8428 6.38944 80.9626 6.26838C83.9073 6.13858 86.5051 6.01913 88.7558 5.91003C90.8346 5.82004 92.046 5.75594 92.3899 5.71774C93.0777 5.64132 93.767 5.57883 94.4579 5.53027C95.1457 5.45386 95.8396 5.43314 96.5398 5.46813C96.5522 5.57953 97.0758 5.59185 98.1105 5.50508C98.9703 5.40956 99.4001 5.3618 99.4001 5.3618C101.12 5.17077 105.701 4.88733 113.144 4.51148C122.651 3.9064 131.38 3.35942 139.333 2.87057C147.283 2.35386 153.665 1.82806 158.479 1.29316C162.606 0.83467 165.359 0.542939 166.737 0.41796C167.944 0.312085 168.904 0.332343 169.616 0.478734Z" fill="url(#paint0_linear_447_631)"/>
<defs>
<linearGradient id="paint0_linear_447_631" x1="5.49376" y1="9.91017" x2="162.506" y2="-0.910389" gradientUnits="userSpaceOnUse">
<stop stop-color="#DBC0FF"/>
<stop offset="0.219" stop-color="#9747FF"/>
<stop offset="0.639" stop-color="#9747FF"/>
<stop offset="0.984141" stop-color="#DBBFFF"/>
</linearGradient>
</defs>
</svg>
