<svg width="18" height="15" viewBox="0 0 18 15" fill="none" xmlns="http://www.w3.org/2000/svg">
<g filter="url(#filter0_d_415_220)">
<path d="M6.55021 10.15L15.0252 1.675C15.2252 1.475 15.4585 1.375 15.7252 1.375C15.9919 1.375 16.2252 1.475 16.4252 1.675C16.6252 1.875 16.7252 2.1125 16.7252 2.3875C16.7252 2.6625 16.6252 2.9 16.4252 3.1L7.25021 12.3C7.05021 12.5 6.81687 12.6 6.55021 12.6C6.28354 12.6 6.05021 12.5 5.85021 12.3L1.55021 8C1.35021 7.8 1.25437 7.5625 1.26271 7.2875C1.27104 7.0125 1.37521 6.775 1.57521 6.575C1.77521 6.375 2.01271 6.275 2.28771 6.275C2.56271 6.275 2.80021 6.375 3.00021 6.575L6.55021 10.15Z" fill="url(#paint0_linear_415_220)"/>
</g>
<defs>
<filter id="filter0_d_415_220" x="0.171298" y="0.647727" width="17.6447" height="13.4069" filterUnits="userSpaceOnUse" color-interpolation-filters="sRGB">
<feFlood flood-opacity="0" result="BackgroundImageFix"/>
<feColorMatrix in="SourceAlpha" type="matrix" values="0 0 0 0 0 0 0 0 0 0 0 0 0 0 0 0 0 0 127 0" result="hardAlpha"/>
<feOffset dy="0.363636"/>
<feGaussianBlur stdDeviation="0.545455"/>
<feComposite in2="hardAlpha" operator="out"/>
<feColorMatrix type="matrix" values="0 0 0 0 0 0 0 0 0 0 0 0 0 0 0 0 0 0 1 0"/>
<feBlend mode="normal" in2="BackgroundImageFix" result="effect1_dropShadow_415_220"/>
<feBlend mode="normal" in="SourceGraphic" in2="effect1_dropShadow_415_220" result="shape"/>
</filter>
<linearGradient id="paint0_linear_415_220" x1="8.99371" y1="3.82414" x2="8.99371" y2="9.04897" gradientUnits="userSpaceOnUse">
<stop stop-color="white"/>
<stop offset="1" stop-color="#999999"/>
</linearGradient>
</defs>
</svg>
