<svg width="22" height="22" viewBox="0 0 22 22" fill="none" xmlns="http://www.w3.org/2000/svg">
<g filter="url(#filter0_d_427_944)">
<path d="M19.25 12.375V17.875C19.25 18.0573 19.1776 18.2322 19.0486 18.3611C18.9197 18.4901 18.7448 18.5625 18.5625 18.5625H3.4375C3.25516 18.5625 3.0803 18.4901 2.95136 18.3611C2.82243 18.2322 2.75 18.0573 2.75 17.875V12.375C2.75 12.1927 2.82243 12.0178 2.95136 11.8889C3.0803 11.7599 3.25516 11.6875 3.4375 11.6875C3.61984 11.6875 3.7947 11.7599 3.92364 11.8889C4.05257 12.0178 4.125 12.1927 4.125 12.375V17.1875H17.875V12.375C17.875 12.1927 17.9474 12.0178 18.0764 11.8889C18.2053 11.7599 18.3802 11.6875 18.5625 11.6875C18.7448 11.6875 18.9197 11.7599 19.0486 11.8889C19.1776 12.0178 19.25 12.1927 19.25 12.375ZM10.5136 12.8614C10.5774 12.9253 10.6533 12.976 10.7367 13.0106C10.8202 13.0452 10.9097 13.063 11 13.063C11.0903 13.063 11.1798 13.0452 11.2633 13.0106C11.3467 12.976 11.4226 12.9253 11.4864 12.8614L14.9239 9.42391C15.0202 9.32776 15.0857 9.20521 15.1123 9.07177C15.1389 8.93834 15.1253 8.80002 15.0732 8.67433C15.0211 8.54864 14.9329 8.44123 14.8197 8.36569C14.7066 8.29016 14.5736 8.24989 14.4375 8.25H11.6875V2.75C11.6875 2.56766 11.6151 2.3928 11.4861 2.26386C11.3572 2.13493 11.1823 2.0625 11 2.0625C10.8177 2.0625 10.6428 2.13493 10.5139 2.26386C10.3849 2.3928 10.3125 2.56766 10.3125 2.75V8.25H7.5625C7.42645 8.24989 7.29342 8.29016 7.18026 8.36569C7.0671 8.44123 6.9789 8.54864 6.92682 8.67433C6.87474 8.80002 6.86113 8.93834 6.8877 9.07177C6.91427 9.20521 6.97984 9.32776 7.07609 9.42391L10.5136 12.8614Z" fill="url(#paint0_linear_427_944)"/>
</g>
<defs>
<filter id="filter0_d_427_944" x="-0.25" y="0.0625" width="22.5" height="22.5" filterUnits="userSpaceOnUse" color-interpolation-filters="sRGB">
<feFlood flood-opacity="0" result="BackgroundImageFix"/>
<feColorMatrix in="SourceAlpha" type="matrix" values="0 0 0 0 0 0 0 0 0 0 0 0 0 0 0 0 0 0 127 0" result="hardAlpha"/>
<feOffset dy="1"/>
<feGaussianBlur stdDeviation="1.5"/>
<feComposite in2="hardAlpha" operator="out"/>
<feColorMatrix type="matrix" values="0 0 0 0 0 0 0 0 0 0 0 0 0 0 0 0 0 0 1 0"/>
<feBlend mode="normal" in2="BackgroundImageFix" result="effect1_dropShadow_427_944"/>
<feBlend mode="normal" in="SourceGraphic" in2="effect1_dropShadow_427_944" result="shape"/>
</filter>
<linearGradient id="paint0_linear_427_944" x1="11" y1="5.66257" x2="11" y2="13.3427" gradientUnits="userSpaceOnUse">
<stop stop-color="white"/>
<stop offset="1" stop-color="#999999"/>
</linearGradient>
</defs>
</svg>
