<svg width="17" height="18" viewBox="0 0 17 18" fill="none" xmlns="http://www.w3.org/2000/svg">
<path d="M16.75 10.8271V16.3271C16.75 16.5095 16.6776 16.6844 16.5486 16.8133C16.4197 16.9422 16.2448 17.0146 16.0625 17.0146H0.9375C0.755164 17.0146 0.580295 16.9422 0.451364 16.8133C0.322433 16.6844 0.25 16.5095 0.25 16.3271V10.8271C0.25 10.6448 0.322433 10.4699 0.451364 10.341C0.580295 10.2121 0.755164 10.1396 0.9375 10.1396C1.11984 10.1396 1.2947 10.2121 1.42364 10.341C1.55257 10.4699 1.625 10.6448 1.625 10.8271V15.6396H15.375V10.8271C15.375 10.6448 15.4474 10.4699 15.5764 10.341C15.7053 10.2121 15.8802 10.1396 16.0625 10.1396C16.2448 10.1396 16.4197 10.2121 16.5486 10.341C16.6776 10.4699 16.75 10.6448 16.75 10.8271ZM8.01359 11.3136C8.07744 11.3775 8.15327 11.4282 8.23673 11.4628C8.32019 11.4974 8.40965 11.5152 8.5 11.5152C8.59035 11.5152 8.67981 11.4974 8.76327 11.4628C8.84673 11.4282 8.92256 11.3775 8.98641 11.3136L12.4239 7.87605C12.5202 7.7799 12.5857 7.65736 12.6123 7.52392C12.6389 7.39049 12.6253 7.25217 12.5732 7.12648C12.5211 7.00079 12.4329 6.89338 12.3197 6.81784C12.2066 6.7423 12.0736 6.70204 11.9375 6.70215H9.1875V1.20215C9.1875 1.01981 9.11507 0.844944 8.98614 0.716012C8.85721 0.587081 8.68234 0.514648 8.5 0.514648C8.31766 0.514648 8.1428 0.587081 8.01386 0.716012C7.88493 0.844944 7.8125 1.01981 7.8125 1.20215V6.70215H5.0625C4.92645 6.70204 4.79342 6.7423 4.68026 6.81784C4.5671 6.89338 4.4789 7.00079 4.42682 7.12648C4.37474 7.25217 4.36113 7.39049 4.3877 7.52392C4.41427 7.65736 4.47984 7.7799 4.57609 7.87605L8.01359 11.3136Z" fill="url(#paint0_linear_415_679)"/>
<defs>
<linearGradient id="paint0_linear_415_679" x1="8.5" y1="10.4521" x2="8.5" y2="6.45215" gradientUnits="userSpaceOnUse">
<stop/>
<stop offset="1" stop-color="#747474"/>
</linearGradient>
</defs>
</svg>
