<svg width="153" height="36" viewBox="0 0 153 36" fill="none" xmlns="http://www.w3.org/2000/svg">
<mask id="path-1-outside-1_447_947" maskUnits="userSpaceOnUse" x="0" y="0.285156" width="153" height="35" fill="black">
<rect fill="white" y="0.285156" width="153" height="35"/>
<path d="M1 23.2885V4.19085C1 1.6445 2.3597 1.28602 3.56489 1.28602H10.5179C11.9394 1.28602 14.1891 1.35401 16.8838 2.61482C19.5785 3.87564 21.7561 6.66303 22.508 7.89912C22.9283 7.0833 24.0222 6.89995 24.5167 6.91025H35.796C37.2793 6.91025 37.8253 7.45619 38.1137 7.80642L39.2571 9.28973C40.6415 7.68281 42.8829 6.91025 43.8306 6.72483C47.0692 6.10679 49.5682 7.31198 50.4128 7.99183C50.932 7.15129 51.9888 6.92055 52.4524 6.91025H53.7503C56.0679 6.91025 56.6757 8.25965 56.6551 8.9807C56.754 7.2749 58.3444 6.88965 59.1273 6.91025H60.5179C62.1866 6.91025 62.6707 7.6107 62.8665 7.99183C63.8553 7.20073 65.3798 6.77634 66.0185 6.66303C69.9245 5.94609 72.6522 8.05363 73.5278 9.19702C73.5981 9.28886 74.1149 9.876 75.2274 11.2984C76.6454 13.0247 76.7309 15.1303 76.7415 16.204C76.761 16.1706 77.0283 16.111 78.0086 16.0882C79.0716 16.0635 79.7288 16.5724 79.9245 16.8299L81.3151 18.5604C81.8714 19.1476 81.9641 19.4669 82.0259 19.7038C82.6192 20.0499 83.8182 20.0952 84.3436 20.0746C87.2793 19.7347 87.4956 18.2514 87.4956 17.0462V3.44919C87.6192 1.87317 88.6081 1.31693 90.1223 1.28603C91.3337 1.2613 92.0073 1.77016 92.1928 2.02768L93.4598 3.5728C94.5413 4.74709 94.325 5.17972 94.3559 5.76686V9.84597C96.5562 7.86822 99.6608 6.96175 100.938 6.75574C106.525 5.79158 110.724 7.75491 112.125 8.8571C112.496 7.21927 113.67 6.94115 114.319 6.91025H115.4C116.868 6.91025 117.236 7.32346 117.493 7.61156L117.502 7.621C118.151 7.03386 118.367 6.97205 119.603 6.91025C120.592 6.86081 121.354 7.5489 121.612 7.89912C122.601 7.21927 123.487 6.92055 123.96 6.78664C128.064 5.87193 130.821 7.88882 131.686 9.01161C132.576 7.77551 134.488 7.01326 135.332 6.78664C139.733 5.7236 142.543 8.17724 143.398 9.53695C142.718 8.36266 141.915 6.04498 144.418 4.34536C146.865 3.01038 148.775 4.22175 149.424 4.99431L151.525 7.621C152.835 9.9943 151.154 12.106 149.856 12.5345C147.31 13.375 145.623 12.2873 145.098 11.6383C146.012 13.1463 146.282 14.8212 146.303 15.4702V24.6791C146.303 27.5221 144.943 27.8002 144.047 27.8311H143.398C142.483 27.8558 141.76 27.1204 141.513 26.7495L140.215 25.1735C139.721 24.4937 139.597 23.7932 139.597 23.3812V14.7285C136.012 13.888 135.013 15.6762 134.962 16.6754V25.2662C134.962 27.244 133.695 27.8002 132.922 27.8311H132.119C131.191 27.8311 130.573 27.2955 130.326 26.9968L129.028 25.3898C128.287 24.6482 128.215 23.8138 128.225 23.4121V14.7285C124.591 13.9127 123.62 15.6865 123.59 16.6754V25.2971C123.59 27.2502 122.127 27.8002 121.395 27.8311H120.87C119.98 27.8558 119.304 27.3676 119.078 27.1204C118.583 27.6643 117.697 27.8002 117.316 27.8002H116.049C114.467 27.8249 113.845 26.5332 113.732 25.8843C111.086 27.8373 107.005 28.2432 105.295 28.202C98.6204 28.0165 95.283 24.607 93.8924 22.5159C92.6254 25.9152 89.7248 28.0638 85.5797 28.202C80.9443 28.3565 77.8541 24.6379 76.7416 22.7013V25.4516C76.7416 27.5221 75.1347 27.8002 74.4239 27.8311H72.7861C71.6489 27.8806 70.8083 27.1307 70.5302 26.7495L69.4486 25.4516C68.6143 24.4937 68.6246 23.8138 68.6143 23.3503V16.15C65.0605 15.7483 64.7206 17.108 64.7824 18.0042V25.4825C64.7082 27.3367 63.227 27.8208 62.4956 27.8311H60.8578C58.8553 27.8064 58.2723 26.5023 58.2311 25.8534C57.7367 28.6964 56.0988 33.7644 49.2385 34.1352C43.4142 34.45 39.7309 30.1076 38.6081 27.7693C38.4598 27.8188 37.9695 27.8311 37.7429 27.8311H26.4326C24.7948 27.8311 24.3004 27.1822 23.9295 26.6877L22.7243 25.2662C22.199 24.7409 22.0239 24.1434 21.9827 23.8138C19.6032 26.3169 17.0074 27.7384 12.3721 27.8311H5.32633C3.84301 27.862 3.31767 27.2749 2.91594 26.7495L1.80346 25.3898C1.01236 24.4999 0.999982 23.7829 1 23.2885Z"/>
</mask>
<path d="M1 23.2885V4.19085C1 1.6445 2.3597 1.28602 3.56489 1.28602H10.5179C11.9394 1.28602 14.1891 1.35401 16.8838 2.61482C19.5785 3.87564 21.7561 6.66303 22.508 7.89912C22.9283 7.0833 24.0222 6.89995 24.5167 6.91025H35.796C37.2793 6.91025 37.8253 7.45619 38.1137 7.80642L39.2571 9.28973C40.6415 7.68281 42.8829 6.91025 43.8306 6.72483C47.0692 6.10679 49.5682 7.31198 50.4128 7.99183C50.932 7.15129 51.9888 6.92055 52.4524 6.91025H53.7503C56.0679 6.91025 56.6757 8.25965 56.6551 8.9807C56.754 7.2749 58.3444 6.88965 59.1273 6.91025H60.5179C62.1866 6.91025 62.6707 7.6107 62.8665 7.99183C63.8553 7.20073 65.3798 6.77634 66.0185 6.66303C69.9245 5.94609 72.6522 8.05363 73.5278 9.19702C73.5981 9.28886 74.1149 9.876 75.2274 11.2984C76.6454 13.0247 76.7309 15.1303 76.7415 16.204C76.761 16.1706 77.0283 16.111 78.0086 16.0882C79.0716 16.0635 79.7288 16.5724 79.9245 16.8299L81.3151 18.5604C81.8714 19.1476 81.9641 19.4669 82.0259 19.7038C82.6192 20.0499 83.8182 20.0952 84.3436 20.0746C87.2793 19.7347 87.4956 18.2514 87.4956 17.0462V3.44919C87.6192 1.87317 88.6081 1.31693 90.1223 1.28603C91.3337 1.2613 92.0073 1.77016 92.1928 2.02768L93.4598 3.5728C94.5413 4.74709 94.325 5.17972 94.3559 5.76686V9.84597C96.5562 7.86822 99.6608 6.96175 100.938 6.75574C106.525 5.79158 110.724 7.75491 112.125 8.8571C112.496 7.21927 113.67 6.94115 114.319 6.91025H115.4C116.868 6.91025 117.236 7.32346 117.493 7.61156L117.502 7.621C118.151 7.03386 118.367 6.97205 119.603 6.91025C120.592 6.86081 121.354 7.5489 121.612 7.89912C122.601 7.21927 123.487 6.92055 123.96 6.78664C128.064 5.87193 130.821 7.88882 131.686 9.01161C132.576 7.77551 134.488 7.01326 135.332 6.78664C139.733 5.7236 142.543 8.17724 143.398 9.53695C142.718 8.36266 141.915 6.04498 144.418 4.34536C146.865 3.01038 148.775 4.22175 149.424 4.99431L151.525 7.621C152.835 9.9943 151.154 12.106 149.856 12.5345C147.31 13.375 145.623 12.2873 145.098 11.6383C146.012 13.1463 146.282 14.8212 146.303 15.4702V24.6791C146.303 27.5221 144.943 27.8002 144.047 27.8311H143.398C142.483 27.8558 141.76 27.1204 141.513 26.7495L140.215 25.1735C139.721 24.4937 139.597 23.7932 139.597 23.3812V14.7285C136.012 13.888 135.013 15.6762 134.962 16.6754V25.2662C134.962 27.244 133.695 27.8002 132.922 27.8311H132.119C131.191 27.8311 130.573 27.2955 130.326 26.9968L129.028 25.3898C128.287 24.6482 128.215 23.8138 128.225 23.4121V14.7285C124.591 13.9127 123.62 15.6865 123.59 16.6754V25.2971C123.59 27.2502 122.127 27.8002 121.395 27.8311H120.87C119.98 27.8558 119.304 27.3676 119.078 27.1204C118.583 27.6643 117.697 27.8002 117.316 27.8002H116.049C114.467 27.8249 113.845 26.5332 113.732 25.8843C111.086 27.8373 107.005 28.2432 105.295 28.202C98.6204 28.0165 95.283 24.607 93.8924 22.5159C92.6254 25.9152 89.7248 28.0638 85.5797 28.202C80.9443 28.3565 77.8541 24.6379 76.7416 22.7013V25.4516C76.7416 27.5221 75.1347 27.8002 74.4239 27.8311H72.7861C71.6489 27.8806 70.8083 27.1307 70.5302 26.7495L69.4486 25.4516C68.6143 24.4937 68.6246 23.8138 68.6143 23.3503V16.15C65.0605 15.7483 64.7206 17.108 64.7824 18.0042V25.4825C64.7082 27.3367 63.227 27.8208 62.4956 27.8311H60.8578C58.8553 27.8064 58.2723 26.5023 58.2311 25.8534C57.7367 28.6964 56.0988 33.7644 49.2385 34.1352C43.4142 34.45 39.7309 30.1076 38.6081 27.7693C38.4598 27.8188 37.9695 27.8311 37.7429 27.8311H26.4326C24.7948 27.8311 24.3004 27.1822 23.9295 26.6877L22.7243 25.2662C22.199 24.7409 22.0239 24.1434 21.9827 23.8138C19.6032 26.3169 17.0074 27.7384 12.3721 27.8311H5.32633C3.84301 27.862 3.31767 27.2749 2.91594 26.7495L1.80346 25.3898C1.01236 24.4999 0.999982 23.7829 1 23.2885Z" fill="url(#paint0_linear_447_947)"/>
<path d="M76.7415 16.204L77.2359 16.1997L77.2204 14.4042L76.3146 15.9546L76.7415 16.204ZM76.7416 16.2118L76.3299 16.4857L77.2504 17.8692L77.236 16.2076L76.7416 16.2118ZM76.3146 15.9546C76.2767 16.0194 76.244 16.1094 76.246 16.2173C76.248 16.3264 76.2849 16.418 76.3299 16.4857L77.1532 15.938C77.1967 16.0033 77.2327 16.0924 77.2347 16.1988C77.2367 16.3042 77.2047 16.3914 77.1684 16.4534L76.3146 15.9546ZM77.236 16.2076C77.2357 16.1701 77.2362 16.2353 77.2359 16.1997L76.2471 16.2083C76.2471 16.21 76.2471 16.2117 76.2471 16.2129C76.2472 16.2143 76.2472 16.2152 76.2472 16.2161L77.236 16.2076ZM1 23.2885L1.98887 23.2885V23.2885H1ZM1.80346 25.3898L2.56881 24.7636L2.556 24.748L2.54255 24.7329L1.80346 25.3898ZM2.91594 26.7495L3.70146 26.1488L3.69159 26.1359L3.68129 26.1234L2.91594 26.7495ZM5.32633 27.8311V26.8422H5.31603L5.30573 26.8425L5.32633 27.8311ZM12.3721 27.8311V28.82H12.3819L12.3918 28.8198L12.3721 27.8311ZM21.9827 23.8138L22.9639 23.6912L22.7049 21.6188L21.266 23.1325L21.9827 23.8138ZM22.7243 25.2662L23.4786 24.6267L23.4523 24.5957L23.4236 24.567L22.7243 25.2662ZM23.9295 26.6877L24.7206 26.0944L24.7029 26.0708L24.6838 26.0482L23.9295 26.6877ZM38.6081 27.7693L39.4996 27.3413L39.1223 26.5556L38.2954 26.8312L38.6081 27.7693ZM49.2385 34.1352L49.2919 35.1226L49.2385 34.1352ZM58.2311 25.8534L59.218 25.7907L57.2569 25.6839L58.2311 25.8534ZM60.8578 27.8311L60.8456 28.82H60.8578V27.8311ZM62.4956 27.8311V28.8201L62.5096 28.8199L62.4956 27.8311ZM64.7824 25.4825L65.7705 25.5221L65.7713 25.5023V25.4825H64.7824ZM64.7824 18.0042H65.7713V17.9701L65.7689 17.9361L64.7824 18.0042ZM68.6143 16.15H69.6032V15.2667L68.7254 15.1674L68.6143 16.15ZM68.6143 23.3503H67.6254V23.3613L67.6257 23.3723L68.6143 23.3503ZM69.4486 25.4516L70.2083 24.8186L70.2014 24.8103L70.1943 24.8022L69.4486 25.4516ZM70.5302 26.7495L71.329 26.1666L71.3103 26.1409L71.2899 26.1165L70.5302 26.7495ZM72.7861 27.8311V26.8422H72.7646L72.7431 26.8432L72.7861 27.8311ZM74.4239 27.8311V28.82H74.4454L74.4669 28.8191L74.4239 27.8311ZM76.7416 22.7013L77.5991 22.2088L75.7527 18.9948V22.7013H76.7416ZM85.5797 28.202L85.6126 29.1903L85.5797 28.202ZM93.8924 22.5159L94.7158 21.9683L93.6426 20.3546L92.9658 22.1706L93.8924 22.5159ZM105.295 28.202L105.268 29.1905L105.272 29.1905L105.295 28.202ZM113.732 25.8843L114.706 25.7142L114.431 24.1389L113.144 25.0887L113.732 25.8843ZM116.049 27.8002V26.8113H116.042L116.034 26.8115L116.049 27.8002ZM119.078 27.1204L119.807 26.4522L119.075 25.6536L118.346 26.4552L119.078 27.1204ZM120.87 27.8311V26.8422H120.856L120.843 26.8426L120.87 27.8311ZM121.395 27.8311V28.82H121.416L121.437 28.8191L121.395 27.8311ZM123.59 16.6754L122.601 16.6445L122.601 16.6599V16.6754H123.59ZM128.225 14.7285H129.214V13.937L128.441 13.7637L128.225 14.7285ZM128.225 23.4121L129.213 23.4375L129.214 23.4248V23.4121H128.225ZM129.028 25.3898L129.798 24.7685L129.765 24.7277L129.728 24.6906L129.028 25.3898ZM130.326 26.9968L129.557 27.6182L129.564 27.6272L130.326 26.9968ZM132.922 27.8311V28.82H132.942L132.962 28.8192L132.922 27.8311ZM134.962 16.6754L133.974 16.6245L133.973 16.6499V16.6754H134.962ZM139.597 14.7285H140.586V13.9447L139.823 13.7658L139.597 14.7285ZM140.215 25.1735L139.415 25.7552L139.433 25.7792L139.452 25.8022L140.215 25.1735ZM141.513 26.7495L142.336 26.201L142.308 26.1595L142.276 26.1209L141.513 26.7495ZM143.398 27.8311V26.8422H143.385L143.371 26.8426L143.398 27.8311ZM144.047 27.8311V28.82H144.064L144.081 28.8194L144.047 27.8311ZM146.303 15.4702H147.292V15.4545L147.291 15.4388L146.303 15.4702ZM145.098 11.6383L145.866 11.0161L144.252 12.1511L145.098 11.6383ZM149.856 12.5345L149.547 11.5954L149.856 12.5345ZM151.525 7.621L152.391 7.14306L152.35 7.06917L152.297 7.00326L151.525 7.621ZM149.424 4.99431L150.196 4.37656L150.189 4.36733L150.181 4.35827L149.424 4.99431ZM144.418 4.34536L143.944 3.47723L143.902 3.50025L143.862 3.52725L144.418 4.34536ZM143.398 9.53695L142.561 10.0633L144.254 9.04148L143.398 9.53695ZM135.332 6.78664L135.1 5.82542L135.088 5.82833L135.076 5.83154L135.332 6.78664ZM131.686 9.01161L130.903 9.61523L131.713 10.6666L132.488 9.58941L131.686 9.01161ZM123.96 6.78664L123.745 5.82145L123.718 5.82749L123.691 5.83504L123.96 6.78664ZM121.612 7.89912L120.815 8.48492L121.383 9.25672L122.172 8.714L121.612 7.89912ZM119.603 6.91025L119.653 7.89789L119.603 6.91025ZM117.502 7.621L116.764 8.27938L117.427 9.02233L118.165 8.35429L117.502 7.621ZM117.493 7.61156L116.755 8.26991L116.755 8.26994L117.493 7.61156ZM114.319 6.91025V5.92137H114.295L114.272 5.92249L114.319 6.91025ZM112.125 8.8571L111.513 9.63427L112.744 10.6022L113.089 9.07546L112.125 8.8571ZM100.938 6.75574L101.096 7.73205L101.106 7.73021L100.938 6.75574ZM94.3559 9.84597H93.3671V12.0645L95.017 10.5814L94.3559 9.84597ZM94.3559 5.76686H95.3448V5.74086L95.3434 5.71489L94.3559 5.76686ZM93.4598 3.5728L92.6951 4.19982L92.7131 4.22182L92.7324 4.24274L93.4598 3.5728ZM92.1928 2.02768L91.3903 2.60549L91.4084 2.63069L91.4281 2.65471L92.1928 2.02768ZM90.1223 1.28603L90.1425 2.27469L90.1223 1.28603ZM87.4956 3.44919L86.5098 3.37187L86.5067 3.41047V3.44919H87.4956ZM84.3436 20.0746L84.3823 21.0628L84.4199 21.0613L84.4573 21.0569L84.3436 20.0746ZM82.0259 19.7038L81.069 19.9534L81.1727 20.351L81.5276 20.558L82.0259 19.7038ZM81.3151 18.5604L80.5443 19.1798L80.5695 19.2113L80.5973 19.2405L81.3151 18.5604ZM79.9245 16.8299L79.1372 17.4282L79.1453 17.4389L79.1537 17.4493L79.9245 16.8299ZM78.0086 16.0882L78.0316 17.0768L78.0086 16.0882ZM76.7415 16.204L75.7527 16.2138L75.7882 19.7964L77.5954 16.7028L76.7415 16.204ZM75.2274 11.2984L74.4485 11.9076L74.4557 11.9169L74.4633 11.9261L75.2274 11.2984ZM73.5278 9.19702L72.7426 9.79823L72.7426 9.79825L73.5278 9.19702ZM66.0185 6.66303L66.1912 7.63671L66.197 7.63566L66.0185 6.66303ZM62.8665 7.99183L61.9868 8.44355L62.5395 9.5198L63.4842 8.76401L62.8665 7.99183ZM59.1273 6.91025L59.1013 7.89878L59.1143 7.89912H59.1273V6.91025ZM56.6551 8.9807L55.6666 8.95246L57.6423 9.03793L56.6551 8.9807ZM52.4524 6.91025V5.92137H52.4414L52.4304 5.92162L52.4524 6.91025ZM50.4128 7.99183L49.7928 8.76217L50.6655 9.46458L51.2541 8.51148L50.4128 7.99183ZM43.8306 6.72483L43.6452 5.75348L43.6407 5.75436L43.8306 6.72483ZM39.2571 9.28973L38.4739 9.89344L39.2145 10.8542L40.0063 9.93517L39.2571 9.28973ZM38.1137 7.80642L38.8969 7.2027L38.8872 7.19008L38.877 7.17778L38.1137 7.80642ZM24.5167 6.91025L24.4961 7.89891L24.5064 7.89912H24.5167V6.91025ZM22.508 7.89912L21.6632 8.41306L22.5796 9.91949L23.3871 8.35198L22.508 7.89912ZM3.56489 1.28602L3.56489 2.2749H3.56489V1.28602ZM0.0111256 4.19085V23.2885H1.98887V4.19085H0.0111256ZM0.0111256 23.2884C0.0111163 23.5479 0.0117619 23.9703 0.155185 24.4658C0.30093 24.9693 0.577964 25.4996 1.06437 26.0468L2.54255 24.7329C2.23786 24.3901 2.11315 24.117 2.05494 23.9159C1.9944 23.7067 1.98887 23.5235 1.98887 23.2885L0.0111256 23.2884ZM1.03811 26.016L2.1506 27.3757L3.68129 26.1234L2.56881 24.7636L1.03811 26.016ZM2.13042 27.3502C2.34909 27.6362 2.67989 28.0477 3.22687 28.3586C3.78107 28.6736 4.46809 28.8381 5.34692 28.8198L5.30573 26.8425C4.70125 26.8551 4.38394 26.7414 4.20421 26.6392C4.01727 26.533 3.88453 26.3882 3.70146 26.1488L2.13042 27.3502ZM5.32633 28.82H12.3721V26.8422H5.32633V28.82ZM12.3918 28.8198C14.8084 28.7715 16.7524 28.3752 18.4258 27.6296C20.1013 26.8831 21.4477 25.8119 22.6994 24.4951L21.266 23.1325C20.1382 24.3188 18.997 25.2099 17.6208 25.8231C16.2426 26.4372 14.5711 26.7981 12.3523 26.8424L12.3918 28.8198ZM21.0014 23.9365C21.0637 24.4345 21.3121 25.2525 22.0251 25.9655L23.4236 24.567C23.0859 24.2293 22.9841 23.8524 22.9639 23.6912L21.0014 23.9365ZM21.9701 25.9057L23.1753 27.3272L24.6838 26.0482L23.4786 24.6267L21.9701 25.9057ZM23.1384 27.2811C23.3268 27.5322 23.6422 27.961 24.1985 28.2936C24.7612 28.6301 25.4802 28.82 26.4326 28.82V26.8422C25.7472 26.8422 25.4001 26.7077 25.2134 26.5961C25.0203 26.4806 24.9031 26.3377 24.7206 26.0944L23.1384 27.2811ZM26.4326 28.82H37.7429V26.8422H26.4326V28.82ZM37.7429 28.82C37.8697 28.82 38.0674 28.8166 38.2589 28.8062C38.3542 28.8009 38.458 28.7934 38.5555 28.7822C38.6319 28.7734 38.7788 28.7548 38.9208 28.7075L38.2954 26.8312C38.3205 26.8228 38.339 26.8182 38.3475 26.8161C38.3524 26.815 38.356 26.8142 38.3582 26.8138C38.3604 26.8133 38.3616 26.8131 38.3617 26.8131C38.3618 26.8131 38.359 26.8136 38.353 26.8144C38.3471 26.8153 38.3391 26.8163 38.329 26.8175C38.2857 26.8225 38.225 26.8273 38.1508 26.8314C38.0034 26.8394 37.8427 26.8422 37.7429 26.8422V28.82ZM37.7167 28.1974C38.9327 30.7298 42.9121 35.4675 49.2919 35.1226L49.1852 33.1478C43.9163 33.4326 40.5291 29.4854 39.4996 27.3413L37.7167 28.1974ZM49.2919 35.1226C52.9949 34.9225 55.3851 33.4342 56.8956 31.5373C58.3748 29.6797 58.9464 27.5119 59.2054 26.0228L57.2569 25.6839C57.0214 27.0379 56.5268 28.8255 55.3484 30.3054C54.2013 31.7459 52.3424 32.9771 49.1852 33.1478L49.2919 35.1226ZM57.2442 25.916C57.2786 26.4573 57.522 27.1747 58.102 27.7678C58.7068 28.3861 59.6134 28.8047 60.8456 28.8199L60.87 26.8423C60.0998 26.8328 59.7136 26.587 59.5159 26.3849C59.2935 26.1575 59.2248 25.8984 59.218 25.7907L57.2442 25.916ZM60.8578 28.82H62.4956V26.8422H60.8578V28.82ZM62.5096 28.8199C63.0461 28.8123 63.8127 28.6402 64.4797 28.1387C65.1879 27.6063 65.7215 26.7462 65.7705 25.5221L63.7943 25.443C63.7691 26.0731 63.5251 26.3821 63.2912 26.5578C63.0163 26.7646 62.6765 26.8396 62.4817 26.8423L62.5096 28.8199ZM65.7713 25.4825V18.0042H63.7935V25.4825H65.7713ZM65.7689 17.9361C65.7478 17.6293 65.8075 17.4805 65.946 17.3738C66.1548 17.2129 66.7995 16.9401 68.5032 17.1327L68.7254 15.1674C66.8753 14.9583 65.5732 15.1644 64.739 15.807C63.8346 16.5038 63.7552 17.4829 63.7959 18.0722L65.7689 17.9361ZM67.6257 23.3723C67.6305 23.5913 67.6285 24.0044 67.7743 24.4965C67.9225 24.9965 68.2046 25.529 68.703 26.1011L70.1943 24.8022C69.8583 24.4163 69.7284 24.1299 69.6706 23.9346C69.6104 23.7314 69.6083 23.5728 69.6029 23.3283L67.6257 23.3723ZM68.689 26.0847L69.7706 27.3826L71.2899 26.1165L70.2083 24.8186L68.689 26.0847ZM69.7314 27.3325C70.1232 27.8693 71.2435 28.888 72.8291 28.8191L72.7431 26.8432C72.4082 26.8577 72.1019 26.7559 71.8394 26.6007C71.5677 26.4399 71.3886 26.2483 71.329 26.1666L69.7314 27.3325ZM72.7861 28.82H74.4239V26.8422H72.7861V28.82ZM74.4669 28.8191C74.8908 28.8006 75.6888 28.7092 76.4038 28.225C77.1865 27.695 77.7305 26.7894 77.7305 25.4516H75.7527C75.7527 26.1843 75.4932 26.4531 75.2948 26.5874C75.0287 26.7677 74.6678 26.8307 74.381 26.8432L74.4669 28.8191ZM77.7305 25.4516V22.7013H75.7527V25.4516H77.7305ZM75.8841 23.1939C77.0501 25.2235 80.4106 29.3637 85.6126 29.1903L85.5467 27.2136C81.4781 27.3492 78.6581 24.0523 77.5991 22.2088L75.8841 23.1939ZM85.6126 29.1903C90.1363 29.0395 93.4044 26.6565 94.819 22.8613L92.9658 22.1706C91.8464 25.1738 89.3133 27.0881 85.5467 27.2136L85.6126 29.1903ZM93.069 23.0635C94.5971 25.3614 98.2052 28.9943 105.268 29.1904L105.323 27.2135C99.0357 27.0388 95.9689 23.8526 94.7158 21.9683L93.069 23.0635ZM105.272 29.1905C106.204 29.213 107.73 29.1146 109.373 28.7572C111.008 28.4014 112.84 27.7715 114.319 26.6798L113.144 25.0887C111.978 25.9501 110.447 26.4996 108.953 26.8247C107.466 27.1482 106.097 27.2321 105.319 27.2134L105.272 29.1905ZM112.758 26.0544C112.842 26.5362 113.097 27.2028 113.611 27.763C114.151 28.3528 114.966 28.8061 116.065 28.789L116.034 26.8115C115.551 26.819 115.263 26.6389 115.069 26.4267C114.847 26.185 114.735 25.8813 114.706 25.7142L112.758 26.0544ZM116.049 28.7891H117.316V26.8113H116.049V28.7891ZM117.316 28.7891C117.601 28.7891 118.016 28.7416 118.446 28.6093C118.87 28.4787 119.399 28.2372 119.809 27.7856L118.346 26.4552C118.262 26.5474 118.101 26.6459 117.863 26.7192C117.631 26.7908 117.413 26.8113 117.316 26.8113V28.7891ZM118.349 27.7886C118.716 28.1889 119.65 28.8543 120.898 28.8196L120.843 26.8426C120.587 26.8497 120.353 26.7834 120.157 26.6883C119.952 26.5886 119.83 26.4772 119.807 26.4522L118.349 27.7886ZM120.87 28.82H121.395V26.8422H120.87V28.82ZM121.437 28.8191C121.985 28.796 122.753 28.5898 123.404 28.0409C124.093 27.4597 124.578 26.5529 124.578 25.2971H122.601C122.601 25.9944 122.354 26.3391 122.129 26.529C121.866 26.7511 121.538 26.8354 121.354 26.8431L121.437 28.8191ZM124.578 25.2971V16.6754H122.601V25.2971H124.578ZM124.578 16.7063C124.585 16.4884 124.704 16.1141 125.103 15.8491C125.5 15.5852 126.345 15.3201 128.008 15.6934L128.441 13.7637C126.47 13.3211 125.013 13.535 124.009 14.2013C123.007 14.8664 122.625 15.8735 122.601 16.6445L124.578 16.7063ZM127.236 14.7285V23.4121H129.214V14.7285H127.236ZM127.236 23.3867C127.222 23.9375 127.324 25.0839 128.329 26.0891L129.728 24.6906C129.249 24.2125 129.207 23.6902 129.213 23.4375L127.236 23.3867ZM128.259 26.0112L129.557 27.6181L131.096 26.3754L129.798 24.7685L128.259 26.0112ZM129.564 27.6272C129.922 28.0594 130.794 28.82 132.119 28.82V26.8422C131.589 26.8422 131.225 26.5316 131.088 26.3663L129.564 27.6272ZM132.119 28.82H132.922V26.8422H132.119V28.82ZM132.962 28.8192C133.54 28.7961 134.293 28.5809 134.91 27.9979C135.552 27.392 135.95 26.4821 135.95 25.2662H133.973C133.973 26.0281 133.738 26.3852 133.553 26.5596C133.344 26.7568 133.076 26.8353 132.882 26.843L132.962 28.8192ZM135.95 25.2662V16.6754H133.973V25.2662H135.95ZM135.949 16.7263C135.961 16.4949 136.093 16.1065 136.501 15.8363C136.902 15.5706 137.74 15.3088 139.371 15.6913L139.823 13.7658C137.869 13.3078 136.416 13.5198 135.408 14.1878C134.407 14.8514 134.014 15.8567 133.974 16.6245L135.949 16.7263ZM138.608 23.3812C138.608 23.9659 138.778 24.8791 139.415 25.7552L141.015 24.5919C140.663 24.1082 140.586 23.6205 140.586 23.3812H138.608ZM139.452 25.8022L140.75 27.3782L142.276 26.1209L140.978 24.5449L139.452 25.8022ZM140.69 27.2981C140.878 27.5796 141.206 27.9476 141.64 28.25C142.076 28.5542 142.691 28.8395 143.425 28.8196L143.371 26.8426C143.19 26.8475 142.986 26.7773 142.77 26.6273C142.552 26.4754 142.395 26.2903 142.336 26.201L140.69 27.2981ZM143.398 28.82H144.047V26.8422H143.398V28.82ZM144.081 28.8194C144.594 28.8017 145.469 28.7129 146.191 28.027C146.92 27.3356 147.292 26.2372 147.292 24.6791H145.314C145.314 25.964 145.005 26.4261 144.83 26.5923C144.649 26.764 144.396 26.8296 144.013 26.8428L144.081 28.8194ZM147.292 24.6791V15.4702H145.314V24.6791H147.292ZM147.291 15.4388C147.266 14.6581 146.964 12.8086 145.943 11.1255L144.252 12.1511C145.061 13.4841 145.298 14.9844 145.314 15.5016L147.291 15.4388ZM144.329 12.2605C145.1 13.2129 147.21 14.4493 150.166 13.4735L149.547 11.5954C147.41 12.3007 146.146 11.3616 145.866 11.0161L144.329 12.2605ZM150.166 13.4735C151.103 13.1645 152.042 12.323 152.562 11.2327C153.106 10.091 153.213 8.63178 152.391 7.14306L150.66 8.09894C151.148 8.98353 151.069 9.76681 150.776 10.3815C150.459 11.0474 149.908 11.476 149.547 11.5954L150.166 13.4735ZM152.297 7.00326L150.196 4.37656L148.652 5.61205L150.753 8.23875L152.297 7.00326ZM150.181 4.35827C149.317 3.3295 146.914 1.85753 143.944 3.47723L144.891 5.21349C146.817 4.16322 148.233 5.114 148.667 5.63034L150.181 4.35827ZM143.862 3.52725C142.359 4.54763 141.762 5.83985 141.726 7.10968C141.691 8.30946 142.159 9.37045 142.542 10.0324L144.254 9.04148C143.957 8.52915 143.683 7.84417 143.703 7.16663C143.72 6.55914 143.973 5.84271 144.973 5.16346L143.862 3.52725ZM144.235 9.01057C143.208 7.3773 140.004 4.64071 135.1 5.82542L135.565 7.74786C139.461 6.80649 141.878 8.97719 142.561 10.0633L144.235 9.01057ZM135.076 5.83154C134.584 5.96356 133.823 6.23816 133.058 6.64952C132.305 7.05432 131.455 7.64042 130.883 8.43381L132.488 9.58941C132.807 9.14671 133.358 8.73363 133.994 8.39162C134.618 8.05617 135.236 7.83634 135.589 7.74174L135.076 5.83154ZM132.469 8.40799C131.406 7.02829 128.279 4.81097 123.745 5.82145L124.175 7.75183C127.85 6.93289 130.235 8.74935 130.903 9.61523L132.469 8.40799ZM123.691 5.83504C123.152 5.98751 122.157 6.32417 121.052 7.08425L122.172 8.714C123.044 8.11437 123.821 7.85359 124.229 7.73824L123.691 5.83504ZM122.408 7.31333C122.204 7.03578 121.853 6.687 121.394 6.40881C120.927 6.12631 120.295 5.88554 119.554 5.92261L119.653 7.89789C119.9 7.88551 120.144 7.96407 120.37 8.10081C120.603 8.24186 120.762 8.41224 120.815 8.48492L122.408 7.31333ZM119.554 5.92261C118.964 5.9521 118.46 5.98355 118.02 6.1305C117.525 6.29528 117.182 6.57657 116.838 6.88772L118.165 8.35429C118.47 8.07829 118.56 8.03511 118.645 8.00675C118.784 7.96056 119.006 7.9302 119.653 7.89789L119.554 5.92261ZM118.24 6.96262L118.231 6.95318L116.755 8.26994L116.764 8.27938L118.24 6.96262ZM118.231 6.9532C118.082 6.78639 117.813 6.48021 117.309 6.25202C116.83 6.0355 116.219 5.92137 115.4 5.92137V7.89912C116.049 7.89912 116.356 7.9916 116.493 8.05371C116.604 8.10415 116.647 8.14862 116.755 8.26991L118.231 6.9532ZM115.4 5.92137H114.319V7.89912H115.4V5.92137ZM114.272 5.92249C113.847 5.94273 113.195 6.04463 112.572 6.45596C111.922 6.8853 111.398 7.59052 111.16 8.63873L113.089 9.07546C113.223 8.48585 113.47 8.23309 113.663 8.10619C113.882 7.96128 114.142 7.90867 114.366 7.898L114.272 5.92249ZM112.736 8.07992C111.127 6.81391 106.648 4.76694 100.77 5.78127L101.106 7.73021C106.403 6.81623 110.321 8.69591 111.513 9.63427L112.736 8.07992ZM100.781 5.77948C99.397 6.00265 96.0871 6.96022 93.6949 9.11054L95.017 10.5814C97.0253 8.77622 99.9247 7.92085 101.096 7.73199L100.781 5.77948ZM95.3448 9.84597V5.76686H93.3671V9.84597H95.3448ZM95.3434 5.71489C95.3368 5.58801 95.3454 5.56627 95.3438 5.33472C95.3425 5.14902 95.3296 4.91439 95.2592 4.64223C95.1173 4.09395 94.7841 3.55096 94.1871 2.90286L92.7324 4.24274C93.217 4.76892 93.3165 5.0294 93.3445 5.13779C93.3591 5.19396 93.3654 5.25098 93.3661 5.34822C93.3665 5.39962 93.3596 5.65214 93.3684 5.81884L95.3434 5.71489ZM94.2244 2.94577L92.9574 1.40066L91.4281 2.65471L92.6951 4.19982L94.2244 2.94577ZM92.9953 1.44988C92.5899 0.886919 91.5838 0.267118 90.1021 0.297357L90.1425 2.27469C91.0835 2.25549 91.4248 2.6534 91.3903 2.60549L92.9953 1.44988ZM90.1021 0.297357C89.253 0.314686 88.384 0.478228 87.6931 0.997899C86.9615 1.54811 86.588 2.3745 86.5098 3.37187L88.4815 3.52651C88.5268 2.94785 88.7095 2.70811 88.8819 2.57848C89.0948 2.4183 89.4774 2.28827 90.1425 2.27469L90.1021 0.297357ZM86.5067 3.44919V17.0462H88.4845V3.44919H86.5067ZM86.5067 17.0462C86.5067 17.6188 86.4438 18.0043 86.2281 18.2933C86.0314 18.5567 85.5502 18.9394 84.2298 19.0923L84.4573 21.0569C86.0726 20.8699 87.1674 20.341 87.8129 19.4765C88.4392 18.6376 88.4845 17.6788 88.4845 17.0462H86.5067ZM84.3048 19.0865C84.0874 19.095 83.7086 19.0899 83.3264 19.0447C82.9112 18.9956 82.6354 18.9145 82.5242 18.8496L81.5276 20.558C82.0097 20.8392 82.6301 20.9539 83.094 21.0088C83.5911 21.0676 84.0744 21.0748 84.3823 21.0628L84.3048 19.0865ZM82.9827 19.4542C82.9439 19.3052 82.8807 19.0752 82.7227 18.7874C82.5713 18.5118 82.3526 18.2176 82.033 17.8803L80.5973 19.2405C80.834 19.4904 80.9397 19.6494 80.9892 19.7395C81.032 19.8174 81.0461 19.8655 81.069 19.9534L82.9827 19.4542ZM82.086 17.941L80.6954 16.2105L79.1537 17.4493L80.5443 19.1798L82.086 17.941ZM80.7118 16.2315C80.3274 15.7257 79.3709 15.0674 77.9856 15.0996L78.0316 17.0768C78.3962 17.0684 78.6709 17.1509 78.8596 17.2426C79.0645 17.3422 79.1475 17.4418 79.1372 17.4282L80.7118 16.2315ZM77.9856 15.0996C77.4827 15.1113 77.1371 15.1329 76.9025 15.1597C76.7884 15.1727 76.6752 15.1897 76.573 15.2149C76.5245 15.2269 76.4479 15.248 76.3638 15.2849C76.3216 15.3034 76.2558 15.3354 76.1831 15.3859C76.1192 15.4304 75.9897 15.5305 75.8877 15.7052L77.5954 16.7028C77.4958 16.8733 77.3707 16.969 77.3132 17.009C77.2472 17.055 77.19 17.0822 77.1589 17.0958C77.097 17.123 77.0522 17.1338 77.0467 17.1351C77.0308 17.1391 77.0493 17.1335 77.127 17.1246C77.276 17.1076 77.5541 17.0879 78.0316 17.0768L77.9856 15.0996ZM77.7303 16.1942C77.7195 15.0992 77.6434 12.6817 75.9915 10.6707L74.4633 11.9261C75.6474 13.3677 75.7423 15.1614 75.7527 16.2138L77.7303 16.1942ZM76.0063 10.6892C75.4448 9.97127 75.0322 9.46229 74.7498 9.11971C74.6086 8.94844 74.5005 8.81946 74.4239 8.7282C74.3346 8.62186 74.3126 8.59549 74.3129 8.59579L72.7426 9.79825C72.7904 9.86061 72.9788 10.0806 73.2237 10.3778C73.4954 10.7073 73.8975 11.2031 74.4485 11.9076L76.0063 10.6892ZM74.3129 8.5958C73.2683 7.23166 70.1952 4.89102 65.84 5.6904L66.197 7.63566C69.6539 7.00117 72.0361 8.87561 72.7426 9.79823L74.3129 8.5958ZM65.8457 5.68936C65.1449 5.81371 63.4281 6.27612 62.2487 7.21965L63.4842 8.76401C64.2825 8.12534 65.6148 7.73897 66.1912 7.6367L65.8457 5.68936ZM63.7461 7.5401C63.6006 7.25678 63.327 6.82081 62.7711 6.47109C62.2232 6.12641 61.4907 5.92137 60.5179 5.92137V7.89912C61.2138 7.89912 61.5577 8.04431 61.718 8.14514C61.8703 8.24093 61.9366 8.34575 61.9868 8.44355L63.7461 7.5401ZM60.5179 5.92137H59.1273V7.89912H60.5179V5.92137ZM59.1533 5.92172C58.6206 5.9077 57.8294 6.02486 57.1231 6.45179C56.3674 6.90862 55.7382 7.71073 55.6679 8.92347L57.6423 9.03793C57.6709 8.54487 57.8863 8.30145 58.1462 8.14435C58.4556 7.95736 58.8511 7.8922 59.1013 7.89878L59.1533 5.92172ZM57.6436 9.00894C57.6614 8.38332 57.4147 7.59489 56.7694 6.96655C56.1066 6.32125 55.1065 5.92137 53.7503 5.92137V7.89912C54.7117 7.89912 55.1744 8.17395 55.3897 8.38361C55.6225 8.61024 55.6693 8.85703 55.6666 8.95246L57.6436 9.00894ZM53.7503 5.92137H52.4524V7.89912H53.7503V5.92137ZM52.4304 5.92162C52.0795 5.92941 51.5754 6.01401 51.0676 6.22922C50.5552 6.44637 49.97 6.82701 49.5715 7.47218L51.2541 8.51148C51.3748 8.3161 51.5776 8.16111 51.8393 8.05018C52.1057 7.9373 52.3617 7.90138 52.4743 7.89888L52.4304 5.92162ZM51.0328 7.22148C49.9868 6.37951 47.1984 5.07542 43.6453 5.75349L44.016 7.69618C46.94 7.13816 49.1495 8.24444 49.7928 8.76217L51.0328 7.22148ZM43.6407 5.75436C42.5826 5.96138 40.095 6.80205 38.5079 8.64428L40.0063 9.93517C41.188 8.56356 43.1833 7.85911 44.0205 7.69531L43.6407 5.75436ZM40.0403 8.68601L38.8969 7.2027L37.3305 8.41013L38.4739 9.89344L40.0403 8.68601ZM38.877 7.17778C38.6871 6.94718 38.3758 6.60975 37.8477 6.34379C37.3263 6.08122 36.6608 5.92137 35.796 5.92137V7.89912C36.4145 7.89912 36.7637 8.01225 36.9582 8.1102C37.1459 8.20477 37.2518 8.31543 37.3503 8.43505L38.877 7.17778ZM24.5373 5.92159C24.1805 5.91415 23.6557 5.97311 23.135 6.16984C22.6147 6.36644 21.9907 6.74403 21.6289 7.44626L23.3871 8.35198C23.4456 8.23839 23.5788 8.11639 23.834 8.01994C24.089 7.92361 24.3584 7.89604 24.4961 7.89891L24.5373 5.92159ZM23.3528 7.38518C22.5568 6.07663 20.2525 3.09924 17.3029 1.71914L16.4647 3.5105C18.9045 4.65204 20.9553 7.24943 21.6632 8.41306L23.3528 7.38518ZM17.3029 1.71914C14.4153 0.368057 11.9956 0.297149 10.5179 0.297149V2.2749C11.8833 2.2749 13.963 2.33996 16.4647 3.5105L17.3029 1.71914ZM3.5649 0.297149C2.89878 0.297147 1.96263 0.387623 1.19826 1.02319C0.398873 1.68788 0.0111256 2.752 0.0111256 4.19085H1.98887C1.98887 3.08334 2.28098 2.69504 2.46274 2.54391C2.67952 2.36366 3.02581 2.2749 3.56489 2.2749L3.5649 0.297149ZM3.56489 2.2749H10.5179V0.297149H3.56489V2.2749ZM67.6254 16.15V23.3503H69.6032V16.15H67.6254ZM138.608 14.7285V23.3812H140.586V14.7285H138.608ZM35.796 5.92137H24.5167V7.89912H35.796V5.92137Z" fill="url(#paint1_linear_447_947)" mask="url(#path-1-outside-1_447_947)"/>
<path d="M1 23.2885V4.19085C1 1.6445 2.3597 1.28602 3.56489 1.28602H10.5179C11.9394 1.28602 14.1891 1.35401 16.8838 2.61482C19.5785 3.87564 21.7561 6.66303 22.508 7.89912C22.9283 7.0833 24.0222 6.89995 24.5167 6.91025H35.796C37.2793 6.91025 37.8253 7.45619 38.1137 7.80642L39.2571 9.28973C40.6415 7.68281 42.8829 6.91025 43.8306 6.72483C47.0692 6.10679 49.5682 7.31198 50.4128 7.99183C50.932 7.15129 51.9888 6.92055 52.4524 6.91025H53.7503C56.0679 6.91025 56.6757 8.25965 56.6551 8.9807C56.754 7.2749 58.3444 6.88965 59.1273 6.91025H60.5179C62.1866 6.91025 62.6707 7.6107 62.8665 7.99183C63.8553 7.20073 65.3798 6.77634 66.0185 6.66303C69.9245 5.94609 72.6522 8.05363 73.5278 9.19702C73.5981 9.28886 74.1149 9.876 75.2274 11.2984C76.6454 13.0247 76.7309 15.1303 76.7415 16.204C76.761 16.1706 77.0283 16.111 78.0086 16.0882C79.0716 16.0635 79.7288 16.5724 79.9245 16.8299L81.3151 18.5604C81.8714 19.1476 81.9641 19.4669 82.0259 19.7038C82.6192 20.0499 83.8182 20.0952 84.3436 20.0746C87.2793 19.7347 87.4956 18.2514 87.4956 17.0462V3.44919C87.6192 1.87317 88.6081 1.31693 90.1223 1.28603C91.3337 1.2613 92.0073 1.77016 92.1928 2.02768L93.4598 3.5728C94.5413 4.74709 94.325 5.17972 94.3559 5.76686V9.84597C96.5562 7.86822 99.6608 6.96175 100.938 6.75574C106.525 5.79158 110.724 7.75491 112.125 8.8571C112.496 7.21927 113.67 6.94115 114.319 6.91025H115.4C116.868 6.91025 117.236 7.32346 117.493 7.61156L117.502 7.621C118.151 7.03386 118.367 6.97205 119.603 6.91025C120.592 6.86081 121.354 7.5489 121.612 7.89912C122.601 7.21927 123.487 6.92055 123.96 6.78664C128.064 5.87193 130.821 7.88882 131.686 9.01161C132.576 7.77551 134.488 7.01326 135.332 6.78664C139.733 5.7236 142.543 8.17724 143.398 9.53695C142.718 8.36266 141.915 6.04498 144.418 4.34536C146.865 3.01038 148.775 4.22175 149.424 4.99431L151.525 7.621C152.835 9.9943 151.154 12.106 149.856 12.5345C147.31 13.375 145.623 12.2873 145.098 11.6383C146.012 13.1463 146.282 14.8212 146.303 15.4702V24.6791C146.303 27.5221 144.943 27.8002 144.047 27.8311H143.398C142.483 27.8558 141.76 27.1204 141.513 26.7495L140.215 25.1735C139.721 24.4937 139.597 23.7932 139.597 23.3812V14.7285C136.012 13.888 135.013 15.6762 134.962 16.6754V25.2662C134.962 27.244 133.695 27.8002 132.922 27.8311H132.119C131.191 27.8311 130.573 27.2955 130.326 26.9968L129.028 25.3898C128.287 24.6482 128.215 23.8138 128.225 23.4121V14.7285C124.591 13.9127 123.62 15.6865 123.59 16.6754V25.2971C123.59 27.2502 122.127 27.8002 121.395 27.8311H120.87C119.98 27.8558 119.304 27.3676 119.078 27.1204C118.583 27.6643 117.697 27.8002 117.316 27.8002H116.049C114.467 27.8249 113.845 26.5332 113.732 25.8843C111.086 27.8373 107.005 28.2432 105.295 28.202C98.6204 28.0165 95.283 24.607 93.8924 22.5159C92.6254 25.9152 89.7248 28.0638 85.5797 28.202C80.9443 28.3565 77.8541 24.6379 76.7416 22.7013V25.4516C76.7416 27.5221 75.1347 27.8002 74.4239 27.8311H72.7861C71.6489 27.8806 70.8083 27.1307 70.5302 26.7495L69.4486 25.4516C68.6143 24.4937 68.6246 23.8138 68.6143 23.3503V16.15C65.0605 15.7483 64.7206 17.108 64.7824 18.0042V25.4825C64.7082 27.3367 63.227 27.8208 62.4956 27.8311H60.8578C58.8553 27.8064 58.2723 26.5023 58.2311 25.8534C57.7367 28.6964 56.0988 33.7644 49.2385 34.1352C43.4142 34.45 39.7309 30.1076 38.6081 27.7693C38.4598 27.8188 37.9695 27.8311 37.7429 27.8311H26.4326C24.7948 27.8311 24.3004 27.1822 23.9295 26.6877L22.7243 25.2662C22.199 24.7409 22.0239 24.1434 21.9827 23.8138C19.6032 26.3169 17.0074 27.7384 12.3721 27.8311H5.32633C3.84301 27.862 3.31767 27.2749 2.91594 26.7495L1.80346 25.3898C1.01236 24.4999 0.999982 23.7829 1 23.2885Z" fill="black"/>
<path d="M10.9965 2.70666C14.1491 2.70666 16.7693 3.74013 18.8572 5.80706C20.9659 7.85313 22.0202 10.4211 22.0202 13.5111C22.0202 16.601 20.9659 19.1795 18.8572 21.2465C16.7693 23.2925 14.1491 24.3155 10.9965 24.3155H3.66249C3.24796 24.3155 3.0407 24.3155 2.88238 24.2348C2.74311 24.1639 2.62987 24.0507 2.55892 23.9114C2.47824 23.753 2.47824 23.5458 2.47824 23.1313V3.89091C2.47824 3.47638 2.47824 3.26912 2.55892 3.1108C2.62987 2.97153 2.74311 2.8583 2.88238 2.78734C3.0407 2.70666 3.24796 2.70666 3.66249 2.70666H10.9965ZM10.8712 19.5866C12.9173 19.5866 14.6188 19.0125 15.9759 17.8642C17.3539 16.695 18.0429 15.244 18.0429 13.5111C18.0429 11.7782 17.3539 10.3376 15.9759 9.18932C14.6188 8.02015 12.9173 7.43556 10.8712 7.43556H6.33025V19.5866H10.8712Z" fill="white"/>
<path d="M29.2126 19.8372H36.1081C36.5227 19.8372 36.7299 19.8372 36.8882 19.9178C37.0275 19.9889 37.1407 20.1021 37.2116 20.2414C37.2923 20.3997 37.2923 20.6069 37.2923 21.0214V23.1313C37.2923 23.5458 37.2923 23.7531 37.2116 23.9114C37.1407 24.0507 37.0275 24.164 36.8882 24.2349C36.7299 24.3156 36.5227 24.3156 36.1081 24.3156H24.6657C24.2512 24.3156 24.044 24.3156 23.8856 24.2349C23.7463 24.164 23.633 24.0507 23.5621 23.9114C23.4814 23.7531 23.4814 23.5458 23.4814 23.1313V21.1525L31.3108 12.8222H24.791C24.3764 12.8222 24.1692 12.8222 24.0109 12.7415C23.8716 12.6705 23.7584 12.5573 23.6875 12.418C23.6068 12.2597 23.6068 12.0524 23.6068 11.6379V9.52805C23.6068 9.11352 23.6068 8.90626 23.6875 8.74793C23.7584 8.60867 23.8716 8.49544 24.0109 8.42447C24.1692 8.3438 24.3764 8.3438 24.791 8.3438H35.8889C36.3035 8.3438 36.5107 8.3438 36.669 8.42447C36.8083 8.49544 36.9215 8.60867 36.9924 8.74793C37.0731 8.90626 37.0731 9.11352 37.0731 9.52805V11.5068L29.2126 19.8372Z" fill="white"/>
<path d="M51.5831 9.52802C51.5831 9.1135 51.5831 8.90623 51.6638 8.7479C51.7347 8.60864 51.848 8.49541 51.9872 8.42444C52.1456 8.34378 52.3529 8.34378 52.7673 8.34378H54.0003C54.4148 8.34378 54.6222 8.34378 54.7804 8.42444C54.9197 8.49541 55.033 8.60864 55.1039 8.7479C55.1846 8.90623 55.1846 9.1135 55.1846 9.52802V22.5931C55.1846 25.015 54.4329 26.9567 52.9297 28.4181C51.4266 29.9005 49.4327 30.6416 46.9482 30.6416C44.9021 30.6416 43.1692 30.0988 41.7494 29.0132C40.72 28.2411 39.9376 27.2604 39.4022 26.0712C39.2201 25.6668 39.1291 25.4646 39.1688 25.24C39.2005 25.0608 39.3305 24.8597 39.4809 24.7572C39.6694 24.6288 39.9225 24.6288 40.4288 24.6288H42.0117C42.2239 24.6288 42.33 24.6288 42.4137 24.6485C42.506 24.6702 42.5431 24.6853 42.6244 24.734C42.6982 24.7783 42.8071 24.8841 43.0247 25.0958C43.8641 25.9118 45.1719 26.3199 46.9482 26.3199C48.3679 26.3199 49.4953 25.9753 50.3304 25.2864C51.1655 24.6183 51.5831 23.7101 51.5831 22.5618V20.7141C50.9777 21.7788 50.1739 22.6244 49.1717 23.2507C48.1695 23.8563 47.0421 24.159 45.7894 24.159C43.5764 24.159 41.7391 23.3865 40.2776 21.8415C38.8161 20.2965 38.0854 18.3653 38.0854 16.0478C38.0854 13.7512 38.8161 11.8304 40.2776 10.2854C41.7391 8.74046 43.5764 7.96797 45.7894 7.96797C47.0421 7.96797 48.1695 8.2707 49.1717 8.87617C50.1739 9.48164 50.9777 10.3272 51.5831 11.4129V9.52802ZM43.1902 18.7724C44.1297 19.4822 45.2988 19.8371 46.6976 19.8371C48.0965 19.8371 49.2552 19.4822 50.1739 18.7724C51.1134 18.0416 51.5831 17.1335 51.5831 16.0478C51.5831 14.9621 51.1134 14.0644 50.1739 13.3545C49.2552 12.6238 48.0965 12.2584 46.6976 12.2584C45.2988 12.2584 44.1297 12.6238 43.1902 13.3545C42.2505 14.0644 41.7808 14.9621 41.7808 16.0478C41.7808 17.1335 42.2505 18.0416 43.1902 18.7724Z" fill="white"/>
<path d="M67.5466 7.96797C69.3838 7.96797 70.8557 8.52124 71.9622 9.62778C73.0898 10.7343 73.6534 12.2062 73.6534 14.0435V23.1313C73.6534 23.5458 73.6534 23.753 73.5728 23.9114C73.5018 24.0507 73.3885 24.1639 73.2493 24.2349C73.091 24.3155 72.8837 24.3155 72.4691 24.3155H71.2675C70.853 24.3155 70.6458 24.3155 70.4874 24.2349C70.3481 24.1639 70.2349 24.0507 70.1639 23.9114C70.0833 23.753 70.0833 23.5458 70.0833 23.1313V15.578C70.0833 14.6594 69.7075 13.9286 68.9559 13.3858C68.2251 12.8221 67.2439 12.5403 66.012 12.5403C64.7176 12.5403 63.6737 12.8221 62.8803 13.3858C62.0869 13.9496 61.6903 14.7012 61.6903 15.6407V23.1313C61.6903 23.5458 61.6903 23.753 61.6096 23.9114C61.5386 24.0507 61.4254 24.1639 61.2862 24.2349C61.1278 24.3155 60.9205 24.3155 60.5061 24.3155H59.3043C58.8898 24.3155 58.6826 24.3155 58.5242 24.2349C58.3849 24.1639 58.2718 24.0507 58.2007 23.9114C58.1201 23.753 58.12 23.5458 58.12 23.1313V9.52802C58.12 9.1135 58.1201 8.90623 58.2007 8.7479C58.2718 8.60864 58.3849 8.49541 58.5242 8.42444C58.6826 8.34378 58.8898 8.34378 59.3043 8.34378H60.5061C60.9205 8.34378 61.1278 8.34378 61.2862 8.42444C61.4254 8.49541 61.5386 8.60864 61.6096 8.7479C61.6903 8.90623 61.6903 9.1135 61.6903 9.52802V11.6947C62.943 9.21022 64.895 7.96797 67.5466 7.96797Z" fill="white"/>
<path d="M89.1913 22.6557C87.7925 24.0128 86.0492 24.6913 83.9614 24.6913C81.8736 24.6913 80.1302 24.0128 78.7315 22.6557C77.6106 21.5517 76.9388 20.2331 76.716 18.7002C76.6651 18.3492 76.6396 18.1736 76.71 17.992C76.7665 17.8463 76.8997 17.6924 77.0358 17.6155C77.2053 17.5197 77.4093 17.5197 77.8174 17.5197H77.8603C78.2491 17.5197 78.4436 17.5197 78.574 17.5708C78.7194 17.6279 78.7699 17.664 78.8704 17.7837C78.9604 17.8909 79.0495 18.1554 79.2278 18.6844C79.4444 19.3273 79.8531 19.8889 80.4538 20.3695C81.3934 21.1212 82.573 21.497 83.9927 21.497C85.4125 21.497 86.592 21.1212 87.5315 20.3695C88.492 19.6179 88.9721 18.668 88.9721 17.5197V3.8654C88.9721 3.47492 88.9721 3.27968 89.044 3.12876C89.1171 2.97524 89.2408 2.85155 89.3942 2.77848C89.5452 2.70666 89.7404 2.70666 90.1309 2.70666C90.5214 2.70666 90.7166 2.70666 90.8675 2.77848C91.0211 2.85155 91.1447 2.97524 91.2178 3.12876C91.2896 3.27968 91.2896 3.47492 91.2896 3.8654V17.5197C91.2896 19.5657 90.5902 21.2778 89.1913 22.6557Z" fill="white"/>
<path d="M137.451 7.96797C139.185 7.96797 140.574 8.5108 141.617 9.59646C142.682 10.6821 143.215 12.1227 143.215 13.9183V23.2507C143.215 23.5531 143.215 23.7042 143.17 23.8253C143.096 24.0335 142.932 24.1974 142.724 24.2721C142.603 24.3155 142.452 24.3155 142.15 24.3155C141.847 24.3155 141.696 24.3155 141.575 24.2721C141.367 24.1974 141.203 24.0335 141.129 23.8253C141.084 23.7042 141.084 23.5531 141.084 23.2507V14.6699C141.084 13.5634 140.667 12.676 139.832 12.0079C139.018 11.3398 137.942 11.0057 136.606 11.0057C135.187 11.0057 134.038 11.3502 133.161 12.0392C132.305 12.7282 131.878 13.6259 131.878 14.7324V23.235C131.878 23.5521 131.878 23.7105 131.83 23.8369C131.755 24.0358 131.598 24.1927 131.399 24.2678C131.272 24.3155 131.115 24.3155 130.797 24.3155C130.48 24.3155 130.321 24.3155 130.195 24.2678C129.997 24.1927 129.839 24.0358 129.765 23.8369C129.717 23.7105 129.717 23.5521 129.717 23.235V14.6699C129.717 13.5634 129.299 12.676 128.464 12.0079C127.649 11.3398 126.575 11.0057 125.238 11.0057C123.819 11.0057 122.67 11.3502 121.793 12.0392C120.937 12.7282 120.509 13.6259 120.509 14.7324V23.2507C120.509 23.5531 120.509 23.7042 120.466 23.8253C120.391 24.0335 120.227 24.1974 120.019 24.2721C119.898 24.3155 119.747 24.3155 119.445 24.3155C119.142 24.3155 118.991 24.3155 118.87 24.2721C118.662 24.1974 118.498 24.0335 118.423 23.8253C118.38 23.7042 118.38 23.5531 118.38 23.2507V9.40856C118.38 9.10629 118.38 8.95517 118.423 8.83398C118.498 8.62581 118.662 8.46194 118.87 8.38726C118.991 8.34378 119.142 8.34378 119.445 8.34378C119.747 8.34378 119.898 8.34378 120.019 8.38726C120.227 8.46194 120.391 8.62581 120.466 8.83398C120.509 8.95517 120.509 9.10629 120.509 9.40856V11.6321C121.574 9.18934 123.432 7.96797 126.084 7.96797C127.462 7.96797 128.631 8.32289 129.591 9.03276C130.573 9.72173 131.24 10.6717 131.596 11.8826C132.096 10.6299 132.849 9.66954 133.851 9.00144C134.852 8.31246 136.053 7.96797 137.451 7.96797Z" fill="white"/>
<path d="M113.595 9.50007C113.595 9.08555 113.595 8.87829 113.676 8.71996C113.747 8.58069 113.86 8.46746 113.999 8.3965C114.158 8.31583 114.365 8.31583 114.779 8.31583H115.412C115.826 8.31583 116.034 8.31583 116.192 8.3965C116.331 8.46746 116.444 8.58069 116.515 8.71996C116.596 8.87829 116.596 9.08555 116.596 9.50007V23.1138C116.596 23.5284 116.596 23.7356 116.515 23.8939C116.444 24.0332 116.331 24.1464 116.192 24.2175C116.034 24.298 115.826 24.298 115.412 24.298H114.779C114.365 24.298 114.158 24.298 113.999 24.2175C113.86 24.1464 113.747 24.0332 113.676 23.8939C113.595 23.7356 113.595 23.5284 113.595 23.1138V20.1929C112.742 21.5717 111.477 22.6686 109.8 23.4834C108.123 24.2772 106.211 24.6742 104.063 24.6742C100.856 24.6742 98.1787 23.8802 96.0309 22.2925C93.8832 20.6838 92.8094 18.6887 92.8094 16.307C92.8094 13.9253 93.8832 11.9406 96.0309 10.3528C98.1787 8.74411 100.856 7.93978 104.063 7.93978C106.211 7.93978 108.123 8.34717 109.8 9.16196C111.477 9.95584 112.742 11.0422 113.595 12.4211V9.50007ZM98.4582 20.1301C100.135 21.133 102.239 21.6344 104.769 21.6344C107.299 21.6344 109.403 21.133 111.08 20.1301C112.757 19.1065 113.595 17.8321 113.595 16.307C113.595 14.7819 112.757 13.5179 111.08 12.5151C109.403 11.4914 107.299 10.9795 104.769 10.9795C102.239 10.9795 100.135 11.4914 98.4582 12.5151C96.7811 13.5179 95.9427 14.7819 95.9427 16.307C95.9427 17.8321 96.7811 19.1065 98.4582 20.1301Z" fill="white"/>
<path d="M148.22 8.76069C147.782 9.15737 147.229 9.35571 146.561 9.35571C145.892 9.35571 145.328 9.15737 144.869 8.76069C144.432 8.364 144.212 7.87337 144.212 7.28879C144.212 6.68332 144.432 6.18223 144.869 5.78555C145.328 5.38886 145.892 5.19053 146.561 5.19053C147.229 5.19053 147.782 5.39931 148.22 5.81687C148.68 6.21355 148.909 6.70419 148.909 7.28879C148.909 7.87337 148.68 8.364 148.22 8.76069Z" fill="white"/>
<defs>
<linearGradient id="paint0_linear_447_947" x1="-31.8989" y1="-2.35279" x2="-19.2024" y2="65.9667" gradientUnits="userSpaceOnUse">
<stop stop-color="#FFE75C"/>
<stop offset="0.263138" stop-color="#FFC619"/>
<stop offset="0.56265" stop-color="#FF78B9"/>
<stop offset="0.778221" stop-color="#EB459F"/>
<stop offset="1" stop-color="#9747FF"/>
</linearGradient>
<linearGradient id="paint1_linear_447_947" x1="-31.8989" y1="-2.35279" x2="-19.2024" y2="65.9667" gradientUnits="userSpaceOnUse">
<stop stop-color="#FFE75C"/>
<stop offset="0.263138" stop-color="#FFC619"/>
<stop offset="0.56265" stop-color="#FF78B9"/>
<stop offset="0.778221" stop-color="#EB459F"/>
<stop offset="1" stop-color="#9747FF"/>
</linearGradient>
</defs>
</svg>
