<svg width="27" height="27" viewBox="0 0 27 27" fill="none" xmlns="http://www.w3.org/2000/svg">
<path d="M25.38 13.7813C25.38 12.9038 25.3013 12.0601 25.155 11.2501H13.5V16.0369H20.16C19.8731 17.5838 19.0013 18.8944 17.6906 19.7719V22.8769H21.69C24.03 20.7226 25.38 17.5501 25.38 13.7813Z" fill="#4285F4"/>
<path d="M13.5002 25.8751C16.8414 25.8751 19.6427 24.7669 21.6902 22.8769L17.6908 19.7719C16.5827 20.5144 15.1652 20.9532 13.5002 20.9532C10.277 20.9532 7.54891 18.7763 6.57578 15.8513H2.44141V19.0576C4.47766 23.1019 8.66266 25.8751 13.5002 25.8751Z" fill="#34A853"/>
<path d="M6.57563 15.8512C6.32813 15.1087 6.1875 14.3156 6.1875 13.4999C6.1875 12.6843 6.32813 11.8912 6.57563 11.1487V7.94244H2.44125C1.575 9.66691 1.12424 11.5701 1.125 13.4999C1.125 15.4968 1.60313 17.3868 2.44125 19.0574L6.57563 15.8512Z" fill="#FBBC05"/>
<path d="M13.5002 6.04694C15.317 6.04694 16.9483 6.67131 18.2308 7.89756L21.7802 4.34819C19.637 2.35131 16.8358 1.12506 13.5002 1.12506C8.66266 1.12506 4.47766 3.89819 2.44141 7.94256L6.57578 11.1488C7.54891 8.22381 10.277 6.04694 13.5002 6.04694Z" fill="#EA4335"/>
</svg>
