<svg width="11" height="14" viewBox="0 0 11 14" fill="none" xmlns="http://www.w3.org/2000/svg">
<path d="M6.46125 0.115524C6.39961 0.0642784 6.32656 0.0286032 6.24824 0.011506C6.16993 -0.00559124 6.08865 -0.00360934 6.01127 0.0172845C5.93388 0.0381784 5.86265 0.0773718 5.80359 0.131561C5.74452 0.185749 5.69935 0.253345 5.67188 0.328649L4.29688 4.10427L2.78687 2.64115C2.73616 2.59196 2.67561 2.55408 2.60919 2.53C2.54278 2.50592 2.47201 2.49619 2.40157 2.50145C2.33112 2.5067 2.26258 2.52683 2.20047 2.5605C2.13837 2.59416 2.0841 2.64061 2.04125 2.69677C0.6875 4.47052 0 6.2549 0 7.9999C0 9.45859 0.579463 10.8575 1.61091 11.889C2.64236 12.9204 4.04131 13.4999 5.5 13.4999C6.95869 13.4999 8.35764 12.9204 9.38909 11.889C10.4205 10.8575 11 9.45859 11 7.9999C11 4.28427 7.82563 1.2499 6.46125 0.115524ZM8.99312 8.58365C8.86347 9.30784 8.51506 9.97492 7.99478 10.4951C7.4745 11.0153 6.80734 11.3635 6.08313 11.493C6.05567 11.4977 6.02786 11.5 6 11.4999C5.87458 11.4999 5.75375 11.4527 5.66148 11.3678C5.56921 11.2828 5.51223 11.1663 5.50185 11.0413C5.49146 10.9163 5.52843 10.792 5.60542 10.693C5.68242 10.594 5.7938 10.5275 5.9175 10.5068C6.95312 10.3324 7.83187 9.45365 8.0075 8.41615C8.02971 8.28536 8.10297 8.16876 8.21115 8.09199C8.31934 8.01521 8.45359 7.98456 8.58438 8.00677C8.71516 8.02899 8.83176 8.10224 8.90854 8.21043C8.98531 8.31861 9.01596 8.45286 8.99375 8.58365H8.99312Z" fill="#878787"/>
</svg>
