<svg width="15" height="16" viewBox="0 0 15 16" fill="none" xmlns="http://www.w3.org/2000/svg">
<g filter="url(#filter0_d_415_314)">
<path d="M8.46125 1.11552C8.39961 1.06428 8.32656 1.0286 8.24824 1.01151C8.16993 0.994409 8.08865 0.996391 8.01127 1.01728C7.93388 1.03818 7.86265 1.07737 7.80359 1.13156C7.74452 1.18575 7.69935 1.25334 7.67188 1.32865L6.29688 5.10427L4.78687 3.64115C4.73616 3.59196 4.67561 3.55408 4.60919 3.53C4.54278 3.50592 4.47201 3.49619 4.40157 3.50145C4.33112 3.5067 4.26258 3.52683 4.20047 3.5605C4.13837 3.59416 4.0841 3.64061 4.04125 3.69677C2.6875 5.47052 2 7.2549 2 8.9999C2 10.4586 2.57946 11.8575 3.61091 12.889C4.64236 13.9204 6.04131 14.4999 7.5 14.4999C8.95869 14.4999 10.3576 13.9204 11.3891 12.889C12.4205 11.8575 13 10.4586 13 8.9999C13 5.28427 9.82563 2.2499 8.46125 1.11552ZM10.9931 9.58365C10.8635 10.3078 10.5151 10.9749 9.99478 11.4951C9.4745 12.0153 8.80734 12.3635 8.08313 12.493C8.05567 12.4977 8.02786 12.5 8 12.4999C7.87458 12.4999 7.75375 12.4527 7.66148 12.3678C7.56921 12.2828 7.51223 12.1663 7.50185 12.0413C7.49146 11.9163 7.52843 11.792 7.60542 11.693C7.68242 11.594 7.7938 11.5275 7.9175 11.5068C8.95312 11.3324 9.83187 10.4536 10.0075 9.41615C10.0297 9.28536 10.103 9.16876 10.2112 9.09199C10.3193 9.01521 10.4536 8.98456 10.5844 9.00677C10.7152 9.02899 10.8318 9.10224 10.9085 9.21043C10.9853 9.31861 11.016 9.45286 10.9937 9.58365H10.9931Z" fill="url(#paint0_linear_415_314)"/>
</g>
<defs>
<filter id="filter0_d_415_314" x="0.909091" y="0.272727" width="13.1818" height="15.6818" filterUnits="userSpaceOnUse" color-interpolation-filters="sRGB">
<feFlood flood-opacity="0" result="BackgroundImageFix"/>
<feColorMatrix in="SourceAlpha" type="matrix" values="0 0 0 0 0 0 0 0 0 0 0 0 0 0 0 0 0 0 127 0" result="hardAlpha"/>
<feOffset dy="0.363636"/>
<feGaussianBlur stdDeviation="0.545455"/>
<feComposite in2="hardAlpha" operator="out"/>
<feColorMatrix type="matrix" values="0 0 0 0 0 0 0 0 0 0 0 0 0 0 0 0 0 0 1 0"/>
<feBlend mode="normal" in2="BackgroundImageFix" result="effect1_dropShadow_415_314"/>
<feBlend mode="normal" in="SourceGraphic" in2="effect1_dropShadow_415_314" result="shape"/>
</filter>
<linearGradient id="paint0_linear_415_314" x1="7.5" y1="3.94549" x2="7.5" y2="10.2292" gradientUnits="userSpaceOnUse">
<stop stop-color="white"/>
<stop offset="1" stop-color="#999999"/>
</linearGradient>
</defs>
</svg>
