<svg width="14" height="14" viewBox="0 0 14 14" fill="none" xmlns="http://www.w3.org/2000/svg">
<path d="M6.99658 10.2001C7.16559 10.2001 7.30843 10.1426 7.4251 10.0276C7.54176 9.9126 7.6001 9.7701 7.6001 9.6001V6.8001C7.6001 6.6301 7.54294 6.4876 7.42862 6.3726C7.31428 6.2576 7.17262 6.2001 7.00361 6.2001C6.8346 6.2001 6.69176 6.2576 6.5751 6.3726C6.45843 6.4876 6.4001 6.6301 6.4001 6.8001V9.6001C6.4001 9.7701 6.45726 9.9126 6.57158 10.0276C6.68591 10.1426 6.82758 10.2001 6.99658 10.2001ZM6.99658 5.0001C7.16559 5.0001 7.30843 4.94294 7.4251 4.82861C7.54176 4.71428 7.6001 4.57261 7.6001 4.40361C7.6001 4.2346 7.54294 4.09176 7.42862 3.9751C7.31428 3.85843 7.17262 3.8001 7.00361 3.8001C6.8346 3.8001 6.69176 3.85726 6.5751 3.97158C6.45843 4.08591 6.4001 4.22758 6.4001 4.39658C6.4001 4.56559 6.45726 4.70843 6.57158 4.8251C6.68591 4.94176 6.82758 5.0001 6.99658 5.0001ZM7.0047 13.4001C6.12385 13.4001 5.29454 13.2334 4.51676 12.9001C3.73899 12.5668 3.05843 12.1084 2.4751 11.5251C1.89176 10.9418 1.43343 10.2614 1.1001 9.48413C0.766764 8.70681 0.600098 7.87625 0.600098 6.99246C0.600098 6.10866 0.766764 5.28065 1.1001 4.50843C1.43343 3.73621 1.89176 3.05843 2.4751 2.4751C3.05843 1.89176 3.73875 1.43343 4.51606 1.1001C5.29339 0.766764 6.12394 0.600098 7.00773 0.600098C7.89153 0.600098 8.71954 0.766764 9.49177 1.1001C10.264 1.43343 10.9418 1.89176 11.5251 2.4751C12.1084 3.05843 12.5668 3.73745 12.9001 4.51216C13.2334 5.28689 13.4001 6.11466 13.4001 6.9955C13.4001 7.87634 13.2334 8.70565 12.9001 9.48343C12.5668 10.2612 12.1084 10.9418 11.5251 11.5251C10.9418 12.1084 10.2627 12.5668 9.48803 12.9001C8.71331 13.2334 7.88553 13.4001 7.0047 13.4001Z" fill="#8D8D8D"/>
</svg>
