<svg width="16" height="16" viewBox="0 0 16 16" fill="none" xmlns="http://www.w3.org/2000/svg">
<path d="M7.99585 11.5998C8.18599 11.5998 8.34668 11.5351 8.47793 11.4057C8.60918 11.2764 8.67481 11.1161 8.67481 10.9248V7.77481C8.67481 7.58355 8.6105 7.42324 8.48189 7.29387C8.35326 7.16449 8.19389 7.0998 8.00376 7.0998C7.81362 7.0998 7.65293 7.16449 7.52168 7.29387C7.39043 7.42324 7.3248 7.58355 7.3248 7.77481V10.9248C7.3248 11.1161 7.38911 11.2764 7.51772 11.4057C7.64635 11.5351 7.80572 11.5998 7.99585 11.5998ZM7.99585 5.7498C8.18599 5.7498 8.34668 5.6855 8.47793 5.55689C8.60918 5.42826 8.67481 5.26889 8.67481 5.07876C8.67481 4.88862 8.6105 4.72793 8.48189 4.59668C8.35326 4.46543 8.19389 4.3998 8.00376 4.3998C7.81362 4.3998 7.65293 4.46411 7.52168 4.59272C7.39043 4.72135 7.3248 4.88072 7.3248 5.07085C7.3248 5.26099 7.38911 5.42168 7.51772 5.55293C7.64635 5.68418 7.80572 5.7498 7.99585 5.7498ZM8.00498 15.1998C7.01403 15.1998 6.08106 15.0123 5.20606 14.6373C4.33105 14.2623 3.56543 13.7467 2.90918 13.0904C2.25293 12.4342 1.7373 11.6688 1.3623 10.7943C0.987305 9.91986 0.799805 8.98548 0.799805 7.99122C0.799805 6.99694 0.987305 6.06543 1.3623 5.19668C1.7373 4.32793 2.25293 3.56543 2.90918 2.90918C3.56543 2.25293 4.33079 1.7373 5.20527 1.3623C6.07975 0.987305 7.01413 0.799805 8.00839 0.799805C9.00267 0.799805 9.93418 0.987305 10.8029 1.3623C11.6717 1.7373 12.4342 2.25293 13.0904 2.90918C13.7467 3.56543 14.2623 4.32933 14.6373 5.20088C15.0123 6.07244 15.1998 7.00369 15.1998 7.99463C15.1998 8.98558 15.0123 9.91856 14.6373 10.7936C14.2623 11.6686 13.7467 12.4342 13.0904 13.0904C12.4342 13.7467 11.6703 14.2623 10.7987 14.6373C9.92717 15.0123 8.99592 15.1998 8.00498 15.1998Z" fill="url(#paint0_linear_415_159)"/>
<defs>
<linearGradient id="paint0_linear_415_159" x1="7.9998" y1="15.1998" x2="7.9998" y2="4.39981" gradientUnits="userSpaceOnUse">
<stop/>
<stop offset="1" stop-color="#2D2D2D"/>
</linearGradient>
</defs>
</svg>
