<svg width="11" height="16" viewBox="0 0 11 16" fill="none" xmlns="http://www.w3.org/2000/svg">
<path d="M10.8661 7.8413L3.86608 15.3413C3.79189 15.4205 3.69398 15.4734 3.5871 15.492C3.48022 15.5106 3.37019 15.494 3.27359 15.4446C3.177 15.3952 3.09909 15.3157 3.05162 15.2182C3.00415 15.1206 2.9897 15.0103 3.01045 14.9038L3.9267 10.3207L0.324825 8.96818C0.24747 8.93924 0.178487 8.8916 0.12404 8.8295C0.0695919 8.7674 0.0313755 8.69277 0.0128044 8.6123C-0.00576672 8.53183 -0.00411393 8.448 0.0176149 8.36832C0.0393438 8.28864 0.0804719 8.21559 0.137325 8.15568L7.13733 0.655679C7.21151 0.576514 7.30942 0.523624 7.4163 0.50499C7.52318 0.486356 7.63321 0.502989 7.72981 0.55238C7.8264 0.601771 7.90431 0.681239 7.95178 0.778793C7.99925 0.876346 8.0137 0.986692 7.99295 1.09318L7.0742 5.6813L10.6761 7.03193C10.7529 7.06106 10.8213 7.10865 10.8753 7.17051C10.9293 7.23236 10.9673 7.30657 10.9858 7.38658C11.0044 7.46658 11.0029 7.54992 10.9816 7.62923C10.9603 7.70854 10.9197 7.78138 10.8636 7.8413H10.8661Z" fill="#878787"/>
</svg>
