<svg width="11" height="15" viewBox="0 0 11 15" fill="none" xmlns="http://www.w3.org/2000/svg">
<path d="M10.8661 7.34375L3.86608 14.8437C3.79189 14.9229 3.69398 14.9758 3.5871 14.9944C3.48022 15.0131 3.37019 14.9964 3.27359 14.947C3.177 14.8977 3.09909 14.8182 3.05162 14.7206C3.00415 14.6231 2.9897 14.5127 3.01045 14.4062L3.9267 9.82312L0.324825 8.47062C0.24747 8.44169 0.178487 8.39404 0.12404 8.33194C0.0695919 8.26984 0.0313755 8.19522 0.0128044 8.11474C-0.00576672 8.03427 -0.00411393 7.95044 0.0176149 7.87076C0.0393438 7.79108 0.0804719 7.71803 0.137325 7.65812L7.13733 0.15812C7.21151 0.0789551 7.30942 0.026065 7.4163 0.00743103C7.52318 -0.0112029 7.63321 0.00543054 7.72981 0.0548213C7.8264 0.104212 7.90431 0.18368 7.95178 0.281234C7.99925 0.378788 8.0137 0.489134 7.99295 0.59562L7.0742 5.18375L10.6761 6.53437C10.7529 6.5635 10.8213 6.61109 10.8753 6.67295C10.9293 6.7348 10.9673 6.80901 10.9858 6.88902C11.0044 6.96903 11.0029 7.05236 10.9816 7.13167C10.9603 7.21098 10.9197 7.28382 10.8636 7.34375H10.8661Z" fill="url(#paint0_linear_104_46)"/>
<defs>
<linearGradient id="paint0_linear_104_46" x1="5.5" y1="4.00244" x2="4" y2="7.50244" gradientUnits="userSpaceOnUse">
<stop stop-color="#FBFDFF"/>
<stop offset="1" stop-color="#A2D8FF"/>
</linearGradient>
</defs>
</svg>
