<svg width="83" height="71" viewBox="0 0 83 71" fill="none" xmlns="http://www.w3.org/2000/svg">
<g filter="url(#filter0_d_447_206)">
<path d="M65.8765 31.6917L69.6232 10.1646C69.7704 9.31925 68.8544 8.69334 68.1203 9.13765L49.0658 20.6698C48.1999 21.1939 48.5714 22.5253 49.5836 22.5253H59.2719C59.6713 22.5253 60.0324 22.763 60.1903 23.1299L63.9728 31.9157C64.3659 32.8288 65.706 32.6711 65.8765 31.6917Z" fill="#9747FF"/>
<path d="M70.6084 10.3361L66.8617 31.8632C66.5208 33.822 63.8406 34.1373 63.0543 32.3111L59.2719 23.5253H49.5836C47.5592 23.5253 46.8162 20.8625 48.5481 19.8143L67.6025 8.28213C69.0707 7.39353 70.9027 8.64533 70.6084 10.3361Z" stroke="white" stroke-width="2" stroke-linejoin="round"/>
</g>
<g filter="url(#filter1_d_447_206)">
<path d="M54 33.0588C54 32.0717 54 31.5781 53.8296 31.1922C53.6282 30.7361 53.2639 30.3718 52.8078 30.1704C52.4219 30 51.9283 30 50.9412 30H24C16.8203 30 11 35.8203 11 43C11 50.1797 16.8203 56 24 56H36.0833C38.7928 56 40.1476 56 41.2818 55.8254C47.7523 54.8295 52.8295 49.7523 53.8254 43.2818C54 42.1476 54 40.7928 54 38.0833V33.0588Z" fill="#9747FF"/>
<path d="M21.616 48V46.46H22.218C22.6847 46.46 23.058 46.3247 23.338 46.054C23.618 45.774 23.758 45.4007 23.758 44.934V37.57H25.396V44.878C25.396 45.5127 25.2653 46.0633 25.004 46.53C24.752 46.9967 24.3833 47.3607 23.898 47.622C23.422 47.874 22.862 48 22.218 48H21.616ZM26.3356 48L30.0036 37.57H32.0476L35.7156 48H33.9516L33.1536 45.662H28.9116L28.0996 48H26.3356ZM29.3876 44.192H32.6496L30.8016 38.732H31.2636L29.3876 44.192ZM38.6146 48V43.296L35.0446 37.57H36.9066L39.7626 42.204H39.1046L41.9466 37.57H43.8086L40.2526 43.296V48H38.6146Z" fill="white"/>
</g>
<defs>
<filter id="filter0_d_447_206" x="35.8786" y="0.285352" width="46.462" height="48.9356" filterUnits="userSpaceOnUse" color-interpolation-filters="sRGB">
<feFlood flood-opacity="0" result="BackgroundImageFix"/>
<feColorMatrix in="SourceAlpha" type="matrix" values="0 0 0 0 0 0 0 0 0 0 0 0 0 0 0 0 0 0 127 0" result="hardAlpha"/>
<feOffset dy="4"/>
<feGaussianBlur stdDeviation="5.35"/>
<feComposite in2="hardAlpha" operator="out"/>
<feColorMatrix type="matrix" values="0 0 0 0 0 0 0 0 0 0 0 0 0 0 0 0 0 0 0.19 0"/>
<feBlend mode="normal" in2="BackgroundImageFix" result="effect1_dropShadow_447_206"/>
<feBlend mode="normal" in="SourceGraphic" in2="effect1_dropShadow_447_206" result="shape"/>
</filter>
<filter id="filter1_d_447_206" x="0.3" y="23.3" width="64.4" height="47.4" filterUnits="userSpaceOnUse" color-interpolation-filters="sRGB">
<feFlood flood-opacity="0" result="BackgroundImageFix"/>
<feColorMatrix in="SourceAlpha" type="matrix" values="0 0 0 0 0 0 0 0 0 0 0 0 0 0 0 0 0 0 127 0" result="hardAlpha"/>
<feOffset dy="4"/>
<feGaussianBlur stdDeviation="5.35"/>
<feComposite in2="hardAlpha" operator="out"/>
<feColorMatrix type="matrix" values="0 0 0 0 0 0 0 0 0 0 0 0 0 0 0 0 0 0 0.19 0"/>
<feBlend mode="normal" in2="BackgroundImageFix" result="effect1_dropShadow_447_206"/>
<feBlend mode="normal" in="SourceGraphic" in2="effect1_dropShadow_447_206" result="shape"/>
</filter>
</defs>
</svg>
