<svg width="80" height="44" viewBox="0 0 80 44" fill="none" xmlns="http://www.w3.org/2000/svg">
<g filter="url(#filter0_ddii_447_333)">
<path d="M34.3333 16.6664C33.347 16.6664 32.5459 16.2968 31.9302 15.5575C31.3144 14.8182 31.0962 13.9784 31.2757 13.0383L32.3013 6.78842C32.6603 4.80553 33.5983 3.17841 35.1154 1.90708C36.6325 0.63569 38.3742 0 40.3406 0C42.3528 0 44.1174 0.63569 45.6344 1.90708C47.1515 3.17841 48.0896 4.80553 48.4485 6.78842L49.4742 13.0383C49.6536 13.9784 49.4354 14.8182 48.8197 15.5575C48.2039 16.2968 47.4028 16.6664 46.4165 16.6664H34.3333ZM12.6897 21.4052C11.7042 21.434 10.8486 21.2377 10.1229 20.8163C9.39714 20.3949 8.92753 19.7316 8.71408 18.8264C8.61408 18.4291 8.60575 18.0403 8.68908 17.66C8.77242 17.2797 8.88675 16.9036 9.03208 16.5318C9.03208 16.5756 9.00431 16.488 8.94875 16.269C8.90597 16.2134 8.69358 15.7032 8.31158 14.7384C8.21069 14.2161 8.25595 13.7444 8.44733 13.3235C8.63867 12.9026 8.92331 12.5041 9.30125 12.128C9.32264 12.128 9.36753 12.0831 9.43592 11.9934C9.53231 11.181 9.86856 10.5056 10.4447 9.96741C11.0208 9.42919 11.7401 9.16008 12.6025 9.16008C12.6153 9.16008 13.0107 9.22205 13.7888 9.346L13.9936 9.29466C14.2073 9.1045 14.4811 8.948 14.8151 8.82516C15.1491 8.70228 15.486 8.64083 15.8258 8.64083C16.2938 8.64083 16.7176 8.72203 17.0972 8.88442C17.4768 9.0468 17.7768 9.27944 17.9971 9.58233C18.0369 9.58233 18.0667 9.59317 18.0866 9.61483C18.1065 9.63644 18.1363 9.64725 18.1761 9.64725C18.7599 9.69586 19.2746 9.87633 19.7203 10.1887C20.1659 10.5009 20.5091 10.9387 20.7499 11.5019C20.8183 11.8196 20.8439 12.1091 20.8268 12.3705C20.8097 12.6319 20.7563 12.8865 20.6666 13.1344C20.6666 13.2241 20.6944 13.3075 20.7499 13.3844C21.0442 13.6834 21.2716 14.0084 21.4322 14.3592C21.5927 14.7101 21.6729 15.0839 21.6729 15.4805C21.6729 15.5489 21.5554 15.9901 21.3204 16.8041C21.2862 16.8671 21.2862 16.9623 21.3204 17.0895C21.3973 17.3117 21.4251 17.6472 21.4038 18.0959C21.4038 18.9715 21.0282 19.7419 20.2772 20.4072C19.5262 21.0725 18.6341 21.4052 17.6008 21.4052H12.6897ZM66.6798 21.442C65.2778 21.442 64.0768 20.9387 63.0768 19.9321C62.0768 18.9255 61.5768 17.7134 61.5768 16.2957C61.5768 15.8036 61.665 15.3263 61.8413 14.864C62.0177 14.4017 62.2201 13.9684 62.4486 13.5639L60.6318 11.9822C60.2234 11.6051 60.1484 11.1761 60.4069 10.6953C60.6654 10.2146 61.0399 9.97416 61.5304 9.97416H66.6598C68.0728 9.97416 69.2776 10.4744 70.2742 11.4748C71.2707 12.4752 71.769 13.6799 71.769 15.0888V16.3434C71.769 17.7425 71.2713 18.9421 70.2758 19.942C69.2804 20.942 68.0817 21.442 66.6798 21.442ZM2 34.2945V30.8394C2 28.7752 3.1085 27.0936 5.3255 25.7945C7.5425 24.4954 10.4197 23.8458 13.9572 23.8458C14.5892 23.8458 15.2063 23.8651 15.8084 23.9036C16.4105 23.942 16.985 24.0092 17.532 24.1052C17.1517 24.9579 16.8611 25.8361 16.6603 26.7398C16.4594 27.6434 16.359 28.5943 16.359 29.5926V34.2945H2ZM22 34.2945V29.7113C22 26.5275 23.6941 23.9741 27.0823 22.051C30.4705 20.1279 34.8904 19.1664 40.3421 19.1664C45.8447 19.1664 50.2744 20.1279 53.6313 22.051C56.9881 23.9741 58.6665 26.5275 58.6665 29.7113V34.2945H22ZM66.7755 23.8458C70.361 23.8458 73.2391 24.4954 75.4101 25.7945C77.581 27.0936 78.6665 28.7752 78.6665 30.8394V34.2945H64.3075V29.5926C64.3075 28.5943 64.221 27.6434 64.0479 26.7398C63.8749 25.8361 63.5875 24.9579 63.1858 24.1052C63.7541 24.0092 64.3399 23.942 64.9432 23.9036C65.5464 23.8651 66.1572 23.8458 66.7755 23.8458Z" fill="url(#paint0_linear_447_333)"/>
</g>
<defs>
<filter id="filter0_ddii_447_333" x="-2.84848" y="-3.63636" width="86.3635" height="47.6278" filterUnits="userSpaceOnUse" color-interpolation-filters="sRGB">
<feFlood flood-opacity="0" result="BackgroundImageFix"/>
<feColorMatrix in="SourceAlpha" type="matrix" values="0 0 0 0 0 0 0 0 0 0 0 0 0 0 0 0 0 0 127 0" result="hardAlpha"/>
<feOffset dy="4.84848"/>
<feGaussianBlur stdDeviation="2.42424"/>
<feComposite in2="hardAlpha" operator="out"/>
<feColorMatrix type="matrix" values="0 0 0 0 0.847059 0 0 0 0 0.72549 0 0 0 0 1 0 0 0 0.44 0"/>
<feBlend mode="normal" in2="BackgroundImageFix" result="effect1_dropShadow_447_333"/>
<feColorMatrix in="SourceAlpha" type="matrix" values="0 0 0 0 0 0 0 0 0 0 0 0 0 0 0 0 0 0 127 0" result="hardAlpha"/>
<feOffset dy="1.21212"/>
<feGaussianBlur stdDeviation="0.606061"/>
<feComposite in2="hardAlpha" operator="out"/>
<feColorMatrix type="matrix" values="0 0 0 0 0 0 0 0 0 0 0 0 0 0 0 0 0 0 0.3 0"/>
<feBlend mode="normal" in2="effect1_dropShadow_447_333" result="effect2_dropShadow_447_333"/>
<feBlend mode="normal" in="SourceGraphic" in2="effect2_dropShadow_447_333" result="shape"/>
<feColorMatrix in="SourceAlpha" type="matrix" values="0 0 0 0 0 0 0 0 0 0 0 0 0 0 0 0 0 0 127 0" result="hardAlpha"/>
<feOffset dy="1.21212"/>
<feGaussianBlur stdDeviation="3.33333"/>
<feComposite in2="hardAlpha" operator="arithmetic" k2="-1" k3="1"/>
<feColorMatrix type="matrix" values="0 0 0 0 0.85098 0 0 0 0 0.733333 0 0 0 0 1 0 0 0 1 0"/>
<feBlend mode="normal" in2="shape" result="effect3_innerShadow_447_333"/>
<feColorMatrix in="SourceAlpha" type="matrix" values="0 0 0 0 0 0 0 0 0 0 0 0 0 0 0 0 0 0 127 0" result="hardAlpha"/>
<feOffset dy="-3.63636"/>
<feGaussianBlur stdDeviation="2.42424"/>
<feComposite in2="hardAlpha" operator="arithmetic" k2="-1" k3="1"/>
<feColorMatrix type="matrix" values="0 0 0 0 1 0 0 0 0 1 0 0 0 0 1 0 0 0 0.74 0"/>
<feBlend mode="normal" in2="effect3_innerShadow_447_333" result="effect4_innerShadow_447_333"/>
</filter>
<linearGradient id="paint0_linear_447_333" x1="40.3333" y1="0" x2="40.3333" y2="34.2945" gradientUnits="userSpaceOnUse">
<stop stop-color="white"/>
<stop offset="1" stop-color="#D6B7FF"/>
</linearGradient>
</defs>
</svg>
