<svg width="60" height="60" viewBox="0 0 60 60" fill="none" xmlns="http://www.w3.org/2000/svg">
<rect x="1.01981" y="0.92618" width="57.4292" height="57.4292" rx="5.82615" fill="black"/>
<rect x="1.01981" y="0.92618" width="57.4292" height="57.4292" rx="5.82615" stroke="black" stroke-width="1.66462"/>
<rect x="1.01981" y="0.92618" width="52.4354" height="52.4354" rx="5.82615" fill="white"/>
<rect x="1.01981" y="0.92618" width="52.4354" height="52.4354" rx="5.82615" stroke="black" stroke-width="1.66462"/>
<path d="M21.3818 26.3199C23.5694 23.2395 26.1141 19.6234 28.4355 19.6234C30.0427 19.6234 31.3374 21.2752 29.9088 26.052L26.9623 35.829C25.8908 39.4897 26.5158 40.2487 27.2748 40.2487C28.123 40.2487 29.0605 38.954 30.6677 36.6772H31.0695C28.882 39.8469 26.3819 43.3737 24.1944 43.3737C22.6319 43.3737 21.2033 41.588 22.8997 35.8736L25.8908 25.7395C26.6498 23.1948 26.1141 22.4805 25.489 22.4805C24.4622 22.4805 23.3908 23.9984 21.7836 26.3199H21.3818ZM28.4802 14.534C28.4802 12.9715 29.6409 11.9 31.1588 11.9C32.6767 11.9 33.7035 12.9715 33.7035 14.4447C33.7035 16.0072 32.5427 17.0787 30.9356 17.0787C29.507 17.0787 28.4802 16.0519 28.4802 14.534Z" fill="url(#paint0_linear_447_1617)"/>
<defs>
<linearGradient id="paint0_linear_447_1617" x1="23.0762" y1="24.2307" x2="21.8624" y2="38.4071" gradientUnits="userSpaceOnUse">
<stop/>
<stop offset="0.115347" stop-color="#70570B"/>
<stop offset="0.181981" stop-color="#B08911"/>
<stop offset="0.35927" stop-color="#FFC619"/>
<stop offset="0.62876" stop-color="#FF78B9"/>
<stop offset="0.852275" stop-color="#EB459F"/>
<stop offset="1" stop-color="#9747FF"/>
</linearGradient>
</defs>
</svg>
