<svg width="102" height="27" viewBox="0 0 102 27" fill="none" xmlns="http://www.w3.org/2000/svg">
<g filter="url(#filter0_b_415_368)">
<rect x="0.975586" y="0.97522" width="100.466" height="25.8015" rx="5.82615" fill="#0ACF83" fill-opacity="0.2"/>
<path d="M11.357 16.994C10.1622 16.994 9.39003 16.2665 9.38597 15.1367H10.4995C10.5117 15.6284 10.849 15.9495 11.3408 15.9495C11.8772 15.9495 12.1698 15.6244 12.1698 15.027V12.0034H10.0647V11.0117H13.328V15.0432C13.328 16.2746 12.5965 16.994 11.357 16.994ZM18.9242 14.393C18.9242 16.0227 18.0748 16.994 16.6687 16.994C15.2625 16.994 14.4131 16.0227 14.4131 14.393V13.4948C14.4131 11.8652 15.2625 10.8939 16.6687 10.8939C18.0748 10.8939 18.9242 11.8652 18.9242 13.4948V14.393ZM16.6687 15.9698C17.3758 15.9698 17.7497 15.4374 17.7497 14.3808V13.507C17.7497 12.4504 17.3758 11.918 16.6687 11.918C15.9615 11.918 15.5876 12.4504 15.5876 13.507V14.3808C15.5876 15.4374 15.9615 15.9698 16.6687 15.9698ZM21.8137 15.9536C22.4721 15.9536 22.8378 15.5187 22.8378 14.7303V11.0117H23.9961V14.7994C23.9961 16.1812 23.1873 16.994 21.8137 16.994C20.4401 16.994 19.6313 16.1812 19.6313 14.7994V11.0117H20.7896V14.7303C20.7896 15.5187 21.1553 15.9536 21.8137 15.9536ZM26.9546 14.7181H26.1175V16.8761H24.9674V11.0117H27.0969C28.373 11.0117 29.1533 11.7189 29.1533 12.8812C29.1533 13.6412 28.7509 14.2751 28.1129 14.5271L29.2874 16.8761H27.9869L26.9546 14.7181ZM26.1175 11.9546V13.8322H26.9343C27.5886 13.8322 27.9788 13.4786 27.9788 12.8852C27.9788 12.3041 27.5968 11.9546 26.9465 11.9546H26.1175ZM31.0471 16.8761H30.0474V11.0117H31.0755L33.0913 14.9091H33.1604V11.0117H34.1601V16.8761H33.136L31.1162 12.9543H31.0471V16.8761ZM39.1792 15.8804V16.8761H35.4809V11.0117H39.1792V12.0074H36.6392V13.4501H39.0288V14.3727H36.6392V15.8804H39.1792ZM42.9709 16.8761H41.8167V14.71L39.9351 11.0117H41.1827L42.3572 13.5111H42.4304L43.6049 11.0117H44.8525L42.9709 14.71V16.8761ZM50.4974 15.2342H51.5866C51.6394 15.7422 52.0539 16.0349 52.7204 16.0349C53.3544 16.0349 53.7567 15.73 53.7567 15.2546C53.7567 14.8563 53.4966 14.645 52.818 14.4946L52.2084 14.3524C51.1477 14.1126 50.6275 13.5517 50.6275 12.682C50.6275 11.5888 51.4362 10.8939 52.7042 10.8939C53.9315 10.8939 54.7565 11.5807 54.7931 12.6292H53.7039C53.6592 12.1456 53.2894 11.8489 52.7164 11.8489C52.1352 11.8489 51.7735 12.1212 51.7735 12.5601C51.7735 12.9747 52.0336 13.2022 52.6676 13.3404L53.2691 13.4786C54.4029 13.7306 54.8987 14.2386 54.8987 15.1367C54.8987 16.2949 54.0697 16.994 52.7001 16.994C51.3712 16.994 50.5381 16.3315 50.4974 15.2342ZM58.406 16.8761H57.2518V12.0074H55.5734V11.0117H60.0844V12.0074H58.406V16.8761ZM64.1687 16.8761L63.803 15.4415H62.0595L61.6856 16.8761H60.5314L62.2912 11.0117H63.6567L65.4164 16.8761H64.1687ZM62.9089 12.1619L62.2912 14.5393H63.5713L62.9617 12.1619H62.9089ZM68.1149 14.7181H67.2777V16.8761H66.1276V11.0117H68.2571C69.5332 11.0117 70.3135 11.7189 70.3135 12.8812C70.3135 13.6412 69.9112 14.2751 69.2731 14.5271L70.4476 16.8761H69.1471L68.1149 14.7181ZM67.2777 11.9546V13.8322H68.0945C68.7489 13.8322 69.139 13.4786 69.139 12.8852C69.139 12.3041 68.757 11.9546 68.1067 11.9546H67.2777ZM73.841 16.8761H72.6869V12.0074H71.0084V11.0117H75.5195V12.0074H73.841V16.8761ZM76.2226 15.2342H77.3117C77.3645 15.7422 77.7791 16.0349 78.4456 16.0349C79.0795 16.0349 79.4819 15.73 79.4819 15.2546C79.4819 14.8563 79.2218 14.645 78.5431 14.4946L77.9335 14.3524C76.8728 14.1126 76.3526 13.5517 76.3526 12.682C76.3526 11.5888 77.1613 10.8939 78.4293 10.8939C79.6566 10.8939 80.4816 11.5807 80.5182 12.6292H79.429C79.3843 12.1456 79.0145 11.8489 78.4415 11.8489C77.8603 11.8489 77.4986 12.1212 77.4986 12.5601C77.4986 12.9747 77.7587 13.2022 78.3927 13.3404L78.9942 13.4786C80.1281 13.7306 80.6239 14.2386 80.6239 15.1367C80.6239 16.2949 79.7948 16.994 78.4252 16.994C77.0963 16.994 76.2632 16.3315 76.2226 15.2342Z" fill="#09C67D"/>
<mask id="mask0_415_368" style="mask-type:alpha" maskUnits="userSpaceOnUse" x="84" y="9" width="10" height="10">
<rect x="84.7954" y="9.29846" width="9.15539" height="9.15539" fill="#D9D9D9"/>
</mask>
<g mask="url(#mask0_415_368)">
<path d="M86.6198 13.7807L85.6947 12.8556C85.6248 12.788 85.5898 12.7091 85.5898 12.6189C85.5898 12.5287 85.6248 12.4487 85.6947 12.3787L86.6198 11.4537C86.6874 11.3837 86.7663 11.3488 86.8565 11.3488C86.9467 11.3488 87.0267 11.3837 87.0967 11.4537L88.0217 12.3787C88.0917 12.4464 88.1266 12.5253 88.1266 12.6154C88.1266 12.7056 88.0917 12.7856 88.0217 12.8556L87.0967 13.7807C87.029 13.8506 86.9501 13.8856 86.86 13.8856C86.7698 13.8856 86.6898 13.8506 86.6198 13.7807ZM88.5749 17.5382C88.4776 17.5382 88.3961 17.5053 88.3303 17.4395C88.2645 17.3737 88.2316 17.2921 88.2316 17.1949V15.6594C87.9264 15.6403 87.626 15.6038 87.3303 15.5497C87.0347 15.4957 86.7374 15.4337 86.4386 15.3638C86.3433 15.3383 86.2686 15.2827 86.2145 15.1969C86.1605 15.1111 86.1493 15.022 86.1811 14.9299C86.2129 14.8377 86.2717 14.7709 86.3576 14.7296C86.4434 14.6882 86.5385 14.6803 86.643 14.7057C87.0917 14.8138 87.5444 14.8901 88.0011 14.9346C88.4579 14.9791 88.9162 15.0014 89.376 15.0014C89.8379 15.0014 90.2983 14.9791 90.7572 14.9346C91.216 14.8901 91.6698 14.8138 92.1185 14.7057C92.2229 14.6803 92.3181 14.6882 92.4039 14.7296C92.4898 14.7709 92.5486 14.8377 92.5804 14.9299C92.6122 15.022 92.601 15.1111 92.547 15.1969C92.4929 15.2827 92.4182 15.3383 92.3229 15.3638C92.024 15.4337 91.7252 15.4957 91.4264 15.5497C91.1276 15.6038 90.8256 15.6403 90.5204 15.6594V17.1949C90.5204 17.2921 90.4875 17.3737 90.4217 17.4395C90.3559 17.5053 90.2743 17.5382 90.1771 17.5382H88.5749ZM89.376 12.0449C89.0581 12.0449 88.7879 11.9337 88.5653 11.7112C88.3428 11.4886 88.2316 11.2184 88.2316 10.9005C88.2316 10.5826 88.3428 10.3124 88.5653 10.0899C88.7879 9.86737 89.0581 9.7561 89.376 9.7561C89.6939 9.7561 89.9641 9.86737 90.1866 10.0899C90.4091 10.3124 90.5204 10.5826 90.5204 10.9005C90.5204 11.2184 90.4091 11.4886 90.1866 11.7112C89.9641 11.9337 89.6939 12.0449 89.376 12.0449ZM89.374 14.5627C89.1846 14.5627 89.0231 14.4952 88.8896 14.3604C88.7561 14.2255 88.6893 14.0634 88.6893 13.874C88.6893 13.6846 88.7568 13.5232 88.8916 13.3896C89.0265 13.2561 89.1886 13.1894 89.378 13.1894C89.5674 13.1894 89.7288 13.2568 89.8624 13.3917C89.9959 13.5265 90.0626 13.6887 90.0626 13.878C90.0626 14.0674 89.9952 14.2289 89.8603 14.3624C89.7255 14.4959 89.5633 14.5627 89.374 14.5627ZM91.2071 13.4755L90.8065 12.7888C90.7747 12.7373 90.7588 12.6801 90.7588 12.6172C90.7588 12.5542 90.7747 12.497 90.8065 12.4455L91.2071 11.7588C91.2388 11.708 91.2808 11.6667 91.333 11.6349C91.3852 11.6031 91.4432 11.5872 91.507 11.5872H92.2899C92.3537 11.5872 92.4117 11.6031 92.4639 11.6349C92.5161 11.6667 92.5581 11.708 92.5899 11.7588L92.9904 12.4455C93.0222 12.497 93.0381 12.5542 93.0381 12.6172C93.0381 12.6801 93.0222 12.7373 92.9904 12.7888L92.5899 13.4755C92.5581 13.5263 92.5161 13.5677 92.4639 13.5995C92.4117 13.6312 92.3537 13.6471 92.2899 13.6471H91.507C91.4432 13.6471 91.3852 13.6312 91.333 13.5995C91.2808 13.5677 91.2388 13.5263 91.2071 13.4755Z" fill="#09C67D"/>
</g>
</g>
<defs>
<filter id="filter0_b_415_368" x="-6.51518" y="-6.51555" width="115.448" height="40.7831" filterUnits="userSpaceOnUse" color-interpolation-filters="sRGB">
<feFlood flood-opacity="0" result="BackgroundImageFix"/>
<feGaussianBlur in="BackgroundImageFix" stdDeviation="3.74538"/>
<feComposite in2="SourceAlpha" operator="in" result="effect1_backgroundBlur_415_368"/>
<feBlend mode="normal" in="SourceGraphic" in2="effect1_backgroundBlur_415_368" result="shape"/>
</filter>
</defs>
</svg>
