<svg width="60" height="60" viewBox="0 0 60 60" fill="none" xmlns="http://www.w3.org/2000/svg">
<rect x="1.01981" y="0.832308" width="57.4292" height="57.4292" rx="5.82615" fill="black"/>
<rect x="1.01981" y="0.832308" width="57.4292" height="57.4292" rx="5.82615" stroke="black" stroke-width="1.66462"/>
<rect x="1.01981" y="0.832308" width="52.4354" height="52.4354" rx="5.82615" fill="white"/>
<rect x="1.01981" y="0.832308" width="52.4354" height="52.4354" rx="5.82615" stroke="black" stroke-width="1.66462"/>
<path d="M11.8398 37.3782V33.0653C11.8398 32.2507 12.1214 31.5678 12.6844 31.0167C13.2475 30.4656 13.9244 30.1901 14.7151 30.1901H19.4233C19.9025 30.1901 20.3578 30.3099 20.789 30.5495C21.2203 30.7891 21.5678 31.1125 21.8313 31.5199C22.5262 32.4543 23.3828 33.1851 24.4011 33.7122C25.4194 34.2394 26.5036 34.5029 27.6537 34.5029C28.8277 34.5029 29.9239 34.2394 30.9423 33.7122C31.9606 33.1851 32.8052 32.4543 33.4761 31.5199C33.7875 31.1125 34.1529 30.7891 34.5722 30.5495C34.9916 30.3099 35.4288 30.1901 35.8841 30.1901H40.5923C41.4069 30.1901 42.0898 30.4656 42.6409 31.0167C43.192 31.5678 43.4675 32.2507 43.4675 33.0653V37.3782C43.4675 37.7855 43.3298 38.1269 43.0542 38.4025C42.7787 38.678 42.4372 38.8158 42.0299 38.8158H34.8418C34.4345 38.8158 34.093 38.678 33.8175 38.4025C33.542 38.1269 33.4042 37.7855 33.4042 37.3782V35.5452C32.5656 36.1442 31.6611 36.5995 30.6907 36.911C29.7203 37.2224 28.7079 37.3782 27.6537 37.3782C26.6234 37.3782 25.6171 37.2164 24.6347 36.893C23.6523 36.5695 22.7418 36.1083 21.9032 35.5093V37.3782C21.9032 37.7855 21.7654 38.1269 21.4899 38.4025C21.2143 38.678 20.8729 38.8158 20.4656 38.8158H13.2775C12.8701 38.8158 12.5287 38.678 12.2532 38.4025C11.9776 38.1269 11.8398 37.7855 11.8398 37.3782ZM27.6537 33.0653C26.7432 33.0653 25.8806 32.8557 25.066 32.4364C24.2513 32.017 23.5684 31.436 23.0174 30.6932C22.61 30.0942 22.1009 29.621 21.4899 29.2736C20.8789 28.9262 20.214 28.7524 19.4952 28.7524C20.0223 27.8659 21.1365 27.1651 22.8377 26.6499C24.5388 26.1348 26.1442 25.8772 27.6537 25.8772C29.1632 25.8772 30.7685 26.1348 32.4697 26.6499C34.1709 27.1651 35.2851 27.8659 35.8122 28.7524C35.1173 28.7524 34.4584 28.9262 33.8355 29.2736C33.2125 29.621 32.6973 30.0942 32.29 30.6932C31.7629 31.46 31.092 32.047 30.2774 32.4543C29.4627 32.8616 28.5881 33.0653 27.6537 33.0653ZM16.1527 28.7524C14.9547 28.7524 13.9364 28.3331 13.0978 27.4945C12.2592 26.6559 11.8398 25.6376 11.8398 24.4396C11.8398 23.2176 12.2592 22.1933 13.0978 21.3667C13.9364 20.54 14.9547 20.1267 16.1527 20.1267C17.3747 20.1267 18.399 20.54 19.2256 21.3667C20.0523 22.1933 20.4656 23.2176 20.4656 24.4396C20.4656 25.6376 20.0523 26.6559 19.2256 27.4945C18.399 28.3331 17.3747 28.7524 16.1527 28.7524ZM39.1547 28.7524C37.9567 28.7524 36.9383 28.3331 36.0997 27.4945C35.2611 26.6559 34.8418 25.6376 34.8418 24.4396C34.8418 23.2176 35.2611 22.1933 36.0997 21.3667C36.9383 20.54 37.9567 20.1267 39.1547 20.1267C40.3766 20.1267 41.401 20.54 42.2276 21.3667C43.0542 22.1933 43.4675 23.2176 43.4675 24.4396C43.4675 25.6376 43.0542 26.6559 42.2276 27.4945C41.401 28.3331 40.3766 28.7524 39.1547 28.7524ZM27.6537 24.4396C26.4557 24.4396 25.4374 24.0203 24.5987 23.1817C23.7601 22.343 23.3408 21.3247 23.3408 20.1267C23.3408 18.9047 23.7601 17.8804 24.5987 17.0538C25.4374 16.2272 26.4557 15.8138 27.6537 15.8138C28.8757 15.8138 29.9 16.2272 30.7266 17.0538C31.5532 17.8804 31.9666 18.9047 31.9666 20.1267C31.9666 21.3247 31.5532 22.343 30.7266 23.1817C29.9 24.0203 28.8757 24.4396 27.6537 24.4396Z" fill="black"/>
<path d="M27.6546 33.0654C26.7441 33.0654 25.8815 32.8558 25.0669 32.4365C24.2522 32.0172 23.5694 31.4361 23.0183 30.6934C22.6109 30.0943 22.1018 29.6211 21.4908 29.2737C20.8798 28.9263 20.2149 28.7526 19.4961 28.7526C20.0232 27.866 21.1374 27.1652 22.8386 26.65C24.5398 26.1349 26.1451 25.8773 27.6546 25.8773C29.1641 25.8773 30.7694 26.1349 32.4706 26.65C34.1718 27.1652 35.286 27.866 35.8131 28.7526C35.1183 28.7526 34.4593 28.9263 33.8364 29.2737C33.2134 29.6211 32.6983 30.0943 32.2909 30.6934C31.7638 31.4601 31.0929 32.0471 30.2783 32.4544C29.4636 32.8618 28.5891 33.0654 27.6546 33.0654ZM27.6546 24.4397C26.4566 24.4397 25.4383 24.0204 24.5997 23.1818C23.761 22.3432 23.3417 21.3249 23.3417 20.1268C23.3417 18.9049 23.761 17.8805 24.5997 17.0539C25.4383 16.2273 26.4566 15.814 27.6546 15.814C28.8766 15.814 29.9009 16.2273 30.7275 17.0539C31.5542 17.8805 31.9675 18.9049 31.9675 20.1268C31.9675 21.3249 31.5542 22.3432 30.7275 23.1818C29.9009 24.0204 28.8766 24.4397 27.6546 24.4397Z" fill="url(#paint0_linear_447_1599)"/>
<defs>
<linearGradient id="paint0_linear_447_1599" x1="20.2741" y1="21.517" x2="32.7808" y2="30.5554" gradientUnits="userSpaceOnUse">
<stop stop-color="#FFE75C"/>
<stop offset="0.263138" stop-color="#FFC619"/>
<stop offset="0.62876" stop-color="#FF78B9"/>
<stop offset="0.852275" stop-color="#EB459F"/>
<stop offset="1" stop-color="#9747FF"/>
</linearGradient>
</defs>
</svg>
