<svg width="324" height="32" viewBox="0 0 324 32" fill="none" xmlns="http://www.w3.org/2000/svg">
<path d="M3.74951 31V1.19997H7.34951L18.5095 17.08H16.6695L27.7495 1.19997H31.3495V31H27.3895V6.15997L28.7895 6.59997L17.7095 22.2H17.3895L6.42951 6.59997L7.66951 6.15997V31H3.74951ZM45.7682 31.48C43.6882 31.48 41.8082 31 40.1282 30.04C38.4482 29.0533 37.1149 27.7067 36.1282 26C35.1416 24.2933 34.6482 22.36 34.6482 20.2C34.6482 18.04 35.1282 16.12 36.0882 14.44C37.0749 12.76 38.4082 11.4267 40.0882 10.44C41.7682 9.4533 43.6616 8.95997 45.7682 8.95997C47.8482 8.95997 49.7282 9.4533 51.4082 10.44C53.0882 11.4 54.4082 12.72 55.3682 14.4C56.3549 16.08 56.8482 18.0133 56.8482 20.2C56.8482 22.3867 56.3416 24.3333 55.3282 26.04C54.3149 27.72 52.9682 29.0533 51.2882 30.04C49.6349 31 47.7949 31.48 45.7682 31.48ZM45.7682 27.88C47.1016 27.88 48.3016 27.5467 49.3682 26.88C50.4616 26.2133 51.3149 25.2933 51.9282 24.12C52.5682 22.9467 52.8882 21.64 52.8882 20.2C52.8882 18.7333 52.5682 17.44 51.9282 16.32C51.3149 15.1733 50.4616 14.2667 49.3682 13.6C48.3016 12.9067 47.1016 12.56 45.7682 12.56C44.4082 12.56 43.1816 12.9067 42.0882 13.6C41.0216 14.2667 40.1682 15.1733 39.5282 16.32C38.8882 17.44 38.5682 18.7333 38.5682 20.2C38.5682 21.64 38.8882 22.9467 39.5282 24.12C40.1682 25.2933 41.0216 26.2133 42.0882 26.88C43.1816 27.5467 44.4082 27.88 45.7682 27.88ZM69.5001 31.48C67.4734 31.48 65.6468 30.9867 64.0201 30C62.4201 29.0133 61.1534 27.6667 60.2201 25.96C59.2868 24.2533 58.8201 22.3467 58.8201 20.24C58.8201 18.08 59.2868 16.16 60.2201 14.48C61.1534 12.7733 62.4201 11.4267 64.0201 10.44C65.6468 9.4533 67.4734 8.95997 69.5001 8.95997C71.2868 8.95997 72.8734 9.34664 74.2601 10.12C75.6468 10.8667 76.7401 11.88 77.5401 13.16L76.9401 14.08V0.719971H80.7001V31H77.0601V26.4L77.5401 27.04C76.7934 28.4533 75.7001 29.5467 74.2601 30.32C72.8468 31.0933 71.2601 31.48 69.5001 31.48ZM69.8201 27.88C71.1801 27.88 72.3934 27.5467 73.4601 26.88C74.5268 26.2133 75.3668 25.3067 75.9801 24.16C76.6201 22.9867 76.9401 21.68 76.9401 20.24C76.9401 18.7733 76.6201 17.4667 75.9801 16.32C75.3668 15.1467 74.5268 14.2267 73.4601 13.56C72.3934 12.8933 71.1801 12.56 69.8201 12.56C68.4868 12.56 67.2734 12.9067 66.1801 13.6C65.1134 14.2667 64.2734 15.1733 63.6601 16.32C63.0468 17.44 62.7401 18.7467 62.7401 20.24C62.7401 21.68 63.0468 22.9867 63.6601 24.16C64.2734 25.3067 65.1134 26.2133 66.1801 26.88C67.2468 27.5467 68.4601 27.88 69.8201 27.88ZM92.0979 31.48C90.5513 31.48 89.1513 31.12 87.8979 30.4C86.6713 29.68 85.7113 28.68 85.0179 27.4C84.3513 26.0933 84.0179 24.6 84.0179 22.92V9.43997H87.7379V22.52C87.7379 23.5867 87.9513 24.52 88.3779 25.32C88.8313 26.12 89.4446 26.7467 90.2179 27.2C91.0179 27.6533 91.9246 27.88 92.9379 27.88C93.9513 27.88 94.8446 27.6533 95.6179 27.2C96.4179 26.7467 97.0313 26.0933 97.4579 25.24C97.9113 24.3867 98.1379 23.3733 98.1379 22.2V9.43997H101.898V31H98.2579V26.8L98.8579 27.16C98.3513 28.52 97.4846 29.5867 96.2579 30.36C95.0579 31.1067 93.6713 31.48 92.0979 31.48ZM105.661 31V0.719971H109.381V31H105.661ZM123.073 31.48C120.993 31.48 119.14 30.9867 117.513 30C115.887 29.0133 114.607 27.6667 113.673 25.96C112.74 24.2267 112.273 22.2933 112.273 20.16C112.273 18 112.727 16.08 113.633 14.4C114.567 12.72 115.82 11.4 117.393 10.44C118.993 9.4533 120.78 8.95997 122.753 8.95997C124.353 8.95997 125.767 9.2533 126.993 9.83997C128.247 10.4 129.3 11.1733 130.153 12.16C131.033 13.12 131.7 14.2267 132.153 15.48C132.633 16.7067 132.873 17.9867 132.873 19.32C132.873 19.6133 132.847 19.9467 132.793 20.32C132.767 20.6667 132.727 21 132.673 21.32H114.993V18.12H130.513L128.753 19.56C128.993 18.1733 128.86 16.9333 128.353 15.84C127.847 14.7467 127.1 13.88 126.113 13.24C125.127 12.6 124.007 12.28 122.753 12.28C121.5 12.28 120.353 12.6 119.313 13.24C118.273 13.88 117.46 14.8 116.873 16C116.313 17.1733 116.087 18.5733 116.193 20.2C116.087 21.7733 116.327 23.16 116.913 24.36C117.527 25.5333 118.38 26.4533 119.473 27.12C120.593 27.76 121.807 28.08 123.113 28.08C124.553 28.08 125.767 27.7467 126.753 27.08C127.74 26.4133 128.54 25.56 129.153 24.52L132.273 26.12C131.847 27.1067 131.18 28.0133 130.273 28.84C129.393 29.64 128.34 30.28 127.113 30.76C125.913 31.24 124.567 31.48 123.073 31.48ZM143.444 31.48C141.284 31.48 139.404 30.9467 137.804 29.88C136.204 28.8133 135.07 27.3733 134.404 25.56L137.364 24.12C137.977 25.4 138.817 26.4133 139.884 27.16C140.95 27.9067 142.137 28.28 143.444 28.28C144.617 28.28 145.59 28 146.364 27.44C147.137 26.88 147.524 26.1467 147.524 25.24C147.524 24.6 147.337 24.0933 146.964 23.72C146.617 23.32 146.19 23.0133 145.684 22.8C145.177 22.56 144.71 22.3867 144.284 22.28L141.044 21.36C139.097 20.8 137.67 20 136.764 18.96C135.884 17.92 135.444 16.7067 135.444 15.32C135.444 14.04 135.764 12.9333 136.404 12C137.07 11.04 137.964 10.2933 139.084 9.75997C140.23 9.22664 141.51 8.95997 142.924 8.95997C144.817 8.95997 146.51 9.43997 148.004 10.4C149.524 11.36 150.604 12.7067 151.244 14.44L148.204 15.84C147.724 14.72 147.004 13.84 146.044 13.2C145.084 12.5333 144.004 12.2 142.804 12.2C141.71 12.2 140.844 12.48 140.204 13.04C139.564 13.5733 139.244 14.2533 139.244 15.08C139.244 15.6933 139.404 16.2 139.724 16.6C140.044 16.9733 140.43 17.2667 140.884 17.48C141.337 17.6667 141.777 17.8267 142.204 17.96L145.724 19C147.484 19.5067 148.844 20.2933 149.804 21.36C150.79 22.4267 151.284 23.7067 151.284 25.2C151.284 26.4 150.95 27.48 150.284 28.44C149.617 29.4 148.697 30.1467 147.524 30.68C146.35 31.2133 144.99 31.48 143.444 31.48Z" fill="black"/>
<path d="M173.228 31.48C171.121 31.48 169.174 31.1067 167.388 30.36C165.628 29.5867 164.081 28.5067 162.748 27.12C161.441 25.7333 160.428 24.1067 159.708 22.24C158.988 20.3733 158.628 18.3333 158.628 16.12C158.628 13.88 158.988 11.8267 159.708 9.95997C160.428 8.0933 161.441 6.46664 162.748 5.07997C164.054 3.6933 165.601 2.62663 167.388 1.87997C169.174 1.10664 171.121 0.719971 173.228 0.719971C175.281 0.719971 177.121 1.07997 178.748 1.79997C180.401 2.51997 181.788 3.4533 182.908 4.59997C184.054 5.74664 184.868 6.9733 185.348 8.27997L181.748 9.91997C181.054 8.26664 179.974 6.9333 178.508 5.91997C177.041 4.87997 175.281 4.35997 173.228 4.35997C171.148 4.35997 169.294 4.8533 167.668 5.83997C166.068 6.82664 164.814 8.19997 163.908 9.95997C163.001 11.72 162.548 13.7733 162.548 16.12C162.548 18.44 163.001 20.48 163.908 22.24C164.814 24 166.068 25.3733 167.668 26.36C169.294 27.3467 171.148 27.84 173.228 27.84C175.281 27.84 177.041 27.3333 178.508 26.32C179.974 25.28 181.054 23.9333 181.748 22.28L185.348 23.92C184.868 25.2267 184.054 26.4533 182.908 27.6C181.788 28.7467 180.401 29.68 178.748 30.4C177.121 31.12 175.281 31.48 173.228 31.48ZM198.089 31.48C196.009 31.48 194.129 31 192.449 30.04C190.769 29.0533 189.435 27.7067 188.449 26C187.462 24.2933 186.969 22.36 186.969 20.2C186.969 18.04 187.449 16.12 188.409 14.44C189.395 12.76 190.729 11.4267 192.409 10.44C194.089 9.4533 195.982 8.95997 198.089 8.95997C200.169 8.95997 202.049 9.4533 203.729 10.44C205.409 11.4 206.729 12.72 207.689 14.4C208.675 16.08 209.169 18.0133 209.169 20.2C209.169 22.3867 208.662 24.3333 207.649 26.04C206.635 27.72 205.289 29.0533 203.609 30.04C201.955 31 200.115 31.48 198.089 31.48ZM198.089 27.88C199.422 27.88 200.622 27.5467 201.689 26.88C202.782 26.2133 203.635 25.2933 204.249 24.12C204.889 22.9467 205.209 21.64 205.209 20.2C205.209 18.7333 204.889 17.44 204.249 16.32C203.635 15.1733 202.782 14.2667 201.689 13.6C200.622 12.9067 199.422 12.56 198.089 12.56C196.729 12.56 195.502 12.9067 194.409 13.6C193.342 14.2667 192.489 15.1733 191.849 16.32C191.209 17.44 190.889 18.7333 190.889 20.2C190.889 21.64 191.209 22.9467 191.849 24.12C192.489 25.2933 193.342 26.2133 194.409 26.88C195.502 27.5467 196.729 27.88 198.089 27.88ZM217.63 31L209.19 9.43997H213.35L220.11 27.68H218.67L225.47 9.43997H229.63L221.15 31H217.63ZM240.488 31.48C238.408 31.48 236.554 30.9867 234.928 30C233.301 29.0133 232.021 27.6667 231.088 25.96C230.154 24.2267 229.688 22.2933 229.688 20.16C229.688 18 230.141 16.08 231.048 14.4C231.981 12.72 233.234 11.4 234.808 10.44C236.408 9.4533 238.194 8.95997 240.168 8.95997C241.768 8.95997 243.181 9.2533 244.408 9.83997C245.661 10.4 246.714 11.1733 247.568 12.16C248.448 13.12 249.114 14.2267 249.568 15.48C250.048 16.7067 250.287 17.9867 250.287 19.32C250.287 19.6133 250.261 19.9467 250.208 20.32C250.181 20.6667 250.141 21 250.088 21.32H232.408V18.12H247.928L246.168 19.56C246.408 18.1733 246.274 16.9333 245.768 15.84C245.261 14.7467 244.514 13.88 243.528 13.24C242.541 12.6 241.421 12.28 240.168 12.28C238.914 12.28 237.768 12.6 236.728 13.24C235.688 13.88 234.874 14.8 234.288 16C233.728 17.1733 233.501 18.5733 233.608 20.2C233.501 21.7733 233.741 23.16 234.328 24.36C234.941 25.5333 235.794 26.4533 236.888 27.12C238.008 27.76 239.221 28.08 240.528 28.08C241.968 28.08 243.181 27.7467 244.168 27.08C245.154 26.4133 245.954 25.56 246.568 24.52L249.688 26.12C249.261 27.1067 248.594 28.0133 247.688 28.84C246.808 29.64 245.754 30.28 244.528 30.76C243.328 31.24 241.981 31.48 240.488 31.48ZM253.138 31V9.43997H256.778V13.4L256.378 12.84C256.884 11.6133 257.658 10.7067 258.698 10.12C259.738 9.50664 261.004 9.19997 262.498 9.19997H263.818V12.72H261.938C260.418 12.72 259.191 13.2 258.258 14.16C257.324 15.0933 256.858 16.4267 256.858 18.16V31H253.138ZM275.042 31.48C272.962 31.48 271.109 30.9867 269.482 30C267.856 29.0133 266.576 27.6667 265.642 25.96C264.709 24.2267 264.242 22.2933 264.242 20.16C264.242 18 264.696 16.08 265.602 14.4C266.536 12.72 267.789 11.4 269.362 10.44C270.962 9.4533 272.749 8.95997 274.722 8.95997C276.322 8.95997 277.736 9.2533 278.962 9.83997C280.216 10.4 281.269 11.1733 282.122 12.16C283.002 13.12 283.669 14.2267 284.122 15.48C284.602 16.7067 284.842 17.9867 284.842 19.32C284.842 19.6133 284.816 19.9467 284.762 20.32C284.736 20.6667 284.696 21 284.642 21.32H266.962V18.12H282.482L280.722 19.56C280.962 18.1733 280.829 16.9333 280.322 15.84C279.816 14.7467 279.069 13.88 278.082 13.24C277.096 12.6 275.976 12.28 274.722 12.28C273.469 12.28 272.322 12.6 271.282 13.24C270.242 13.88 269.429 14.8 268.842 16C268.282 17.1733 268.056 18.5733 268.162 20.2C268.056 21.7733 268.296 23.16 268.882 24.36C269.496 25.5333 270.349 26.4533 271.442 27.12C272.562 27.76 273.776 28.08 275.082 28.08C276.522 28.08 277.736 27.7467 278.722 27.08C279.709 26.4133 280.509 25.56 281.122 24.52L284.242 26.12C283.816 27.1067 283.149 28.0133 282.242 28.84C281.362 29.64 280.309 30.28 279.082 30.76C277.882 31.24 276.536 31.48 275.042 31.48ZM297.493 31.48C295.466 31.48 293.639 30.9867 292.013 30C290.413 29.0133 289.146 27.6667 288.213 25.96C287.279 24.2533 286.813 22.3467 286.813 20.24C286.813 18.08 287.279 16.16 288.213 14.48C289.146 12.7733 290.413 11.4267 292.013 10.44C293.639 9.4533 295.466 8.95997 297.493 8.95997C299.279 8.95997 300.866 9.34664 302.253 10.12C303.639 10.8667 304.733 11.88 305.533 13.16L304.933 14.08V0.719971H308.693V31H305.053V26.4L305.533 27.04C304.786 28.4533 303.693 29.5467 302.253 30.32C300.839 31.0933 299.253 31.48 297.493 31.48ZM297.813 27.88C299.173 27.88 300.386 27.5467 301.453 26.88C302.519 26.2133 303.359 25.3067 303.973 24.16C304.613 22.9867 304.933 21.68 304.933 20.24C304.933 18.7733 304.613 17.4667 303.973 16.32C303.359 15.1467 302.519 14.2267 301.453 13.56C300.386 12.8933 299.173 12.56 297.813 12.56C296.479 12.56 295.266 12.9067 294.173 13.6C293.106 14.2667 292.266 15.1733 291.653 16.32C291.039 17.44 290.733 18.7467 290.733 20.24C290.733 21.68 291.039 22.9867 291.653 24.16C292.266 25.3067 293.106 26.2133 294.173 26.88C295.239 27.5467 296.453 27.88 297.813 27.88Z" fill="#CFCFCF"/>
<path d="M322.616 9.47874C323.535 9.91239 322.895 10.4205 320.697 11.003C318.496 11.5577 315.077 12.1208 310.44 12.6923C305.804 13.2638 300.293 13.7916 293.906 14.2756C291.827 14.3656 289.837 14.4739 287.937 14.6005C285.864 14.7462 284.226 14.8859 283.022 15.0196C281.297 15.155 278.791 15.3206 275.505 15.5164C272.048 15.7314 268.503 15.942 264.87 16.1482C261.238 16.3544 258.037 16.5268 255.267 16.6654C252.322 16.7952 250.503 16.8704 249.809 16.8911C249.797 16.7797 249.184 16.7491 247.971 16.7993C246.758 16.8495 245.55 16.9414 244.346 17.0751C242.971 17.228 241.419 17.3581 239.69 17.4656C237.958 17.5452 236.742 17.5676 236.042 17.5326C235.182 17.6281 234.233 17.7053 233.195 17.7642C231.983 17.8144 231.032 17.8777 230.344 17.9541C229.657 18.0305 228.966 18.0791 228.272 18.0998C227.575 18.0927 226.882 18.1273 226.195 18.2037C223.938 18.2571 220.385 18.3981 215.536 18.6266C210.513 18.8464 204.972 19.1096 198.913 19.4162C192.852 19.6949 186.88 19.9919 180.996 20.3072C175.113 20.6225 170.183 20.9024 166.207 21.1468C162.055 21.3825 159.55 21.5481 158.69 21.6436C157.314 21.7965 156.277 21.8554 155.576 21.8204C154.876 21.7854 154.514 21.6565 154.489 21.4337C153.964 21.4075 153.609 21.3482 153.425 21.2559C153.238 21.1357 153.138 21.02 153.125 20.9086C153.125 20.9086 153.463 20.8147 154.138 20.6268C154.814 20.439 155.827 20.1573 157.178 19.7817C158.357 19.4251 159.718 19.147 161.263 18.9472C162.804 18.7196 164.606 18.4911 166.67 18.2619C168.905 18.0135 170.887 17.8356 172.616 17.7281C174.344 17.6206 176.856 17.5107 180.151 17.3984C183.446 17.2861 188.562 17.1125 195.498 16.8775C198.962 16.7182 202.255 16.592 205.378 16.4988C208.329 16.4247 210.148 16.3494 210.836 16.273C211.524 16.1966 212.562 16.1377 213.95 16.0962C215.335 16.027 217.065 15.9334 219.141 15.8156C220.528 15.7741 222.609 15.6981 225.382 15.5874C227.982 15.4958 230.843 15.3894 233.963 15.2684C236.907 15.1386 239.505 15.0191 241.756 14.91C243.835 14.82 245.046 14.7559 245.39 14.7177C246.078 14.6413 246.767 14.5788 247.458 14.5303C248.146 14.4539 248.84 14.4331 249.54 14.4681C249.552 14.5795 250.076 14.5918 251.111 14.5051C251.97 14.4096 252.4 14.3618 252.4 14.3618C254.12 14.1708 258.701 13.8873 266.144 13.5115C275.651 12.9064 284.38 12.3594 292.333 11.8706C300.283 11.3539 306.665 10.8281 311.479 10.2932C315.606 9.83468 318.359 9.54295 319.737 9.41797C320.944 9.3121 321.904 9.33235 322.616 9.47874Z" fill="url(#paint0_linear_497_117)"/>
<defs>
<linearGradient id="paint0_linear_497_117" x1="158.494" y1="18.9102" x2="315.506" y2="8.08962" gradientUnits="userSpaceOnUse">
<stop stop-color="#DBC0FF"/>
<stop offset="0.219" stop-color="#9747FF"/>
<stop offset="0.639" stop-color="#9747FF"/>
<stop offset="0.984141" stop-color="#DBBFFF"/>
</linearGradient>
</defs>
</svg>
