<svg width="60" height="60" viewBox="0 0 60 60" fill="none" xmlns="http://www.w3.org/2000/svg">
<rect x="0.926058" y="0.92618" width="57.4292" height="57.4292" rx="5.82615" fill="black"/>
<rect x="0.926058" y="0.92618" width="57.4292" height="57.4292" rx="5.82615" stroke="black" stroke-width="1.66462"/>
<rect x="0.926058" y="0.92618" width="52.4354" height="52.4354" rx="5.82615" fill="white"/>
<rect x="0.926058" y="0.92618" width="52.4354" height="52.4354" rx="5.82615" stroke="black" stroke-width="1.66462"/>
<mask id="mask0_447_1610" style="mask-type:alpha" maskUnits="userSpaceOnUse" x="11" y="11" width="33" height="33">
<rect x="11.7451" y="11.7462" width="31.6277" height="31.6277" fill="#D9D9D9"/>
</mask>
<g mask="url(#mask0_447_1610)">
<path d="M28.1835 33.9183L39.2203 22.8816L37.5071 21.1684L26.4703 32.2051L28.1835 33.9183ZM15.6972 31.8757C15.6972 32.5126 15.9168 33.0068 16.3561 33.3582C16.7953 33.7097 17.5201 33.9403 18.5305 34.0501C18.8819 34.094 19.1619 34.2533 19.3706 34.5278C19.5792 34.8023 19.6726 35.1153 19.6506 35.4668C19.6287 35.8401 19.4969 36.1476 19.2553 36.3892C19.0137 36.6308 18.7172 36.7297 18.3658 36.6857C16.5867 36.4661 15.2579 35.9554 14.3793 35.1538C13.5008 34.3521 13.0615 33.2594 13.0615 31.8757C13.0615 30.4481 13.6491 29.2895 14.8241 28.3999C15.9992 27.5104 17.63 26.9778 19.7165 26.8021C20.5731 26.7362 21.2155 26.5989 21.6438 26.3903C22.0721 26.1816 22.2863 25.8906 22.2863 25.5172C22.2863 25.034 22.0556 24.6551 21.5944 24.3806C21.1332 24.106 20.3754 23.8919 19.3212 23.7381C18.9698 23.6942 18.6897 23.5295 18.4811 23.244C18.2724 22.9584 18.19 22.64 18.234 22.2885C18.2779 21.9152 18.4316 21.6132 18.6952 21.3825C18.9588 21.1519 19.2663 21.0586 19.6177 21.1025C21.4407 21.3661 22.7804 21.8548 23.637 22.5686C24.4936 23.2824 24.9219 24.2653 24.9219 25.5172C24.9219 26.6813 24.4991 27.5928 23.6535 28.2517C22.8079 28.9106 21.5615 29.3059 19.9142 29.4377C18.5085 29.5475 17.4543 29.8056 16.7514 30.2119C16.0486 30.6183 15.6972 31.1729 15.6972 31.8757ZM28.8095 37.0152L23.3735 31.5792L35.9587 18.994C36.3979 18.5547 36.9196 18.3351 37.5236 18.3351C38.1276 18.3351 38.6492 18.5547 39.0885 18.994L41.3947 21.3002C41.8339 21.7395 42.0536 22.2611 42.0536 22.8651C42.0536 23.4691 41.8339 23.9907 41.3947 24.43L28.8095 37.0152ZM23.5711 38.1024C23.1978 38.1902 22.8683 38.0914 22.5828 37.8059C22.2972 37.5204 22.1984 37.1909 22.2863 36.8175L23.3735 31.5792L28.8095 37.0152L23.5711 38.1024Z" fill="#1C1B1F"/>
<path d="M15.6972 31.8761C15.6972 32.5131 15.9168 33.0073 16.3561 33.3587C16.7953 33.7101 17.5201 33.9407 18.5305 34.0505C18.8819 34.0945 19.1619 34.2537 19.3706 34.5282C19.5792 34.8028 19.6726 35.1158 19.6506 35.4672C19.6287 35.8406 19.4969 36.1481 19.2553 36.3897C19.0137 36.6313 18.7172 36.7301 18.3658 36.6862C16.5867 36.4665 15.2579 35.9559 14.3793 35.1542C13.5008 34.3525 13.0615 33.2598 13.0615 31.8761C13.0615 30.4485 13.6491 29.2899 14.8241 28.4004C15.9992 27.5109 17.63 26.9782 19.7165 26.8025C20.5731 26.7366 21.2155 26.5994 21.6438 26.3907C22.0721 26.182 22.2863 25.891 22.2863 25.5176C22.2863 25.0344 22.0556 24.6556 21.5944 24.381C21.1332 24.1065 20.3754 23.8923 19.3212 23.7386C18.9698 23.6947 18.6897 23.5299 18.4811 23.2444C18.2724 22.9589 18.19 22.6404 18.234 22.289C18.2779 21.9156 18.4316 21.6136 18.6952 21.383C18.9588 21.1524 19.2663 21.059 19.6177 21.1029C21.4407 21.3665 22.7804 21.8552 23.637 22.569C24.4936 23.2828 24.9219 24.2657 24.9219 25.5176C24.9219 26.6817 24.4991 27.5932 23.6535 28.2521C22.8079 28.911 21.5615 29.3064 19.9142 29.4382C18.5085 29.548 17.4543 29.8061 16.7514 30.2124C16.0486 30.6187 15.6972 31.1733 15.6972 31.8761Z" fill="url(#paint0_linear_447_1610)"/>
</g>
<defs>
<linearGradient id="paint0_linear_447_1610" x1="15.0756" y1="22.9823" x2="17.3922" y2="36.6817" gradientUnits="userSpaceOnUse">
<stop stop-color="#FFE75C"/>
<stop offset="0.263138" stop-color="#FFC619"/>
<stop offset="0.62876" stop-color="#FF78B9"/>
<stop offset="0.852275" stop-color="#EB459F"/>
<stop offset="1" stop-color="#9747FF"/>
</linearGradient>
</defs>
</svg>
