<svg width="60" height="60" viewBox="0 0 60 60" fill="none" xmlns="http://www.w3.org/2000/svg">
<rect x="0.832308" y="0.832308" width="57.4292" height="57.4292" rx="5.82615" fill="black"/>
<rect x="0.832308" y="0.832308" width="57.4292" height="57.4292" rx="5.82615" stroke="black" stroke-width="1.66462"/>
<rect x="0.832308" y="0.832308" width="52.4354" height="52.4354" rx="5.82615" fill="white"/>
<rect x="0.832308" y="0.832308" width="52.4354" height="52.4354" rx="5.82615" stroke="black" stroke-width="1.66462"/>
<path opacity="0.05" d="M12.9012 15.9698V36.1697C12.9012 37.4988 13.2466 38.7415 13.9582 39.6622C14.679 40.5949 15.7552 41.1682 17.1341 41.1682H23.0712C24.4501 41.1682 25.5262 40.5949 26.2471 39.6622C26.9586 38.7415 27.304 37.4988 27.304 36.1697V15.9698C27.304 15.7823 27.2129 15.6221 27.076 15.5215C26.9492 15.4283 26.8024 15.3978 26.6758 15.3978H21.5869C21.4603 15.3978 21.3135 15.4283 21.1867 15.5215C21.0498 15.6221 20.9587 15.7823 20.9587 15.9698V36.5952H19.2465V15.9698C19.2465 15.7823 19.1554 15.6221 19.0186 15.5215C18.8917 15.4283 18.7449 15.3978 18.6183 15.3978H13.5294C13.4028 15.3978 13.256 15.4283 13.1292 15.5215C12.9923 15.6221 12.9012 15.7823 12.9012 15.9698ZM27.7745 16.1147L30.8837 28.3449L27.7747 40.482C27.7446 40.5816 27.7391 40.6965 27.7784 40.812C27.8193 40.9324 27.8966 41.0171 27.9709 41.0717C28.1088 41.1731 28.2701 41.1994 28.387 41.1994H33.3911C33.5157 41.1994 33.6527 41.1702 33.7726 41.1016C33.8771 41.0419 34.0365 40.9069 34.059 40.6819L35.6411 32.7204H35.806L37.3881 40.6819C37.4107 40.9069 37.57 41.0419 37.6745 41.1016C37.7944 41.1702 37.9315 41.1994 38.056 41.1994H43.0601C43.1771 41.1994 43.3384 41.1731 43.4762 41.0717C43.5506 41.0171 43.6278 40.9324 43.6688 40.812C43.7071 40.6994 43.7027 40.5875 43.6747 40.4896L40.9421 28.345L43.6749 16.1071C43.7028 16.0093 43.707 15.8976 43.6688 15.7852C43.6278 15.6647 43.5506 15.5801 43.4762 15.5254C43.3384 15.4241 43.1771 15.3978 43.0601 15.3978H38.056C37.9315 15.3978 37.7944 15.427 37.6745 15.4955C37.57 15.5553 37.4107 15.6902 37.3881 15.9153L35.806 23.8768H35.6411L34.059 15.9153C34.0365 15.6902 33.8771 15.5553 33.7726 15.4955C33.6527 15.427 33.5157 15.3978 33.3911 15.3978H28.387C28.2701 15.3978 28.1088 15.4241 27.9709 15.5254C27.8966 15.5801 27.8193 15.6647 27.7784 15.7852C27.7391 15.9005 27.7446 16.0151 27.7745 16.1147Z" fill="black" stroke="black" stroke-width="0.832308"/>
<path d="M11.6523 34.505V14.3052C11.6523 14.2116 11.7372 14.1493 11.8644 14.1493H16.9533C17.0805 14.1493 17.1653 14.2116 17.1653 14.3052V35.3466H19.7098V14.3052C19.7098 14.2116 19.7946 14.1493 19.9218 14.1493H25.0108C25.138 14.1493 25.2228 14.2116 25.2228 14.3052V34.505C25.2228 37.03 23.9082 39.0873 21.4061 39.0873H15.469C12.967 39.0873 11.6523 37.03 11.6523 34.505Z" fill="url(#paint0_linear_447_1590)"/>
<path d="M26.51 38.9315L29.6481 26.6807L26.51 14.3363C26.4675 14.2116 26.5948 14.1493 26.722 14.1493H31.7261C31.8533 14.1493 31.9806 14.2116 31.9806 14.3052L33.6345 22.6282H34.4826L36.1365 14.3052C36.1365 14.2116 36.2637 14.1493 36.391 14.1493H41.3951C41.5223 14.1493 41.6495 14.2116 41.6071 14.3363L38.8506 26.6807L41.6071 38.9315C41.6495 39.0562 41.5223 39.1185 41.3951 39.1185H36.391C36.2637 39.1185 36.1365 39.0562 36.1365 38.9627L34.4826 30.6396H33.6345L31.9806 38.9627C31.9806 39.0562 31.8533 39.1185 31.7261 39.1185H26.722C26.5948 39.1185 26.4675 39.0562 26.51 38.9315Z" fill="url(#paint1_linear_447_1590)"/>
<defs>
<linearGradient id="paint0_linear_447_1590" x1="26.6339" y1="14.1493" x2="33.2923" y2="39.1185" gradientUnits="userSpaceOnUse">
<stop stop-color="#0ACF83"/>
<stop offset="1" stop-color="#89AAFF"/>
</linearGradient>
<linearGradient id="paint1_linear_447_1590" x1="26.6339" y1="14.1493" x2="33.2923" y2="39.1185" gradientUnits="userSpaceOnUse">
<stop stop-color="#0ACF83"/>
<stop offset="1" stop-color="#89AAFF"/>
</linearGradient>
</defs>
</svg>
