<svg width="60" height="60" viewBox="0 0 60 60" fill="none" xmlns="http://www.w3.org/2000/svg">
<rect x="0.832308" y="0.92618" width="57.4292" height="57.4292" rx="5.82615" fill="black"/>
<rect x="0.832308" y="0.92618" width="57.4292" height="57.4292" rx="5.82615" stroke="black" stroke-width="1.66462"/>
<rect x="0.832308" y="0.92618" width="52.4354" height="52.4354" rx="5.82615" fill="white"/>
<rect x="0.832308" y="0.92618" width="52.4354" height="52.4354" rx="5.82615" stroke="black" stroke-width="1.66462"/>
<mask id="mask0_447_1604" style="mask-type:alpha" maskUnits="userSpaceOnUse" x="12" y="12" width="31" height="31">
<rect x="12.4854" y="12.5782" width="29.9631" height="29.9631" fill="#D9D9D9"/>
</mask>
<g mask="url(#mask0_447_1604)">
<path d="M17.4775 38.7959V36.299C17.4775 35.6123 17.722 35.0245 18.211 34.5355C18.7 34.0465 19.2878 33.802 19.9745 33.802H20.5987V31.3051H19.9745C19.2878 31.3051 18.7 31.0606 18.211 30.5717C17.722 30.0827 17.4775 29.4949 17.4775 28.8082V26.3113C17.4775 25.6246 17.722 25.0368 18.211 24.5478C18.7 24.0588 19.2878 23.8144 19.9745 23.8144H20.5987V21.3174H19.9745C19.2878 21.3174 18.7 21.0729 18.211 20.584C17.722 20.095 17.4775 19.5072 17.4775 18.8205V16.3236C17.4775 15.6369 17.722 15.0491 18.211 14.5601C18.7 14.0712 19.2878 13.8267 19.9745 13.8267H23.7198C24.4065 13.8267 24.9943 14.0712 25.4833 14.5601C25.9723 15.0491 26.2168 15.6369 26.2168 16.3236V18.8205C26.2168 19.5072 25.9723 20.095 25.4833 20.584C24.9943 21.0729 24.4065 21.3174 23.7198 21.3174H23.0956V23.8144H23.7198C24.4065 23.8144 24.9943 24.0588 25.4833 24.5478C25.9723 25.0368 26.2168 25.6246 26.2168 26.3113H29.9622C29.9622 25.6246 30.2066 25.0368 30.6956 24.5478C31.1846 24.0588 31.7724 23.8144 32.4591 23.8144H36.2045C36.8911 23.8144 37.4789 24.0588 37.9679 24.5478C38.4569 25.0368 38.7014 25.6246 38.7014 26.3113V28.8082C38.7014 29.4949 38.4569 30.0827 37.9679 30.5717C37.4789 31.0606 36.8911 31.3051 36.2045 31.3051H32.4591C31.7724 31.3051 31.1846 31.0606 30.6956 30.5717C30.2066 30.0827 29.9622 29.4949 29.9622 28.8082H26.2168C26.2168 29.4949 25.9723 30.0827 25.4833 30.5717C24.9943 31.0606 24.4065 31.3051 23.7198 31.3051H23.0956V33.802H23.7198C24.4065 33.802 24.9943 34.0465 25.4833 34.5355C25.9723 35.0245 26.2168 35.6123 26.2168 36.299V38.7959C26.2168 39.4825 25.9723 40.0704 25.4833 40.5593C24.9943 41.0483 24.4065 41.2928 23.7198 41.2928H19.9745C19.2878 41.2928 18.7 41.0483 18.211 40.5593C17.722 40.0704 17.4775 39.4825 17.4775 38.7959Z" fill="url(#paint0_linear_447_1604)"/>
</g>
<defs>
<linearGradient id="paint0_linear_447_1604" x1="27.4652" y1="30.4729" x2="39.1477" y2="30.2872" gradientUnits="userSpaceOnUse">
<stop/>
<stop offset="0.133028" stop-color="#FFE75C"/>
<stop offset="0.263138" stop-color="#FFC619"/>
<stop offset="0.62876" stop-color="#FF78B9"/>
<stop offset="0.852275" stop-color="#EB459F"/>
<stop offset="1" stop-color="#9747FF"/>
</linearGradient>
</defs>
</svg>
