<svg width="28" height="27" viewBox="0 0 28 27" fill="none" xmlns="http://www.w3.org/2000/svg">
<g filter="url(#filter0_ddii_415_243)">
<path d="M19.9717 15.8063C14.3111 15.8063 10.6909 12.2593 10.6909 6.58824C10.6909 5.41637 10.9734 3.74226 11.35 2.87381C11.4442 2.63316 11.4651 2.48668 11.4651 2.38205C11.4651 2.09954 11.2559 1.78564 10.8478 1.78564C10.7327 1.78564 10.4816 1.81703 10.2514 1.90074C6.38002 3.44929 3.78516 7.61363 3.78516 11.9977C3.78516 18.15 8.47266 22.5446 14.6041 22.5446C19.1137 22.5446 23.0165 19.8137 24.3139 16.4027C24.4081 16.1621 24.429 15.9109 24.429 15.8167C24.429 15.4296 24.1046 15.1681 23.8117 15.1681C23.6756 15.1681 23.5605 15.1994 23.3618 15.2623C22.556 15.5238 21.2586 15.8063 19.9717 15.8063Z" fill="url(#paint0_linear_415_243)"/>
</g>
<defs>
<filter id="filter0_ddii_415_243" x="0.778399" y="0.130239" width="26.6576" height="26.7725" filterUnits="userSpaceOnUse" color-interpolation-filters="sRGB">
<feFlood flood-opacity="0" result="BackgroundImageFix"/>
<feColorMatrix in="SourceAlpha" type="matrix" values="0 0 0 0 0 0 0 0 0 0 0 0 0 0 0 0 0 0 127 0" result="hardAlpha"/>
<feOffset dy="1.35135"/>
<feGaussianBlur stdDeviation="1.50338"/>
<feComposite in2="hardAlpha" operator="out"/>
<feColorMatrix type="matrix" values="0 0 0 0 0.807843 0 0 0 0 0.827451 0 0 0 0 0.964706 0 0 0 1 0"/>
<feBlend mode="normal" in2="BackgroundImageFix" result="effect1_dropShadow_415_243"/>
<feColorMatrix in="SourceAlpha" type="matrix" values="0 0 0 0 0 0 0 0 0 0 0 0 0 0 0 0 0 0 127 0" result="hardAlpha"/>
<feOffset dy="0.337838"/>
<feGaussianBlur stdDeviation="0.168919"/>
<feComposite in2="hardAlpha" operator="out"/>
<feColorMatrix type="matrix" values="0 0 0 0 0 0 0 0 0 0 0 0 0 0 0 0 0 0 0.25 0"/>
<feBlend mode="normal" in2="effect1_dropShadow_415_243" result="effect2_dropShadow_415_243"/>
<feBlend mode="normal" in="SourceGraphic" in2="effect2_dropShadow_415_243" result="shape"/>
<feColorMatrix in="SourceAlpha" type="matrix" values="0 0 0 0 0 0 0 0 0 0 0 0 0 0 0 0 0 0 127 0" result="hardAlpha"/>
<feOffset dy="1.35135"/>
<feGaussianBlur stdDeviation="1.0473"/>
<feComposite in2="hardAlpha" operator="arithmetic" k2="-1" k3="1"/>
<feColorMatrix type="matrix" values="0 0 0 0 0.8 0 0 0 0 0.819608 0 0 0 0 0.960784 0 0 0 1 0"/>
<feBlend mode="normal" in2="shape" result="effect3_innerShadow_415_243"/>
<feColorMatrix in="SourceAlpha" type="matrix" values="0 0 0 0 0 0 0 0 0 0 0 0 0 0 0 0 0 0 127 0" result="hardAlpha"/>
<feOffset dy="-1.01351"/>
<feGaussianBlur stdDeviation="1.09797"/>
<feComposite in2="hardAlpha" operator="arithmetic" k2="-1" k3="1"/>
<feColorMatrix type="matrix" values="0 0 0 0 1 0 0 0 0 1 0 0 0 0 1 0 0 0 0.85 0"/>
<feBlend mode="normal" in2="effect3_innerShadow_415_243" result="effect4_innerShadow_415_243"/>
</filter>
<linearGradient id="paint0_linear_415_243" x1="12.6071" y1="1.78564" x2="21.8385" y2="27.2734" gradientUnits="userSpaceOnUse">
<stop stop-color="white"/>
<stop offset="1" stop-color="#ABB4F1"/>
</linearGradient>
</defs>
</svg>
