<svg width="80" height="80" viewBox="0 0 80 80" fill="none" xmlns="http://www.w3.org/2000/svg">
<g filter="url(#filter0_ddii_415_322)">
<path d="M57.1973 46.7869C40.4421 46.7869 29.726 36.2879 29.726 19.5016C29.726 16.0328 30.5622 11.0775 31.6772 8.50687C31.9559 7.79454 32.0178 7.36094 32.0178 7.05124C32.0178 6.21502 31.3984 5.28589 30.1906 5.28589C29.8499 5.28589 29.1066 5.3788 28.4252 5.62657C16.966 10.2103 9.28516 22.5367 9.28516 35.5136C9.28516 53.7244 23.1602 66.7323 41.3092 66.7323C54.6577 66.7323 66.2099 58.6489 70.0503 48.5524C70.3291 47.8401 70.3909 47.0967 70.3909 46.8179C70.3909 45.6719 69.4308 44.8978 68.5636 44.8978C68.1609 44.8978 67.8202 44.9906 67.2319 45.1766C64.847 45.9507 61.0067 46.7869 57.1973 46.7869Z" fill="url(#paint0_linear_415_322)"/>
</g>
<defs>
<filter id="filter0_ddii_415_322" x="0.385157" y="0.385889" width="78.906" height="79.2465" filterUnits="userSpaceOnUse" color-interpolation-filters="sRGB">
<feFlood flood-opacity="0" result="BackgroundImageFix"/>
<feColorMatrix in="SourceAlpha" type="matrix" values="0 0 0 0 0 0 0 0 0 0 0 0 0 0 0 0 0 0 127 0" result="hardAlpha"/>
<feOffset dy="4"/>
<feGaussianBlur stdDeviation="4.45"/>
<feComposite in2="hardAlpha" operator="out"/>
<feColorMatrix type="matrix" values="0 0 0 0 0.807843 0 0 0 0 0.827451 0 0 0 0 0.964706 0 0 0 1 0"/>
<feBlend mode="normal" in2="BackgroundImageFix" result="effect1_dropShadow_415_322"/>
<feColorMatrix in="SourceAlpha" type="matrix" values="0 0 0 0 0 0 0 0 0 0 0 0 0 0 0 0 0 0 127 0" result="hardAlpha"/>
<feOffset dy="1"/>
<feGaussianBlur stdDeviation="0.5"/>
<feComposite in2="hardAlpha" operator="out"/>
<feColorMatrix type="matrix" values="0 0 0 0 0 0 0 0 0 0 0 0 0 0 0 0 0 0 0.25 0"/>
<feBlend mode="normal" in2="effect1_dropShadow_415_322" result="effect2_dropShadow_415_322"/>
<feBlend mode="normal" in="SourceGraphic" in2="effect2_dropShadow_415_322" result="shape"/>
<feColorMatrix in="SourceAlpha" type="matrix" values="0 0 0 0 0 0 0 0 0 0 0 0 0 0 0 0 0 0 127 0" result="hardAlpha"/>
<feOffset dy="4"/>
<feGaussianBlur stdDeviation="3.1"/>
<feComposite in2="hardAlpha" operator="arithmetic" k2="-1" k3="1"/>
<feColorMatrix type="matrix" values="0 0 0 0 0.8 0 0 0 0 0.819608 0 0 0 0 0.960784 0 0 0 1 0"/>
<feBlend mode="normal" in2="shape" result="effect3_innerShadow_415_322"/>
<feColorMatrix in="SourceAlpha" type="matrix" values="0 0 0 0 0 0 0 0 0 0 0 0 0 0 0 0 0 0 127 0" result="hardAlpha"/>
<feOffset dy="-3"/>
<feGaussianBlur stdDeviation="3.25"/>
<feComposite in2="hardAlpha" operator="arithmetic" k2="-1" k3="1"/>
<feColorMatrix type="matrix" values="0 0 0 0 1 0 0 0 0 1 0 0 0 0 1 0 0 0 0.85 0"/>
<feBlend mode="normal" in2="effect3_innerShadow_415_322" result="effect4_innerShadow_415_322"/>
</filter>
<linearGradient id="paint0_linear_415_322" x1="35.3982" y1="5.28589" x2="62.7232" y2="80.7296" gradientUnits="userSpaceOnUse">
<stop stop-color="white"/>
<stop offset="1" stop-color="#ABB4F1"/>
</linearGradient>
</defs>
</svg>
