<svg width="64" height="63" viewBox="0 0 64 63" fill="none" xmlns="http://www.w3.org/2000/svg">
<g filter="url(#filter0_ddii_447_390)">
<path d="M16.5 54.7492C14.4375 54.7492 12.3979 54.2451 10.3812 53.2367C8.36458 52.2284 6.7375 50.8992 5.5 49.2492C6.69167 49.2492 7.90625 48.7794 9.14375 47.8399C10.3813 46.9003 11 45.5367 11 43.7492C11 41.4576 11.8021 39.5096 13.4062 37.9055C15.0104 36.3013 16.9583 35.4992 19.25 35.4992C21.5417 35.4992 23.4896 36.3013 25.0938 37.9055C26.6979 39.5096 27.5 41.4576 27.5 43.7492C27.5 46.7742 26.4229 49.3638 24.2688 51.518C22.1146 53.6721 19.525 54.7492 16.5 54.7492ZM32.3125 38.2492L24.75 30.6867L49.3625 6.07423C49.8667 5.57006 50.4969 5.30652 51.2531 5.2836C52.0094 5.26068 52.6625 5.52423 53.2125 6.07423L56.925 9.78673C57.475 10.3367 57.75 10.9784 57.75 11.7117C57.75 12.4451 57.475 13.0867 56.925 13.6367L32.3125 38.2492Z" fill="url(#paint0_linear_447_390)"/>
</g>
<defs>
<filter id="filter0_ddii_447_390" x="-0.624138" y="0.699755" width="64.4983" height="61.7151" filterUnits="userSpaceOnUse" color-interpolation-filters="sRGB">
<feFlood flood-opacity="0" result="BackgroundImageFix"/>
<feColorMatrix in="SourceAlpha" type="matrix" values="0 0 0 0 0 0 0 0 0 0 0 0 0 0 0 0 0 0 127 0" result="hardAlpha"/>
<feOffset dy="1.54167"/>
<feGaussianBlur stdDeviation="3.06207"/>
<feComposite in2="hardAlpha" operator="out"/>
<feColorMatrix type="matrix" values="0 0 0 0 1 0 0 0 0 0.776471 0 0 0 0 0.0980392 0 0 0 1 0"/>
<feBlend mode="normal" in2="BackgroundImageFix" result="effect1_dropShadow_447_390"/>
<feColorMatrix in="SourceAlpha" type="matrix" values="0 0 0 0 0 0 0 0 0 0 0 0 0 0 0 0 0 0 127 0" result="hardAlpha"/>
<feOffset dy="1.27586"/>
<feGaussianBlur stdDeviation="0.510345"/>
<feComposite in2="hardAlpha" operator="out"/>
<feColorMatrix type="matrix" values="0 0 0 0 0 0 0 0 0 0 0 0 0 0 0 0 0 0 0.25 0"/>
<feBlend mode="normal" in2="effect1_dropShadow_447_390" result="effect2_dropShadow_447_390"/>
<feBlend mode="normal" in="SourceGraphic" in2="effect2_dropShadow_447_390" result="shape"/>
<feColorMatrix in="SourceAlpha" type="matrix" values="0 0 0 0 0 0 0 0 0 0 0 0 0 0 0 0 0 0 127 0" result="hardAlpha"/>
<feOffset dy="3.08333"/>
<feGaussianBlur stdDeviation="3.08333"/>
<feComposite in2="hardAlpha" operator="arithmetic" k2="-1" k3="1"/>
<feColorMatrix type="matrix" values="0 0 0 0 1 0 0 0 0 0.771333 0 0 0 0 0.183333 0 0 0 1 0"/>
<feBlend mode="normal" in2="shape" result="effect3_innerShadow_447_390"/>
<feColorMatrix in="SourceAlpha" type="matrix" values="0 0 0 0 0 0 0 0 0 0 0 0 0 0 0 0 0 0 127 0" result="hardAlpha"/>
<feOffset dy="-3.08333"/>
<feGaussianBlur stdDeviation="2.42414"/>
<feComposite in2="hardAlpha" operator="arithmetic" k2="-1" k3="1"/>
<feColorMatrix type="matrix" values="0 0 0 0 1 0 0 0 0 0.954847 0 0 0 0 0.693333 0 0 0 1 0"/>
<feBlend mode="normal" in2="effect3_innerShadow_447_390" result="effect4_innerShadow_447_390"/>
</filter>
<linearGradient id="paint0_linear_447_390" x1="31.625" y1="5.28223" x2="31.625" y2="54.7492" gradientUnits="userSpaceOnUse">
<stop stop-color="#FFF8D1"/>
<stop offset="1" stop-color="#FFC619"/>
</linearGradient>
</defs>
</svg>
