<svg width="120" height="71" viewBox="0 0 120 71" fill="none" xmlns="http://www.w3.org/2000/svg">
<g filter="url(#filter0_d_447_1310)">
<path d="M17.1235 31.6917L13.3768 10.1646C13.2296 9.31925 14.1456 8.69334 14.8797 9.13765L33.9342 20.6698C34.8001 21.1939 34.4286 22.5253 33.4164 22.5253H23.7281C23.3287 22.5253 22.9676 22.763 22.8097 23.1299L19.0272 31.9157C18.6341 32.8288 17.294 32.6711 17.1235 31.6917Z" fill="#EB459F"/>
<path d="M12.3916 10.3361L16.1383 31.8632C16.4792 33.822 19.1594 34.1373 19.9457 32.3111L23.7281 23.5253H33.4164C35.4408 23.5253 36.1838 20.8625 34.4519 19.8143L15.3975 8.28213C13.9293 7.39353 12.0973 8.64533 12.3916 10.3361Z" stroke="white" stroke-width="2" stroke-linejoin="round"/>
</g>
<g filter="url(#filter1_d_447_1310)">
<path d="M29 33.0588C29 32.0717 29 31.5781 29.1704 31.1922C29.3718 30.7361 29.7361 30.3718 30.1922 30.1704C30.5781 30 31.0717 30 32.0588 30H91C98.1797 30 104 35.8203 104 43C104 50.1797 98.1797 56 91 56H51.9412C44.5376 56 40.8358 56 37.9412 54.7219C34.5211 53.2118 31.7882 50.4789 30.2781 47.0588C29 44.1642 29 40.4624 29 33.0588Z" fill="#EB459F"/>
<path d="M40.078 48V37.57H43.872C44.572 37.57 45.188 37.7007 45.72 37.962C46.252 38.214 46.6673 38.5873 46.966 39.082C47.274 39.5673 47.428 40.1507 47.428 40.832C47.428 41.5507 47.246 42.1667 46.882 42.68C46.5273 43.1933 46.0467 43.5667 45.44 43.8L47.848 48H45.972L43.41 43.45L44.488 44.08H41.73V48H40.078ZM41.73 42.61H43.9C44.2827 42.61 44.614 42.5353 44.894 42.386C45.174 42.2367 45.3887 42.0313 45.538 41.77C45.6967 41.4993 45.776 41.182 45.776 40.818C45.776 40.454 45.6967 40.1413 45.538 39.88C45.3887 39.6093 45.174 39.404 44.894 39.264C44.614 39.1147 44.2827 39.04 43.9 39.04H41.73V42.61ZM48.3142 48L51.9822 37.57H54.0262L57.6942 48H55.9302L55.1322 45.662H50.8902L50.0782 48H48.3142ZM51.3662 44.192H54.6282L52.7802 38.732H53.2422L51.3662 44.192ZM62.4488 48.168C61.7955 48.168 61.1888 48.0467 60.6288 47.804C60.0688 47.552 59.5928 47.2113 59.2008 46.782C58.8088 46.3527 58.5195 45.858 58.3328 45.298L59.7328 44.71C59.9848 45.354 60.3535 45.8487 60.8388 46.194C61.3241 46.5393 61.8841 46.712 62.5188 46.712C62.8921 46.712 63.2188 46.656 63.4988 46.544C63.7788 46.4227 63.9935 46.2547 64.1428 46.04C64.3015 45.8253 64.3808 45.578 64.3808 45.298C64.3808 44.9153 64.2735 44.612 64.0588 44.388C63.8441 44.164 63.5268 43.9867 63.1068 43.856L61.1468 43.24C60.3628 42.9973 59.7655 42.6287 59.3548 42.134C58.9441 41.63 58.7388 41.042 58.7388 40.37C58.7388 39.782 58.8835 39.2687 59.1728 38.83C59.4621 38.382 59.8588 38.032 60.3628 37.78C60.8761 37.528 61.4595 37.402 62.1128 37.402C62.7381 37.402 63.3075 37.514 63.8208 37.738C64.3341 37.9527 64.7728 38.2513 65.1368 38.634C65.5101 39.0167 65.7808 39.46 65.9488 39.964L64.5768 40.566C64.3715 40.0153 64.0495 39.5907 63.6108 39.292C63.1815 38.9933 62.6821 38.844 62.1128 38.844C61.7675 38.844 61.4641 38.9047 61.2028 39.026C60.9415 39.138 60.7361 39.306 60.5868 39.53C60.4468 39.7447 60.3768 39.9967 60.3768 40.286C60.3768 40.622 60.4841 40.9207 60.6988 41.182C60.9135 41.4433 61.2401 41.6393 61.6788 41.77L63.4988 42.344C64.3295 42.596 64.9548 42.96 65.3748 43.436C65.7948 43.9027 66.0048 44.486 66.0048 45.186C66.0048 45.7647 65.8508 46.278 65.5428 46.726C65.2441 47.174 64.8288 47.5287 64.2968 47.79C63.7648 48.042 63.1488 48.168 62.4488 48.168ZM67.8593 48V37.57H69.5113V42.162H74.3413V37.57H75.9793V48H74.3413V43.632H69.5113V48H67.8593ZM78.1405 48V37.57H79.6805L83.6005 43.002H82.8305L86.6805 37.57H88.2205V48H86.5825V39.516L87.1985 39.684L83.2645 45.06H83.0965L79.2465 39.684L79.7925 39.516V48H78.1405ZM90.3768 48V37.57H92.0288V48H90.3768Z" fill="white"/>
</g>
<defs>
<filter id="filter0_d_447_1310" x="0.659375" y="0.285352" width="46.4625" height="48.9356" filterUnits="userSpaceOnUse" color-interpolation-filters="sRGB">
<feFlood flood-opacity="0" result="BackgroundImageFix"/>
<feColorMatrix in="SourceAlpha" type="matrix" values="0 0 0 0 0 0 0 0 0 0 0 0 0 0 0 0 0 0 127 0" result="hardAlpha"/>
<feOffset dy="4"/>
<feGaussianBlur stdDeviation="5.35"/>
<feComposite in2="hardAlpha" operator="out"/>
<feColorMatrix type="matrix" values="0 0 0 0 0 0 0 0 0 0 0 0 0 0 0 0 0 0 0.19 0"/>
<feBlend mode="normal" in2="BackgroundImageFix" result="effect1_dropShadow_447_1310"/>
<feBlend mode="normal" in="SourceGraphic" in2="effect1_dropShadow_447_1310" result="shape"/>
</filter>
<filter id="filter1_d_447_1310" x="18.3" y="23.3" width="96.4" height="47.4" filterUnits="userSpaceOnUse" color-interpolation-filters="sRGB">
<feFlood flood-opacity="0" result="BackgroundImageFix"/>
<feColorMatrix in="SourceAlpha" type="matrix" values="0 0 0 0 0 0 0 0 0 0 0 0 0 0 0 0 0 0 127 0" result="hardAlpha"/>
<feOffset dy="4"/>
<feGaussianBlur stdDeviation="5.35"/>
<feComposite in2="hardAlpha" operator="out"/>
<feColorMatrix type="matrix" values="0 0 0 0 0 0 0 0 0 0 0 0 0 0 0 0 0 0 0.19 0"/>
<feBlend mode="normal" in2="BackgroundImageFix" result="effect1_dropShadow_447_1310"/>
<feBlend mode="normal" in="SourceGraphic" in2="effect1_dropShadow_447_1310" result="shape"/>
</filter>
</defs>
</svg>
