<svg width="10" height="10" viewBox="0 0 10 10" fill="none" xmlns="http://www.w3.org/2000/svg">
<path d="M5 9.1627C4.88333 9.1627 4.76458 9.14186 4.64375 9.1002C4.52292 9.05853 4.41667 8.99186 4.325 8.9002L3.4625 8.1127C2.57917 7.30436 1.78125 6.50228 1.06875 5.70645C0.35625 4.91061 0 4.03353 0 3.0752C0 2.29186 0.2625 1.6377 0.7875 1.1127C1.3125 0.587695 1.96667 0.325195 2.75 0.325195C3.19167 0.325195 3.60833 0.418945 4 0.606445C4.39167 0.793945 4.725 1.0502 5 1.3752C5.275 1.0502 5.60833 0.793945 6 0.606445C6.39167 0.418945 6.80833 0.325195 7.25 0.325195C8.03333 0.325195 8.6875 0.587695 9.2125 1.1127C9.7375 1.6377 10 2.29186 10 3.0752C10 4.03353 9.64583 4.9127 8.9375 5.7127C8.22917 6.5127 7.425 7.31686 6.525 8.1252L5.675 8.9002C5.58333 8.99186 5.47708 9.05853 5.35625 9.1002C5.23542 9.14186 5.11667 9.1627 5 9.1627Z" fill="#FF0952"/>
</svg>
