<svg width="26" height="26" viewBox="0 0 26 26" fill="none" xmlns="http://www.w3.org/2000/svg">
<rect width="26" height="26" rx="13" fill="white" fill-opacity="0.3"/>
<path d="M8 12.25C7.58579 12.25 7.25 12.5858 7.25 13C7.25 13.4142 7.58579 13.75 8 13.75L8 12.25ZM18.5303 13.5303C18.8232 13.2374 18.8232 12.7626 18.5303 12.4697L13.7574 7.6967C13.4645 7.40381 12.9896 7.40381 12.6967 7.6967C12.4038 7.98959 12.4038 8.46447 12.6967 8.75736L16.9393 13L12.6967 17.2426C12.4038 17.5355 12.4038 18.0104 12.6967 18.3033C12.9896 18.5962 13.4645 18.5962 13.7574 18.3033L18.5303 13.5303ZM8 13.75L18 13.75L18 12.25L8 12.25L8 13.75Z" fill="white"/>
</svg>
