<svg width="26" height="22" viewBox="0 0 26 22" fill="none" xmlns="http://www.w3.org/2000/svg">
<path d="M4.97432 17.5366C4.65747 17.3567 4.4048 17.1105 4.2163 16.7982C4.02779 16.4859 3.93353 16.1356 3.93353 15.7473V9.95974L1.29394 8.49919C1.11399 8.39265 0.978752 8.26553 0.888228 8.11785C0.797704 7.97019 0.752441 7.80612 0.752441 7.62563C0.752441 7.44514 0.797704 7.2808 0.888228 7.1326C0.978752 6.98438 1.11399 6.857 1.29394 6.75046L11.5103 1.15028C11.6677 1.06729 11.8283 1.00744 11.9919 0.970739C12.1556 0.934012 12.3205 0.915649 12.4867 0.915649C12.6528 0.915649 12.8177 0.934012 12.9814 0.970739C13.145 1.00744 13.303 1.06718 13.4552 1.14996L24.8336 7.32923C25.0036 7.43135 25.1349 7.56125 25.2277 7.71892C25.3204 7.87659 25.3668 8.04671 25.3668 8.22926V16.0554C25.3668 16.2853 25.2886 16.478 25.1323 16.6335C24.9759 16.789 24.7822 16.8668 24.551 16.8668C24.3199 16.8668 24.1276 16.789 23.9742 16.6335C23.8207 16.478 23.744 16.2853 23.744 16.0554V8.55379L21.0397 9.95974V15.7473C21.0397 16.1356 20.9455 16.4859 20.757 16.7982C20.5685 17.1105 20.313 17.3567 19.9907 17.5366L13.4579 21.0928C13.3039 21.1834 13.145 21.247 12.9814 21.2837C12.8177 21.3204 12.6528 21.3387 12.4867 21.3387C12.3205 21.3387 12.1556 21.3204 11.9919 21.2837C11.8283 21.247 11.6667 21.1834 11.5071 21.0928L4.97432 17.5366ZM12.3376 12.7054C12.39 12.7385 12.4404 12.7551 12.4887 12.7551C12.537 12.7551 12.5902 12.7385 12.6481 12.7054L21.9647 7.62482L12.6481 2.60473C12.5902 2.5716 12.537 2.55503 12.4887 2.55503C12.4404 2.55503 12.39 2.5716 12.3376 2.60473L3.03511 7.62482L12.3376 12.7054ZM12.3252 19.7043C12.3776 19.7375 12.4301 19.754 12.4825 19.754C12.535 19.754 12.5902 19.7375 12.6481 19.7043L19.2306 16.1017C19.2969 16.0659 19.3445 16.0196 19.3735 15.963C19.4024 15.9065 19.4169 15.8368 19.4169 15.754V10.897L13.4645 14.122C13.3105 14.207 13.1529 14.2679 12.9917 14.3046C12.8305 14.3413 12.6622 14.3596 12.4867 14.3596C12.3111 14.3596 12.145 14.3413 11.9882 14.3046C11.8314 14.2679 11.676 14.207 11.522 14.122L5.55634 10.8622V15.754C5.55634 15.8257 5.57084 15.8927 5.59984 15.9548C5.62882 16.0169 5.67642 16.0659 5.74267 16.1017L12.3252 19.7043Z" fill="black"/>
</svg>
