<svg width="12" height="11" viewBox="0 0 12 11" fill="none" xmlns="http://www.w3.org/2000/svg">
<path d="M5.99988 8.86641L3.53321 10.7497C3.41099 10.8497 3.27766 10.897 3.13321 10.8914C2.98877 10.8858 2.86099 10.8442 2.74988 10.7664C2.63877 10.6886 2.55266 10.5831 2.49155 10.4497C2.43043 10.3164 2.42766 10.172 2.48321 10.0164L3.43321 6.93307L1.01655 5.21641C0.883212 5.12752 0.799879 5.01085 0.766546 4.86641C0.733212 4.72196 0.738768 4.58863 0.783212 4.46641C0.827657 4.34418 0.905435 4.23585 1.01655 4.14141C1.12766 4.04696 1.26099 3.99974 1.41655 3.99974H4.39988L5.36655 0.79974C5.4221 0.644184 5.50821 0.52474 5.62488 0.441406C5.74155 0.358073 5.86655 0.316406 5.99988 0.316406C6.13321 0.316406 6.25821 0.358073 6.37488 0.441406C6.49155 0.52474 6.57766 0.644184 6.63321 0.79974L7.59988 3.99974H10.5832C10.7388 3.99974 10.8721 4.04696 10.9832 4.14141C11.0943 4.23585 11.1721 4.34418 11.2165 4.46641C11.261 4.58863 11.2665 4.72196 11.2332 4.86641C11.1999 5.01085 11.1165 5.12752 10.9832 5.21641L8.56655 6.93307L9.51655 10.0164C9.5721 10.172 9.56932 10.3164 9.50821 10.4497C9.4471 10.5831 9.36099 10.6886 9.24988 10.7664C9.13877 10.8442 9.01099 10.8858 8.86655 10.8914C8.7221 10.897 8.58877 10.8497 8.46655 10.7497L5.99988 8.86641Z" fill="#FFC619"/>
</svg>
