<svg width="12" height="12" viewBox="0 0 12 12" fill="none" xmlns="http://www.w3.org/2000/svg">
<path d="M6.00017 2.75015V7.95015L8.10017 9.23348L7.55017 6.83348L9.40017 5.23348L6.96684 5.01682L6.00017 2.75015ZM6.00017 9.51682L3.23351 11.1835C3.11128 11.2613 2.98351 11.2946 2.85017 11.2835C2.71684 11.2724 2.60017 11.2279 2.50017 11.1502C2.40017 11.0724 2.3224 10.9752 2.26684 10.8585C2.21128 10.7418 2.20017 10.6113 2.23351 10.4668L2.96684 7.31682L0.516839 5.20015C0.405728 5.10015 0.336284 4.98626 0.308506 4.85848C0.280728 4.73071 0.289062 4.60571 0.333506 4.48348C0.377951 4.36126 0.444617 4.26126 0.533506 4.18348C0.622395 4.10571 0.744617 4.05571 0.900173 4.03348L4.13351 3.75015L5.38351 0.783484C5.43906 0.650151 5.52517 0.550151 5.64184 0.483484C5.75851 0.416817 5.87795 0.383484 6.00017 0.383484C6.1224 0.383484 6.24184 0.416817 6.35851 0.483484C6.47517 0.550151 6.56128 0.650151 6.61684 0.783484L7.86684 3.75015L11.1002 4.03348C11.2557 4.05571 11.378 4.10571 11.4668 4.18348C11.5557 4.26126 11.6224 4.36126 11.6668 4.48348C11.7113 4.60571 11.7196 4.73071 11.6918 4.85848C11.6641 4.98626 11.5946 5.10015 11.4835 5.20015L9.03351 7.31682L9.76684 10.4668C9.80017 10.6113 9.78906 10.7418 9.73351 10.8585C9.67795 10.9752 9.60017 11.0724 9.50017 11.1502C9.40017 11.2279 9.28351 11.2724 9.15017 11.2835C9.01684 11.2946 8.88906 11.2613 8.76684 11.1835L6.00017 9.51682Z" fill="#FFC619"/>
</svg>
