<svg width="78" height="77" viewBox="0 0 78 77" fill="none" xmlns="http://www.w3.org/2000/svg">
<g filter="url(#filter0_ddii_415_266)">
<path d="M39.2713 12.7806C41.3462 12.7806 43.0186 11.1082 43.0186 9.03314C43.0186 6.95808 41.3462 5.28564 39.2713 5.28564C37.1961 5.28564 35.5237 6.95808 35.5237 9.03314C35.5237 11.1082 37.1961 12.7806 39.2713 12.7806ZM52.0313 16.1874C53.7967 17.2405 56.0886 16.652 57.1415 14.8247C58.1635 13.0284 57.5749 10.7365 55.7788 9.71449C53.9825 8.66147 51.6906 9.28091 50.6374 11.0772C49.6154 12.8735 50.204 15.1654 52.0313 16.1874ZM61.3534 25.5097C62.3757 27.337 64.6673 27.9254 66.4636 26.9034C68.26 25.8814 68.8795 23.5585 67.8266 21.7622C66.8043 19.9659 64.5436 19.3774 62.7163 20.3995C60.8891 21.4525 60.3005 23.7134 61.3534 25.5097ZM64.7603 38.2698C64.7603 40.3447 66.4327 42.0171 68.5079 42.0171C70.5519 42.0171 72.2552 40.3447 72.2552 38.2698C72.2552 36.1947 70.5828 34.5532 68.5079 34.5223C66.4327 34.5223 64.7603 36.1947 64.7603 38.2698ZM61.3534 50.9989C60.3005 52.7952 60.8891 55.0871 62.7163 56.14C64.5124 57.162 66.8043 56.5425 67.8266 54.7462C68.8795 52.9501 68.26 50.7201 66.4636 49.636C64.6673 48.583 62.3757 49.2025 61.3534 50.9989ZM52.0313 60.352C50.204 61.3742 49.6154 63.6349 50.6374 65.4622C51.6597 67.2585 53.9825 67.878 55.7788 66.8251C57.5749 65.8028 58.1326 63.5421 57.1415 61.6837C56.0886 59.8876 53.8276 59.299 52.0313 60.352ZM39.2713 63.7589C37.1961 63.7589 35.5237 65.4003 35.5237 67.5064C35.5237 69.5813 37.1961 71.2537 39.2713 71.2537C41.3462 71.2537 43.0186 69.5813 43.0186 67.5064C43.0186 65.4003 41.3462 63.7589 39.2713 63.7589ZM26.5421 60.352C24.7458 59.299 22.454 59.8876 21.4009 61.6837C20.3789 63.511 20.9674 65.8028 22.7946 66.8251C24.591 67.878 26.8518 67.2585 27.9049 65.4622C28.9269 63.6349 28.3384 61.3742 26.5421 60.352ZM17.1889 50.9989C16.1669 49.2025 13.906 48.583 12.0787 49.636C10.2824 50.6582 9.66294 52.9501 10.716 54.7774C11.738 56.5425 13.9989 57.162 15.8571 56.14C17.6535 55.0871 18.2419 52.8262 17.1889 50.9989ZM13.7821 38.2698C13.7821 36.1947 12.1096 34.5223 10.0346 34.5223C7.99051 34.5223 6.28711 36.1947 6.28711 38.2698C6.28711 40.3447 7.95954 41.9862 10.0346 42.0171C12.1096 42.0171 13.7821 40.3447 13.7821 38.2698ZM17.1889 25.5407C18.2419 23.7134 17.6535 21.4525 15.8571 20.3995C14.0299 19.3774 11.738 19.9659 10.716 21.7622C9.66294 23.5585 10.2824 25.8194 12.0787 26.9034C13.906 27.9254 16.1669 27.337 17.1889 25.5407ZM26.5421 16.1874C28.3384 15.1654 28.9269 12.8735 27.9049 11.0772C26.8828 9.28091 24.591 8.66147 22.7946 9.71449C20.9674 10.7365 20.4099 12.9974 21.4009 14.8247C22.454 16.652 24.7149 17.2405 26.5421 16.1874ZM39.2092 57.8743C50.1422 57.8743 58.8448 49.1407 58.8139 38.2389C58.8139 27.368 50.08 18.6341 39.1783 18.6341C28.2765 18.6341 19.6046 27.337 19.6046 38.2389C19.6046 49.1716 28.3075 57.8743 39.2092 57.8743Z" fill="url(#paint0_linear_415_266)"/>
</g>
<defs>
<filter id="filter0_ddii_415_266" x="0.162971" y="0.703173" width="78.2165" height="78.2163" filterUnits="userSpaceOnUse" color-interpolation-filters="sRGB">
<feFlood flood-opacity="0" result="BackgroundImageFix"/>
<feColorMatrix in="SourceAlpha" type="matrix" values="0 0 0 0 0 0 0 0 0 0 0 0 0 0 0 0 0 0 127 0" result="hardAlpha"/>
<feOffset dy="1.54167"/>
<feGaussianBlur stdDeviation="3.06207"/>
<feComposite in2="hardAlpha" operator="out"/>
<feColorMatrix type="matrix" values="0 0 0 0 1 0 0 0 0 0.776471 0 0 0 0 0.0980392 0 0 0 1 0"/>
<feBlend mode="normal" in2="BackgroundImageFix" result="effect1_dropShadow_415_266"/>
<feColorMatrix in="SourceAlpha" type="matrix" values="0 0 0 0 0 0 0 0 0 0 0 0 0 0 0 0 0 0 127 0" result="hardAlpha"/>
<feOffset dy="1.27586"/>
<feGaussianBlur stdDeviation="0.510345"/>
<feComposite in2="hardAlpha" operator="out"/>
<feColorMatrix type="matrix" values="0 0 0 0 0 0 0 0 0 0 0 0 0 0 0 0 0 0 0.25 0"/>
<feBlend mode="normal" in2="effect1_dropShadow_415_266" result="effect2_dropShadow_415_266"/>
<feBlend mode="normal" in="SourceGraphic" in2="effect2_dropShadow_415_266" result="shape"/>
<feColorMatrix in="SourceAlpha" type="matrix" values="0 0 0 0 0 0 0 0 0 0 0 0 0 0 0 0 0 0 127 0" result="hardAlpha"/>
<feOffset dy="3.08333"/>
<feGaussianBlur stdDeviation="3.08333"/>
<feComposite in2="hardAlpha" operator="arithmetic" k2="-1" k3="1"/>
<feColorMatrix type="matrix" values="0 0 0 0 1 0 0 0 0 0.771333 0 0 0 0 0.183333 0 0 0 1 0"/>
<feBlend mode="normal" in2="shape" result="effect3_innerShadow_415_266"/>
<feColorMatrix in="SourceAlpha" type="matrix" values="0 0 0 0 0 0 0 0 0 0 0 0 0 0 0 0 0 0 127 0" result="hardAlpha"/>
<feOffset dy="-3.08333"/>
<feGaussianBlur stdDeviation="2.42414"/>
<feComposite in2="hardAlpha" operator="arithmetic" k2="-1" k3="1"/>
<feColorMatrix type="matrix" values="0 0 0 0 1 0 0 0 0 0.954847 0 0 0 0 0.693333 0 0 0 1 0"/>
<feBlend mode="normal" in2="effect3_innerShadow_415_266" result="effect4_innerShadow_415_266"/>
</filter>
<linearGradient id="paint0_linear_415_266" x1="39.2712" y1="5.28564" x2="39.2712" y2="71.2537" gradientUnits="userSpaceOnUse">
<stop stop-color="#FFF8D1"/>
<stop offset="1" stop-color="#FFC619"/>
</linearGradient>
</defs>
</svg>
