<svg width="28" height="28" viewBox="0 0 28 28" fill="none" xmlns="http://www.w3.org/2000/svg">
<g filter="url(#filter0_ddii_415_201)">
<path d="M13.7516 4.40014C14.463 4.40014 15.0364 3.82676 15.0364 3.11535C15.0364 2.40394 14.463 1.83057 13.7516 1.83057C13.0402 1.83057 12.4668 2.40394 12.4668 3.11535C12.4668 3.82676 13.0402 4.40014 13.7516 4.40014ZM18.1263 5.56813C18.7315 5.92915 19.5173 5.7274 19.8783 5.10094C20.2286 4.48509 20.0268 3.69935 19.4111 3.34895C18.7952 2.98793 18.0095 3.2003 17.6484 3.81615C17.298 4.43199 17.4998 5.21773 18.1263 5.56813ZM21.3223 8.76417C21.6727 9.39064 22.4584 9.59238 23.0743 9.24199C23.6901 8.89159 23.9025 8.09523 23.5415 7.47939C23.191 6.86354 22.416 6.66179 21.7895 7.01219C21.1631 7.3732 20.9613 8.14832 21.3223 8.76417ZM22.4903 13.1388C22.4903 13.8502 23.0636 14.4236 23.7751 14.4236C24.4759 14.4236 25.0598 13.8502 25.0598 13.1388C25.0598 12.4274 24.4865 11.8646 23.7751 11.854C23.0636 11.854 22.4903 12.4274 22.4903 13.1388ZM21.3223 17.5029C20.9613 18.1187 21.1631 18.9045 21.7895 19.2655C22.4053 19.6158 23.191 19.4035 23.5415 18.7876C23.9025 18.1718 23.6901 17.4073 23.0743 17.0356C22.4584 16.6746 21.6727 16.887 21.3223 17.5029ZM18.1263 20.7095C17.4998 21.0599 17.298 21.835 17.6484 22.4615C17.9989 23.0773 18.7952 23.2897 19.4111 22.9287C20.0268 22.5783 20.218 21.8032 19.8783 21.166C19.5173 20.5503 18.7421 20.3485 18.1263 20.7095ZM13.7516 21.8775C13.0402 21.8775 12.4668 22.4403 12.4668 23.1623C12.4668 23.8737 13.0402 24.447 13.7516 24.447C14.463 24.447 15.0364 23.8737 15.0364 23.1623C15.0364 22.4403 14.463 21.8775 13.7516 21.8775ZM9.38758 20.7095C8.77174 20.3485 7.986 20.5503 7.62498 21.166C7.27458 21.7925 7.47633 22.5783 8.10279 22.9287C8.71864 23.2897 9.49376 23.0773 9.85478 22.4615C10.2052 21.835 10.0034 21.0599 9.38758 20.7095ZM6.18092 17.5029C5.83052 16.887 5.0554 16.6746 4.42894 17.0356C3.81309 17.3861 3.60073 18.1718 3.96174 18.7983C4.31214 19.4035 5.08726 19.6158 5.72434 19.2655C6.34019 18.9045 6.54194 18.1293 6.18092 17.5029ZM5.01294 13.1388C5.01294 12.4274 4.43955 11.854 3.72815 11.854C3.02735 11.854 2.44336 12.4274 2.44336 13.1388C2.44336 13.8502 3.01673 14.413 3.72815 14.4236C4.43955 14.4236 5.01294 13.8502 5.01294 13.1388ZM6.18092 8.77479C6.54194 8.14832 6.34019 7.3732 5.72434 7.01219C5.09788 6.66179 4.31214 6.86354 3.96174 7.47939C3.60073 8.09523 3.81309 8.87035 4.42894 9.24199C5.0554 9.59238 5.83052 9.39064 6.18092 8.77479ZM9.38758 5.56813C10.0034 5.21773 10.2052 4.43199 9.85478 3.81615C9.50438 3.2003 8.71864 2.98793 8.10279 3.34895C7.47633 3.69935 7.2852 4.47447 7.62498 5.10094C7.986 5.7274 8.76112 5.92915 9.38758 5.56813ZM13.7303 19.86C17.4786 19.86 20.4622 16.8658 20.4516 13.1282C20.4516 9.40125 17.4573 6.40696 13.7197 6.40696C9.98219 6.40696 7.00913 9.39064 7.00913 13.1282C7.00913 16.8764 9.99281 19.86 13.7303 19.86Z" fill="url(#paint0_linear_415_201)"/>
</g>
<defs>
<filter id="filter0_ddii_415_201" x="0.343764" y="0.259515" width="26.8159" height="26.8156" filterUnits="userSpaceOnUse" color-interpolation-filters="sRGB">
<feFlood flood-opacity="0" result="BackgroundImageFix"/>
<feColorMatrix in="SourceAlpha" type="matrix" values="0 0 0 0 0 0 0 0 0 0 0 0 0 0 0 0 0 0 127 0" result="hardAlpha"/>
<feOffset dy="0.528544"/>
<feGaussianBlur stdDeviation="1.0498"/>
<feComposite in2="hardAlpha" operator="out"/>
<feColorMatrix type="matrix" values="0 0 0 0 1 0 0 0 0 0.776471 0 0 0 0 0.0980392 0 0 0 1 0"/>
<feBlend mode="normal" in2="BackgroundImageFix" result="effect1_dropShadow_415_201"/>
<feColorMatrix in="SourceAlpha" type="matrix" values="0 0 0 0 0 0 0 0 0 0 0 0 0 0 0 0 0 0 127 0" result="hardAlpha"/>
<feOffset dy="0.437416"/>
<feGaussianBlur stdDeviation="0.174966"/>
<feComposite in2="hardAlpha" operator="out"/>
<feColorMatrix type="matrix" values="0 0 0 0 0 0 0 0 0 0 0 0 0 0 0 0 0 0 0.25 0"/>
<feBlend mode="normal" in2="effect1_dropShadow_415_201" result="effect2_dropShadow_415_201"/>
<feBlend mode="normal" in="SourceGraphic" in2="effect2_dropShadow_415_201" result="shape"/>
<feColorMatrix in="SourceAlpha" type="matrix" values="0 0 0 0 0 0 0 0 0 0 0 0 0 0 0 0 0 0 127 0" result="hardAlpha"/>
<feOffset dy="1.05709"/>
<feGaussianBlur stdDeviation="1.05709"/>
<feComposite in2="hardAlpha" operator="arithmetic" k2="-1" k3="1"/>
<feColorMatrix type="matrix" values="0 0 0 0 1 0 0 0 0 0.771333 0 0 0 0 0.183333 0 0 0 1 0"/>
<feBlend mode="normal" in2="shape" result="effect3_innerShadow_415_201"/>
<feColorMatrix in="SourceAlpha" type="matrix" values="0 0 0 0 0 0 0 0 0 0 0 0 0 0 0 0 0 0 127 0" result="hardAlpha"/>
<feOffset dy="-1.05709"/>
<feGaussianBlur stdDeviation="0.83109"/>
<feComposite in2="hardAlpha" operator="arithmetic" k2="-1" k3="1"/>
<feColorMatrix type="matrix" values="0 0 0 0 1 0 0 0 0 0.954847 0 0 0 0 0.693333 0 0 0 1 0"/>
<feBlend mode="normal" in2="effect3_innerShadow_415_201" result="effect4_innerShadow_415_201"/>
</filter>
<linearGradient id="paint0_linear_415_201" x1="13.7516" y1="1.83057" x2="13.7516" y2="24.447" gradientUnits="userSpaceOnUse">
<stop stop-color="#FFF8D1"/>
<stop offset="1" stop-color="#FFC619"/>
</linearGradient>
</defs>
</svg>
