<svg width="21" height="16" viewBox="0 0 21 16" fill="none" xmlns="http://www.w3.org/2000/svg">
<rect y="0.533936" width="20.6746" height="14.932" rx="4" fill="#8C8C8C"/>
<path d="M7.46693 12.3865C6.77002 12.3865 6.23189 12.188 5.85256 11.7911C5.48205 11.3941 5.29679 10.8339 5.29679 10.1105V6.35247H4V5.17477H4.26465C4.58223 5.17477 4.83365 5.07773 5.01891 4.88366C5.20416 4.68958 5.29679 4.43375 5.29679 4.11617V3.53394H6.52742V5.17477H8.12856V6.35247H6.52742V10.0708C6.52742 10.309 6.56271 10.5163 6.63328 10.6928C6.71268 10.8692 6.84059 11.0103 7.01702 11.1162C7.19346 11.2132 7.42723 11.2618 7.71835 11.2618C7.7801 11.2618 7.85509 11.2573 7.9433 11.2485C8.04034 11.2397 8.12856 11.2309 8.20795 11.2221V12.3071C8.09327 12.3336 7.96536 12.3512 7.82421 12.3601C7.68306 12.3777 7.56397 12.3865 7.46693 12.3865Z" fill="white"/>
<path d="M13.0092 12.4659C12.3211 12.4659 11.6992 12.3071 11.1434 11.9895C10.5876 11.6631 10.1466 11.2176 9.82016 10.6531C9.49375 10.0885 9.33055 9.44889 9.33055 8.73433C9.33055 8.01977 9.48934 7.38461 9.80692 6.82884C10.1333 6.27308 10.5744 5.83199 11.1302 5.50559C11.6859 5.17918 12.3123 5.01598 13.0092 5.01598C13.6973 5.01598 14.3192 5.17918 14.875 5.50559C15.4308 5.82317 15.8674 6.25984 16.185 6.81561C16.5114 7.37138 16.6746 8.01095 16.6746 8.73433C16.6746 9.45771 16.507 10.1017 16.1718 10.6663C15.8366 11.2221 15.3911 11.6631 14.8353 11.9895C14.2884 12.3071 13.6797 12.4659 13.0092 12.4659ZM13.0092 11.275C13.4503 11.275 13.8473 11.1647 14.2001 10.9442C14.5618 10.7236 14.8441 10.4193 15.047 10.0311C15.2587 9.64297 15.3646 9.21071 15.3646 8.73433C15.3646 8.24914 15.2587 7.82129 15.047 7.45077C14.8441 7.07144 14.5618 6.7715 14.2001 6.55096C13.8473 6.3216 13.4503 6.20691 13.0092 6.20691C12.5593 6.20691 12.1535 6.3216 11.7918 6.55096C11.4389 6.7715 11.1566 7.07144 10.9449 7.45077C10.7332 7.82129 10.6273 8.24914 10.6273 8.73433C10.6273 9.21071 10.7332 9.64297 10.9449 10.0311C11.1566 10.4193 11.4389 10.7236 11.7918 10.9442C12.1535 11.1647 12.5593 11.275 13.0092 11.275Z" fill="white"/>
</svg>
