<svg width="21" height="35" viewBox="0 0 21 35" fill="none" xmlns="http://www.w3.org/2000/svg">
<path d="M3.01852 10.909C3.02985 10.0446 3.03458 9.40287 3.0327 8.98374C3.05143 8.55909 3.15259 8.11235 3.33617 7.64353C3.37915 6.81483 3.5123 6.11658 3.73562 5.54877C3.97954 4.97543 4.29558 4.38277 4.68375 3.77079L5.73733 2.26272L6.60665 1.79788C6.69203 1.95169 6.86886 2.1583 7.13714 2.4177C7.42603 2.67158 7.5863 2.81637 7.61795 2.85206C7.86414 3.02904 8.11862 3.23692 8.38137 3.47572C8.66474 3.70899 9.01692 4.03426 9.43793 4.45151C9.85894 4.86877 10.4065 5.42878 11.0807 6.13157C11.7248 6.88661 12.2043 7.39861 12.5193 7.66758C12.8343 7.93655 13.1074 8.17258 13.3385 8.37569C13.4802 8.49232 13.6377 8.62681 13.811 8.77914C13.9899 8.95207 14.08 9.08251 14.0815 9.17046C14.1352 9.28858 14.1498 9.38407 14.1251 9.45693C14.1211 9.52427 14.0889 9.6102 14.0286 9.71471C13.8667 9.93477 13.7824 10.1561 13.7758 10.3787C13.7953 10.6165 13.7227 10.7574 13.5578 10.8016C13.5578 10.8016 13.4644 10.7825 13.2774 10.7442C13.1111 10.7004 12.9543 10.6099 12.8071 10.4727C12.5594 10.2077 12.3063 9.92221 12.0475 9.61607C11.7888 9.30994 11.4434 8.92764 11.0114 8.46917C10.5793 8.0107 9.9609 7.39237 9.15606 6.61416C8.67728 6.14613 8.26657 5.72611 7.92395 5.35411C7.58685 5.00272 7.2849 4.7413 7.0181 4.56984C6.77743 4.41347 6.52867 4.39178 6.27183 4.50477C5.9094 4.80066 5.60035 5.50187 5.3447 6.60841C5.09457 7.73556 4.94235 9.14567 4.88803 10.8388C4.91348 11.4283 4.87838 11.9567 4.78274 12.424C4.68711 12.8914 4.55559 13.2248 4.38817 13.4242C4.22076 13.6237 4.01597 13.6013 3.77382 13.3569C3.72561 13.2594 3.64022 13.1056 3.51767 12.8955C3.42124 12.7005 3.31855 12.4409 3.2096 12.1167C3.12678 11.8076 3.06309 11.405 3.01852 10.909ZM8.93476 17.7812C8.90163 17.6576 8.86022 17.503 8.81053 17.3175C8.78144 17.1266 8.77774 16.9067 8.79943 16.6579C8.71661 16.3488 8.6923 16.1345 8.72651 16.0149C8.78133 15.8898 8.86982 15.7667 8.99198 15.6456C9.24034 15.3361 9.44088 15.2603 9.59361 15.4181C9.76694 15.5705 9.99697 16.0168 10.2837 16.7572C10.6363 17.4136 10.9235 18.0324 11.1455 18.6134C11.3674 19.1944 11.5888 19.897 11.8097 20.7213C11.9532 21.2571 12.0293 21.6232 12.0377 21.8197C12.0462 22.0162 11.9675 22.2581 11.8016 22.5456C11.5753 22.9375 11.3069 23.1309 10.9963 23.1257C10.7063 23.1151 10.539 22.8618 10.4945 22.3657C10.4352 22.227 10.3428 21.9646 10.2173 21.5786C10.0918 21.1926 9.95874 20.8197 9.81814 20.4598C9.7368 20.2387 9.60926 19.8863 9.43554 19.4028C9.26181 18.9193 9.09488 18.3788 8.93476 17.7812ZM11.6362 27.863C11.6031 27.7394 11.5616 27.5849 11.5119 27.3994C11.4829 27.2084 11.4792 26.9886 11.5009 26.7398C11.418 26.4307 11.3937 26.2164 11.4279 26.0968C11.4828 25.9716 11.5712 25.8485 11.6934 25.7275C11.9418 25.418 12.1423 25.3421 12.295 25.5C12.4684 25.6523 12.6984 26.0987 12.9851 26.839C13.3377 27.4955 13.625 28.1142 13.8469 28.6952C14.0688 29.2762 14.2902 29.9789 14.5111 30.8031C14.6547 31.3389 14.7307 31.705 14.7392 31.9015C14.7476 32.098 14.6689 32.34 14.503 32.6274C14.2767 33.0193 14.0083 33.2127 13.6977 33.2076C13.4077 33.1969 13.2405 32.9436 13.1959 32.4476C13.1366 32.3089 13.0443 32.0465 12.9187 31.6605C12.7932 31.2745 12.6602 30.9016 12.5196 30.5417C12.4382 30.3205 12.3107 29.9682 12.137 29.4847C11.9632 29.0012 11.7963 28.4606 11.6362 27.863Z" fill="#9747FF"/>
</svg>
